<svg width="178" height="124" viewBox="0 0 178 124" fill="none" xmlns="http://www.w3.org/2000/svg">
<path d="M177.094 -3.49463H-6.59717V178.587H177.094V-3.49463Z" fill="#4C53B4"/>
<path d="M150.318 102.939C165.645 71.529 148.935 32.0979 112.996 14.8675C77.0569 -2.36293 35.4979 9.13218 20.1714 40.5425C4.84487 71.9529 21.5547 111.384 57.4938 128.614C93.4329 145.845 134.992 134.35 150.318 102.939Z" fill="#5F65BF"/>
<path d="M166.215 16.2393C164.949 14.9775 163.228 14.4222 161.671 14.7536C162.662 13.6301 162.808 11.8166 161.975 10.5147C161.129 9.18913 159.358 8.4863 157.765 8.845C156.459 9.13815 155.359 10.0103 154.786 11.1556C154.92 10.2234 154.911 9.0817 154.457 7.96554C153.906 6.61085 152.763 5.59848 151.472 5.32354C149.898 4.9885 148.066 5.79149 147.016 7.27909C146.342 8.2332 145.891 9.45497 145.728 10.7223C145.478 9.85009 144.892 9.04893 144.088 8.56823C142.892 7.85447 141.274 7.83262 139.964 8.50997C138.744 9.14179 137.789 10.3636 137.409 11.782C137.084 12.9983 137.161 14.3238 137.631 15.6348C136.498 14.6698 135.307 13.7448 133.711 14.0252C132.642 14.2128 131.758 14.8646 131.288 15.8133C130.82 16.7565 130.838 17.8398 131.336 18.7867C132.177 20.3853 133.898 21.3831 136.595 21.8365C138.461 22.1497 140.383 22.1697 142.24 22.188C142.585 22.1916 142.929 22.1952 143.274 22.2007C143.546 22.2043 143.786 22.2098 144.009 22.2171C145.531 22.2644 147.056 22.2954 148.538 22.3081C149.176 22.3136 149.81 22.3172 150.445 22.3172C152.751 22.3172 155.032 22.2772 157.253 22.1989C157.802 22.1788 158.36 22.1497 158.9 22.1224C159.698 22.0805 160.521 22.0386 161.331 22.0259C162.694 22.0022 163.912 21.9421 165.021 21.4505C165.98 21.0244 167.262 20.2943 167.348 18.8722C167.404 17.9709 166.99 17.0114 166.215 16.2393Z" fill="#93A1ED"/>
<path d="M175.009 45.003C174.131 44.129 172.94 43.7448 171.86 43.9743C172.547 43.1949 172.648 41.9404 172.072 41.0373C171.486 40.1196 170.259 39.6316 169.156 39.8792C168.251 40.0832 167.49 40.6859 167.092 41.4797C167.184 40.8333 167.178 40.0431 166.864 39.2693C166.484 38.3315 165.69 37.6305 164.796 37.4393C163.706 37.2063 162.437 37.7634 161.71 38.794C161.243 39.455 160.931 40.3017 160.817 41.1793C160.644 40.5748 160.238 40.0194 159.682 39.688C158.853 39.1946 157.733 39.1782 156.825 39.648C155.98 40.085 155.319 40.9317 155.056 41.9149C154.83 42.7579 154.884 43.6756 155.211 44.5842C154.426 43.916 153.602 43.2751 152.496 43.4699C151.755 43.5992 151.144 44.0507 150.817 44.708C150.493 45.3617 150.504 46.1119 150.85 46.7674C151.432 47.8744 152.624 48.5664 154.492 48.8795C155.786 49.0962 157.115 49.1108 158.403 49.1235C158.642 49.1253 158.881 49.129 159.12 49.1326C159.309 49.1363 159.474 49.1399 159.628 49.1435C160.683 49.1763 161.739 49.1982 162.766 49.2073C163.207 49.2109 163.648 49.2127 164.087 49.2127C165.683 49.2127 167.264 49.1854 168.802 49.1308C169.182 49.1181 169.57 49.098 169.943 49.078C170.494 49.0489 171.065 49.0197 171.625 49.0106C172.569 48.9942 173.413 48.9524 174.18 48.6119C174.843 48.3169 175.733 47.8107 175.793 46.8256C175.832 46.2011 175.545 45.5365 175.009 45.003Z" fill="#93A1ED"/>
<path d="M13.9633 81.8818C13.3093 81.2318 12.4221 80.9441 11.6194 81.1152C12.1319 80.5344 12.2054 79.6003 11.7774 78.9284C11.3402 78.2438 10.4272 77.8815 9.60614 78.0672C8.93199 78.2183 8.36439 78.6681 8.06865 79.2598C8.13845 78.7791 8.13294 78.1892 7.89965 77.6138C7.61493 76.9146 7.02528 76.392 6.36032 76.25C5.54841 76.077 4.6024 76.4922 4.06052 77.2587C3.71334 77.7504 3.48005 78.3822 3.39556 79.0359C3.26697 78.5861 2.96388 78.1728 2.54874 77.9252C1.93154 77.5574 1.09758 77.5464 0.421603 77.896C-0.208457 78.222 -0.700747 78.852 -0.897296 79.5839C-1.06629 80.2103 -1.02588 80.8949 -0.781571 81.5723C-1.36571 81.0752 -1.98107 80.5963 -2.80401 80.742C-3.35508 80.8385 -3.81063 81.1753 -4.05494 81.6651C-4.29557 82.1513 -4.28823 82.7103 -4.03106 83.1982C-3.59755 84.0231 -2.71032 84.5384 -1.31795 84.7714C-0.355409 84.9335 0.636521 84.9426 1.59539 84.9535C1.77357 84.9553 1.95175 84.9572 2.12809 84.959C2.26953 84.9608 2.3926 84.9644 2.50649 84.9681C3.29269 84.9918 4.07888 85.0081 4.84304 85.0154C5.17184 85.0191 5.49881 85.0209 5.82578 85.0209C7.01426 85.0209 8.19172 85.0009 9.33795 84.959C9.62083 84.9481 9.90923 84.9335 10.1884 84.9189C10.5999 84.8971 11.0242 84.8752 11.4412 84.8679C12.1447 84.8552 12.773 84.8261 13.3442 84.5711C13.8384 84.3508 14.5015 83.9739 14.5456 83.2419C14.575 82.7758 14.3619 82.2806 13.9633 81.8818Z" fill="#93A1ED"/>
<path d="M175.258 90.6379C174.63 90.0134 173.778 89.7366 173.006 89.9023C173.498 89.3451 173.57 88.4475 173.157 87.8011C172.738 87.1438 171.86 86.796 171.072 86.9726C170.423 87.1183 169.88 87.5498 169.595 88.1179C169.661 87.6554 169.657 87.0891 169.432 86.5374C169.16 85.8655 168.592 85.3648 167.953 85.2283C167.174 85.0626 166.265 85.4595 165.745 86.1969C165.411 86.6703 165.188 87.2749 165.106 87.903C164.983 87.4715 164.692 87.0728 164.294 86.836C163.702 86.4828 162.899 86.4719 162.251 86.8069C161.647 87.1201 161.173 87.7264 160.985 88.4274C160.824 89.0301 160.862 89.6875 161.096 90.3375C160.534 89.8604 159.944 89.4016 159.154 89.54C158.625 89.6328 158.186 89.9551 157.953 90.4267C157.721 90.8947 157.729 91.43 157.977 91.8997C158.394 92.6918 159.246 93.1871 160.583 93.411C161.507 93.5658 162.46 93.5767 163.381 93.5858C163.552 93.5876 163.722 93.5895 163.893 93.5913C164.029 93.5931 164.147 93.5968 164.257 93.5986C165.012 93.6222 165.767 93.6368 166.502 93.6441C166.818 93.6477 167.132 93.6477 167.446 93.6477C168.588 93.6477 169.718 93.6277 170.818 93.5895C171.09 93.5804 171.368 93.5658 171.636 93.5512C172.031 93.5312 172.439 93.5093 172.839 93.5039C173.515 93.493 174.117 93.462 174.667 93.218C175.141 93.0068 175.778 92.6445 175.82 91.9398C175.848 91.4955 175.642 91.0221 175.258 90.6379Z" fill="#93A1ED"/>
<path d="M16.7426 43.8649C16.0758 43.2021 15.1702 42.9089 14.3509 43.0837C14.8726 42.492 14.9498 41.5378 14.5126 40.8532C14.068 40.1558 13.1349 39.7862 12.2973 39.9738C11.6103 40.1285 11.0316 40.5874 10.7285 41.1901C10.7984 40.6985 10.7947 40.0976 10.5559 39.5113C10.2656 38.7993 9.66498 38.2658 8.98532 38.1202C8.15688 37.9436 7.1925 38.366 6.6396 39.1489C6.28507 39.6515 6.04811 40.2942 5.96178 40.9606C5.83136 40.5018 5.52276 40.0794 5.09843 39.8263C4.47021 39.4512 3.61788 39.4384 2.92904 39.7953C2.28796 40.1267 1.78465 40.7713 1.58443 41.5178C1.4136 42.1569 1.45401 42.8561 1.70199 43.5462C1.105 43.0382 0.478611 42.552 -0.360855 42.6995C-0.922948 42.7979 -1.38769 43.142 -1.63567 43.6409C-1.88181 44.1362 -1.87263 44.7079 -1.60995 45.205C-1.16726 46.0462 -0.261662 46.5706 1.15827 46.8109C2.14101 46.9766 3.15131 46.9857 4.12854 46.9967C4.3104 46.9985 4.49041 47.0003 4.67227 47.0021C4.81555 47.0039 4.94229 47.0076 5.05986 47.0112C5.86075 47.0367 6.66348 47.0513 7.44416 47.0604C7.77848 47.064 8.11279 47.0658 8.44711 47.0658C9.65947 47.0658 10.8608 47.044 12.0291 47.0039C12.3175 46.993 12.6114 46.9784 12.8961 46.9639C13.3149 46.942 13.7484 46.9202 14.1746 46.9129C14.891 46.9002 15.5339 46.8692 16.1162 46.6106C16.6195 46.3867 17.2955 46.0025 17.3414 45.2541C17.369 44.7753 17.1504 44.2709 16.7426 43.8649Z" fill="#93A1ED"/>
<path d="M37.0642 125.742C35.6755 124.358 33.7872 123.748 32.0789 124.112C33.1663 122.879 33.3261 120.889 32.415 119.46C31.4874 118.005 29.5439 117.235 27.797 117.626C26.3624 117.949 25.1574 118.904 24.5273 120.163C24.6743 119.139 24.6633 117.887 24.1673 116.663C23.563 115.177 22.3083 114.067 20.8921 113.764C19.1654 113.396 17.1558 114.278 16.0022 115.909C15.262 116.956 14.7697 118.296 14.5878 119.687C14.3141 118.73 13.6712 117.85 12.7877 117.324C11.4761 116.541 9.69982 116.517 8.26336 117.26C6.92609 117.952 5.87722 119.294 5.46024 120.851C5.10204 122.186 5.18838 123.64 5.70455 125.079C4.46096 124.021 3.15492 123.005 1.40435 123.313C0.230564 123.518 -0.737486 124.234 -1.25366 125.274C-1.76799 126.308 -1.74778 127.497 -1.20222 128.537C-0.280096 130.29 1.60824 131.384 4.56934 131.883C6.61749 132.227 8.72442 132.249 10.7634 132.269C11.1418 132.273 11.5202 132.277 11.8968 132.282C12.1962 132.286 12.4589 132.293 12.7032 132.3C14.3729 132.351 16.0463 132.386 17.6738 132.4C18.3719 132.408 19.0699 132.409 19.7642 132.409C22.2936 132.409 24.7974 132.366 27.2331 132.278C27.8356 132.256 28.4491 132.226 29.0406 132.195C29.915 132.149 30.8187 132.104 31.706 132.087C33.2012 132.062 34.5385 131.996 35.7545 131.455C36.8052 130.987 38.2141 130.186 38.3078 128.628C38.3684 127.641 37.9147 126.59 37.0642 125.742Z" fill="#93A1ED"/>
<path d="M31.5333 10.1324C30.2952 8.89973 28.6144 8.35531 27.0916 8.67941C28.0615 7.57964 28.203 5.80798 27.3911 4.53523C26.5644 3.23881 24.8322 2.55236 23.2764 2.90196C21.9979 3.18965 20.9233 4.03997 20.3631 5.16159C20.4935 4.24936 20.4843 3.1332 20.0416 2.04253C19.5034 0.718799 18.3847 -0.271726 17.1227 -0.539386C15.5853 -0.867133 13.7924 -0.0823604 12.7656 1.37247C12.1062 2.30473 11.6671 3.49919 11.5055 4.73734C11.2612 3.8852 10.6881 3.10043 9.90187 2.63248C8.73359 1.93511 7.15018 1.91326 5.86986 2.57603C4.6777 3.19329 3.74455 4.38957 3.37166 5.77521C3.05388 6.9642 3.12919 8.26062 3.59025 9.54248C2.4826 8.5993 1.318 7.69435 -0.241534 7.96929C-1.28673 8.1532 -2.15008 8.79048 -2.60931 9.71728C-3.0667 10.6386 -3.05016 11.6983 -2.56338 12.6233C-1.74045 14.1856 -0.0596793 15.1615 2.57812 15.6058C4.40217 15.9135 6.28132 15.9317 8.09619 15.9499C8.43234 15.9536 8.77033 15.9572 9.10648 15.9609C9.37284 15.9645 9.60796 15.97 9.82472 15.9772C11.3126 16.0228 12.8023 16.0537 14.2535 16.0665C14.8762 16.0719 15.4971 16.0756 16.1161 16.0756C18.3682 16.0756 20.6 16.0373 22.7712 15.959C23.3076 15.939 23.855 15.9117 24.3822 15.8844C25.161 15.8443 25.9656 15.8024 26.7573 15.7897C28.0891 15.766 29.2812 15.7078 30.365 15.2271C31.3018 14.8101 32.5564 14.0963 32.6409 12.7071C32.696 11.824 32.2919 10.8862 31.5333 10.1324Z" fill="#93A1ED"/>
<path d="M133.291 73.8066C129.407 69.9392 124.132 68.2331 119.356 69.2509C122.398 65.8041 122.841 60.2433 120.293 56.2503C117.697 52.1844 112.269 50.0285 107.385 51.1283C103.377 52.0296 100.006 54.7007 98.2462 58.2149C98.6558 55.3562 98.6283 51.853 97.2378 48.4335C95.5496 44.2802 92.043 41.1757 88.0826 40.3327C83.2571 39.3039 77.638 41.7693 74.4179 46.3268C72.3495 49.2529 70.97 53.0001 70.4667 56.8839C69.7025 54.2091 67.9042 51.751 65.4372 50.2798C61.7708 48.093 56.8074 48.0238 52.792 50.1032C49.052 52.0387 46.124 55.7896 44.9576 60.1359C43.9583 63.8649 44.1952 67.9326 45.6409 71.9512C42.1655 68.9942 38.5155 66.1555 33.622 67.0149C30.3431 67.5903 27.6355 69.5896 26.1917 72.4974C24.7571 75.3889 24.8104 78.7119 26.3387 81.6142C28.9177 86.5159 34.1933 89.5748 42.4667 90.9678C48.1887 91.931 54.0796 91.9892 59.7777 92.0457C60.8339 92.0566 61.892 92.0675 62.9464 92.0821C63.7822 92.0948 64.5188 92.1112 65.2003 92.1313C69.8697 92.2751 74.5428 92.3698 79.091 92.4135C81.0436 92.4317 82.9925 92.4408 84.936 92.4408C92.0026 92.4408 99.003 92.3188 105.812 92.0748C107.497 92.0147 109.209 91.9273 110.866 91.8418C113.309 91.7161 115.835 91.5868 118.316 91.5431C122.495 91.4721 126.233 91.2882 129.632 89.777C132.569 88.4696 136.505 86.2282 136.768 81.871C136.937 79.1143 135.67 76.1736 133.291 73.8066Z" fill="#74C7E5"/>
<path d="M72.111 67.0132C71.7565 67.0533 71.503 67.3719 71.5434 67.7215C71.6701 68.8158 71.108 69.9975 70.173 70.5948C69.2399 71.192 67.921 71.2139 66.9676 70.6476C66.0143 70.0813 65.4118 68.9196 65.5036 67.8217C65.533 67.4703 65.2685 67.1607 64.914 67.1316C64.5558 67.1006 64.2472 67.3646 64.2178 67.7161C64.1572 68.4389 64.3005 69.1673 64.6017 69.8246C64.2913 70.278 63.8872 70.6694 63.4206 70.9571C63.3196 71.019 63.2883 71.1501 63.3508 71.2503C63.3912 71.3158 63.461 71.3504 63.5345 71.3504C63.573 71.3504 63.6135 71.3395 63.6484 71.3176C64.1002 71.0391 64.5007 70.6713 64.824 70.2488C65.1436 70.786 65.5789 71.2557 66.0988 71.6108C65.9133 72.0132 65.6047 72.3628 65.2171 72.5813C65.1142 72.6396 65.0775 72.7688 65.1362 72.8726C65.1748 72.9418 65.2483 72.9801 65.3236 72.9801C65.3603 72.9801 65.3952 72.9709 65.4301 72.9527C65.882 72.6996 66.2439 72.2991 66.4698 71.8348C67.0999 72.1716 67.8126 72.3409 68.5272 72.3409C69.3519 72.3409 70.1786 72.117 70.8747 71.6709C72.2267 70.806 73.0111 69.1618 72.8274 67.5759C72.787 67.2244 72.4655 66.9732 72.111 67.0132Z" fill="#231F20"/>
<path d="M99.4271 70.9571C98.9605 70.6694 98.5564 70.278 98.2459 69.8246C98.5472 69.1673 98.6905 68.4389 98.6298 67.7179C98.6005 67.3665 98.2937 67.1061 97.9337 67.1316C97.5791 67.1607 97.3146 67.4684 97.344 67.8217C97.434 68.9196 96.8315 70.0813 95.88 70.6476C94.9266 71.2139 93.6096 71.192 92.6746 70.5948C91.7414 69.9975 91.1775 68.8158 91.3043 67.7215C91.3447 67.3701 91.0912 67.0533 90.7367 67.0132C90.384 66.9732 90.0625 67.2244 90.0221 67.5759C89.8384 69.16 90.6228 70.806 91.9747 71.6709C92.6728 72.117 93.4975 72.3409 94.3223 72.3409C95.0369 72.3409 95.7477 72.1716 96.3796 71.8348C96.6056 72.2991 96.9675 72.6996 97.4193 72.9527C97.4524 72.9709 97.4891 72.9801 97.5259 72.9801C97.6012 72.9801 97.6747 72.9418 97.7132 72.8726C97.772 72.7707 97.7353 72.6396 97.6324 72.5813C97.2448 72.3646 96.9362 72.015 96.7507 71.6108C97.2705 71.2576 97.7059 70.7878 98.0255 70.2488C98.3488 70.6731 98.7492 71.0391 99.203 71.3176C99.2379 71.3395 99.2783 71.3504 99.3169 71.3504C99.3885 71.3504 99.4583 71.314 99.5005 71.2503C99.5575 71.1519 99.5281 71.0209 99.4271 70.9571Z" fill="#231F20"/>
<path d="M76.2733 82.1585C75.5937 81.4029 74.396 81.1479 73.428 81.5558C72.4287 81.9746 71.8023 83.0416 71.9713 84.0376C72.1568 85.1319 73.2314 85.7255 74.216 85.8274C74.3299 85.8384 74.4401 85.8456 74.5503 85.8456C75.3328 85.8456 76.0143 85.5507 76.4166 85.0245C77.043 84.2051 76.9805 82.9469 76.2733 82.1585Z" fill="#91D9F2"/>
<path d="M67.5185 75.2468C66.4421 74.6113 64.9119 74.564 63.6996 74.5804C62.3366 74.5986 60.8101 74.7825 59.5573 75.3433C58.6132 75.7657 58.075 76.6907 58.5397 77.6885C59.0595 78.8065 60.5052 79.1524 61.622 79.289C63.4442 79.5111 67.3367 79.6313 68.3084 77.663C68.7566 76.7508 68.3819 75.7566 67.5185 75.2468Z" fill="#57B6DC"/>
<path d="M105.513 75.2468C104.437 74.6113 102.907 74.564 101.694 74.5804C100.331 74.5986 98.8047 74.7825 97.552 75.3433C96.6078 75.7657 96.0696 76.6907 96.5343 77.6885C97.0542 78.8065 98.4998 79.1524 99.6167 79.289C101.439 79.5111 105.331 79.6313 106.303 77.663C106.749 76.7508 106.376 75.7566 105.513 75.2468Z" fill="#57B6DC"/>
<path d="M30.4166 69.6898C28.0488 70.6712 26.5021 73.3132 26.8181 75.8369C27.134 78.3605 29.285 80.5491 31.8218 80.926C31.8806 80.9351 31.9394 80.9388 32 80.9388C32.5805 80.9388 33.0819 80.5091 33.1683 79.941C33.216 79.6314 33.137 79.3219 32.9497 79.0688C32.7623 78.8175 32.4868 78.6518 32.1745 78.6063C30.6499 78.3787 29.3567 77.0641 29.1656 75.5474C28.9764 74.0306 29.9059 72.441 31.3277 71.8529C32.7513 71.263 34.5441 71.7236 35.4993 72.9236C35.6958 73.1694 35.9769 73.3241 36.2892 73.3605C36.6033 73.397 36.9119 73.3096 37.1599 73.1166C37.4078 72.9217 37.564 72.6431 37.6026 72.3336C37.6411 72.0241 37.5511 71.7164 37.3564 71.4705C35.7675 69.4731 32.7825 68.7084 30.4166 69.6898Z" fill="#57B6DC"/>
<path d="M55.1707 50.5475C51.9947 51.092 49.0887 53.388 47.5842 56.5399C46.2911 59.251 45.9825 62.5995 46.7154 65.9662C46.833 66.5015 47.3179 66.8912 47.8708 66.8912C47.9553 66.8912 48.0398 66.8821 48.1206 66.8639C48.4292 66.7983 48.6937 66.6163 48.8646 66.3522C49.0354 66.0882 49.0942 65.775 49.0262 65.4691C48.4017 62.6032 48.6478 59.7882 49.7206 57.5395C50.8999 55.0668 53.1427 53.2715 55.5693 52.8545C58.0969 52.423 60.8228 53.6557 61.9121 55.7241C62.0591 56.0027 62.3052 56.2066 62.6065 56.3013C62.9077 56.396 63.2292 56.3669 63.5084 56.223C64.087 55.9244 64.313 55.2143 64.0099 54.6407C62.4448 51.6619 58.7251 49.9394 55.1707 50.5475Z" fill="#57B6DC"/>
<path d="M91.6019 46.3797C90.6448 43.3862 87.3512 41.2177 83.942 41.3415C80.9698 41.4471 78.0198 43.1168 76.0469 45.8079C74.4727 47.9565 73.4789 50.7369 73.095 54.0726C73.0215 54.7154 73.4881 55.298 74.1384 55.3709C74.1843 55.3763 74.2284 55.3782 74.2725 55.3782C74.8731 55.3782 75.3783 54.9321 75.4463 54.3385C75.7843 51.4106 76.6311 49.0035 77.9628 47.1845C79.5095 45.0723 81.7762 43.7632 84.0264 43.6849C86.4126 43.5993 88.6995 45.0632 89.3461 47.0862C89.4416 47.3848 89.6492 47.6306 89.9303 47.7744C90.2113 47.9183 90.5309 47.9456 90.8303 47.8509C91.4531 47.6561 91.7984 46.9969 91.6019 46.3797Z" fill="#57B6DC"/>
<path d="M120.294 56.2503C122.842 60.2433 122.398 65.8023 119.357 69.2509C120.796 68.945 122.278 68.8868 123.753 69.0579C130.357 63.9087 134.743 55.9189 135.553 47.4667C136.45 38.1241 133.676 28.3881 128.312 22.059C122.846 15.6078 115.381 11.7222 106.124 10.5095C100.735 9.80307 94.3443 10.6461 89.8421 12.6526C85.3288 14.6646 81.2637 18.3482 78.3981 23.024C75.8871 27.1209 74.188 32.0425 73.3503 37.6488C73.3356 37.7453 73.3889 37.8382 73.4789 37.8764C73.5689 37.9147 73.6736 37.8855 73.7342 37.8091C75.6814 35.2708 79.0649 33.3918 83.2641 32.5141C87.3659 31.6583 91.5192 31.9733 94.9615 33.4027C98.7456 34.9722 101.791 38.0002 103.112 41.5017C104.537 45.2835 103.926 49.6407 101.552 52.6014C101.508 52.6578 101.494 52.7325 101.516 52.7999C101.538 52.8672 101.593 52.92 101.663 52.9401C102.015 53.0384 102.346 53.113 102.669 53.184C104.074 52.2226 105.671 51.5107 107.386 51.1247C112.269 50.0304 117.699 52.1844 120.294 56.2503Z" fill="#F5C371"/>
<path d="M107.647 29.8738C107.497 29.1328 107.184 28.4481 106.905 27.8655C106.751 27.5468 106.367 27.4103 106.046 27.5632C105.724 27.7162 105.588 28.0967 105.741 28.4154C105.989 28.9288 106.262 29.5279 106.384 30.1251C106.466 30.5366 106.514 31.1393 106.262 31.6765C105.946 32.352 105.164 32.8218 104.315 32.8454C103.52 32.8691 102.655 32.5177 101.951 31.884C101.687 31.6455 101.279 31.6655 101.04 31.9259C100.799 32.1881 100.82 32.5923 101.082 32.829C101.999 33.6557 103.145 34.1236 104.244 34.1236C104.279 34.1236 104.315 34.1236 104.35 34.1218C105.676 34.0854 106.914 33.317 107.432 32.2118C107.747 31.5417 107.82 30.7333 107.647 29.8738Z" fill="#231F20"/>
<path d="M86.2636 22.6634C84.3532 22.0188 82.1324 23.9907 82.4282 25.9408C82.5457 26.7092 82.9774 27.4885 83.5689 27.9984C84.682 28.9561 86.5189 28.3716 87.4356 27.4248C88.804 26.01 88.1281 23.2934 86.2636 22.6634Z" fill="#FFEAA3"/>
<path d="M99.2249 26.6839C98.5397 25.0962 96.8828 24.5499 95.3747 25.2783C94.5206 25.6916 93.705 26.4545 93.6058 27.4359C93.435 29.1329 94.7814 31.154 96.6899 30.5441C98.198 30.0597 99.9504 28.3627 99.2249 26.6839Z" fill="#FFEAA3"/>
<path d="M106.424 14.2677C106.141 14.0747 105.832 13.9181 105.513 13.8071C104.152 13.3337 102.667 13.605 101.731 14.7211C99.8919 16.9134 101.431 20.6133 104.525 19.9359C105.803 19.6555 107.335 18.8799 107.758 17.5507C108.175 16.2415 107.484 14.9942 106.424 14.2677Z" fill="#FFEAA3"/>
<path d="M127.548 24.508C127.297 23.7869 126.672 23.2371 125.959 22.9821C124.273 22.3776 122.563 23.4792 122.113 25.138C121.832 26.174 122.155 27.4195 123.189 27.9366C124.424 28.5538 125.884 27.8801 126.775 26.9734C127.442 26.2978 127.881 25.4621 127.548 24.508Z" fill="#FFEAA3"/>
<path d="M129.221 34.6373C126.843 34.5553 124.633 36.3197 124.824 38.7869C124.826 38.8106 124.831 38.8324 124.837 38.8561C124.837 39.1547 124.899 39.4606 125.05 39.7702C125.513 40.7243 126.455 41.469 127.434 41.8495C129.615 42.7017 132.054 41.895 132.42 39.4442C132.759 37.1664 131.85 34.7265 129.221 34.6373Z" fill="#FFEAA3"/>
<path d="M115.248 43.559C113.957 43.3969 112.704 44.5349 112.151 45.6001C111.607 46.6471 111.938 47.9289 112.842 48.6682C114.249 49.8207 116.404 49.1543 117.223 47.7705C118.296 46.3885 117.295 43.8139 115.248 43.559Z" fill="#FFEAA3"/>
<path d="M129.211 52.5505C128.226 50.9991 126.41 51.0064 125.021 52.0789C123.972 52.8891 123.29 54.313 123.797 55.604C124.273 56.8185 125.579 57.4758 126.843 57.5049C129.619 57.5686 130.5 54.5825 129.211 52.5505Z" fill="#FFEAA3"/>
<path d="M115.836 28.5281C113.542 28.6192 111.988 30.653 110.825 32.4228C110.526 32.8034 110.307 33.2368 110.261 33.7411C110.182 34.6005 110.645 35.3999 111.457 35.724C113.279 36.4523 115.531 34.3365 116.468 33.0073C117.275 31.862 118.278 28.4316 115.836 28.5281Z" fill="#FFEAA3"/>
<path d="M97.7006 13.5357C97.5022 12.8165 96.5874 12.649 96.0602 12.6144C88.0623 12.0845 80.8249 19.6027 77.4872 26.8131C76.9417 27.993 76.5523 29.1783 76.3337 30.34L76.3208 30.4056C76.1867 31.1084 76.0361 31.9059 75.981 32.6142C75.9589 32.8946 76.0177 33.1641 76.1463 33.3735C76.1977 33.4573 76.2602 33.5319 76.3318 33.592C76.4769 33.7158 76.6368 33.7777 76.8113 33.7777C76.859 33.7777 76.9068 33.7723 76.9564 33.7632C77.5791 33.6448 78.1779 32.7927 78.4075 32.3593C78.8631 31.4981 79.1864 30.564 79.4987 29.6627C79.6199 29.3131 79.7411 28.9635 79.8697 28.6175C81.2584 24.8812 83.38 21.835 86.1758 19.5644C88.7071 17.5087 91.8372 16.3306 94.8423 15.3638C94.9415 15.331 95.0848 15.2946 95.2538 15.2509C96.0069 15.0543 97.2671 14.7229 97.6289 14.1038C97.73 13.9253 97.7557 13.7342 97.7006 13.5357Z" fill="#FFF4D1"/>
<path d="M100.007 11.8004C99.686 11.6147 99.3058 11.6275 98.966 11.7549C98.7786 11.8259 98.6206 11.9206 98.5159 12.0991C98.1063 12.7946 99.1148 13.7414 99.811 13.5721C100.151 13.4902 100.428 13.228 100.511 12.8893C100.619 12.4523 100.386 12.0189 100.007 11.8004Z" fill="#FFF4D1"/>
<path d="M135.631 46.5343C135.651 46.2321 135.67 45.928 135.683 45.6257C135.521 45.7951 135.385 46.0045 135.291 46.2612C133.772 50.3471 131.436 54.1435 128.441 57.3318C127.152 58.7047 125.756 59.9574 124.297 61.1391C124.531 60.9497 123.603 58.7484 123.473 58.4352C123.085 57.5048 122.598 56.6144 122.025 55.7804C120.899 54.1435 119.441 52.7287 117.756 51.6617C114.231 49.4276 110.15 49.0307 106.213 50.3307C105.166 50.6767 104.215 51.141 103.348 51.8402C102.886 51.8912 102.429 51.9549 101.977 52.0314C101.843 52.228 101.7 52.4192 101.551 52.6049C101.507 52.6614 101.492 52.736 101.514 52.8034C101.536 52.8708 101.591 52.9236 101.661 52.9436C102.014 53.0419 102.345 53.1166 102.668 53.1876C104.073 52.2262 105.669 51.5143 107.385 51.1282C112.269 50.0303 117.697 52.1843 120.293 56.2502C122.427 59.5951 122.461 64.0397 120.627 67.4228C120.627 67.4228 120.627 67.4246 120.625 67.4246C120.557 67.5484 120.488 67.6704 120.416 67.7924C120.411 67.7997 120.407 67.8088 120.401 67.816C120.333 67.9289 120.264 68.0382 120.192 68.1474C120.181 68.1638 120.172 68.1802 120.161 68.1948C120.095 68.2949 120.025 68.3951 119.953 68.4934C119.937 68.5152 119.922 68.5389 119.905 68.5608C119.837 68.6554 119.766 68.7465 119.694 68.8375C119.674 68.863 119.656 68.8885 119.637 68.9122C119.545 69.0269 119.452 69.1398 119.354 69.249C120.793 68.9431 122.275 68.8849 123.75 69.056C130.354 63.9068 134.74 55.917 135.55 47.4648C135.58 47.1589 135.605 46.853 135.626 46.5471C135.631 46.5434 135.631 46.538 135.631 46.5343Z" fill="#EBCE72"/>
<path d="M38.2545 40.9171C38.1296 40.6986 37.8485 40.6222 37.6281 40.746L31.9392 43.947L35.8353 36.7784C35.9253 36.6109 35.9032 36.407 35.7765 36.2631C35.6516 36.1211 35.4495 36.0701 35.2695 36.1357C32.6868 37.0934 30.2033 38.3316 27.8906 39.8174C27.6776 39.9539 27.6169 40.2362 27.7547 40.4474C27.8925 40.6586 28.1772 40.7187 28.3903 40.5821C30.3007 39.3567 32.3286 38.3024 34.4319 37.4412L30.3723 44.9084C30.2749 45.0868 30.3099 45.3071 30.455 45.4492C30.5431 45.5347 30.6589 45.5784 30.7764 45.5784C30.8536 45.5784 30.9326 45.5584 31.0024 45.5183L38.08 41.5344C38.3022 41.4124 38.3794 41.1356 38.2545 40.9171Z" fill="#F7E9BC"/>
<path d="M43.4475 53.2294C43.3483 52.9982 43.0782 52.8907 42.845 52.9891C41.6491 53.4934 40.4111 53.914 39.1509 54.2454C40.2623 52.5466 41.177 50.7258 41.8787 48.823C41.9375 48.6628 41.9008 48.4825 41.7851 48.3569C41.6675 48.2313 41.4893 48.1821 41.324 48.2276C39.1913 48.8212 37.1524 49.7025 35.2622 50.8478C35.0454 50.9789 34.9775 51.2593 35.1097 51.4741C35.242 51.689 35.5249 51.7564 35.7416 51.6253C37.2938 50.6839 38.9526 49.9283 40.6829 49.3711C39.9114 51.2538 38.9213 53.0419 37.731 54.6988C37.6208 54.8518 37.6171 55.0575 37.7218 55.2141C37.8082 55.3434 37.9533 55.418 38.1057 55.418C38.1388 55.418 38.1719 55.4144 38.2031 55.4071C39.9133 55.0375 41.5959 54.504 43.2068 53.8248C43.4383 53.7283 43.5467 53.4606 43.4475 53.2294Z" fill="#F7E9BC"/>
<path d="M33.3389 30.2743C33.225 30.0503 32.9476 29.9593 32.7217 30.0721L23.3461 34.7626C25.104 31.1228 27.222 27.6468 29.6559 24.4149C29.7734 24.2583 29.7771 24.0434 29.6651 23.8832C29.553 23.7229 29.3491 23.6501 29.1599 23.7047C26.0004 24.6133 23.0393 26.0317 20.3593 27.9236C20.1535 28.0692 20.104 28.3533 20.2509 28.559C20.3979 28.763 20.6844 28.8121 20.892 28.6665C23.1091 27.1006 25.5265 25.8679 28.0927 24.9939C25.7084 28.3114 23.6455 31.8638 21.9519 35.571C21.8711 35.7476 21.9115 35.9534 22.0529 36.0881C22.1411 36.1719 22.255 36.2156 22.3707 36.2156C22.4405 36.2156 22.5121 36.1992 22.5783 36.1664L33.1368 30.8842C33.3609 30.7732 33.4528 30.4982 33.3389 30.2743Z" fill="#F7E9BC"/>
<path d="M48.6201 40.2454C47.8211 40.2454 47.8192 41.4762 48.6201 41.4762C49.4192 41.4762 49.421 40.2454 48.6201 40.2454Z" fill="#ADB9D1"/>
<path d="M51.3758 24.8867C50.8467 24.8867 50.8467 25.7006 51.3758 25.7006C51.9048 25.7006 51.9048 24.8867 51.3758 24.8867Z" fill="#ADB9D1"/>
<path d="M70.1101 12.0063C68.8151 12.0063 68.8133 14.002 70.1101 14.002C71.4052 14.002 71.4088 12.0063 70.1101 12.0063Z" fill="#ADB9D1"/>
<path d="M51.1006 13.4065C50.9128 13.4065 50.9128 13.6942 51.1006 13.6942C51.2884 13.6942 51.2884 13.4065 51.1006 13.4065Z" fill="#ADB9D1"/>
<path d="M7.01645 31.1228C6.7826 31.1228 6.7826 31.4815 7.01645 31.4815C7.2503 31.4815 7.2503 31.1228 7.01645 31.1228Z" fill="#ADB9D1"/>
<path d="M19.4155 37.8381H19.1399C18.8405 37.8381 18.5558 38.0985 18.5687 38.4044C18.5834 38.7103 18.8203 38.9707 19.1399 38.9707H19.4155C19.7149 38.9707 19.9996 38.7103 19.9868 38.4044C19.9721 38.0967 19.7351 37.8381 19.4155 37.8381Z" fill="#ADB9D1"/>
<path d="M6.4652 62.9146C5.31346 62.9146 5.31162 64.6898 6.4652 64.6898C7.61694 64.6898 7.61878 62.9146 6.4652 62.9146Z" fill="#ADB9D1"/>
<path d="M19.6908 70.6565C18.6603 70.6565 18.6585 72.2443 19.6908 72.2443C20.7213 72.2424 20.7231 70.6565 19.6908 70.6565Z" fill="#ADB9D1"/>
<path d="M20.7932 77.8379C20.5778 77.8379 20.576 78.1693 20.7932 78.1693C21.0087 78.1693 21.0087 77.8379 20.7932 77.8379Z" fill="#ADB9D1"/>
<path d="M5.89367 99.6367C5.51526 99.6367 5.51526 100.219 5.89367 100.219C6.27207 100.219 6.27207 99.6367 5.89367 99.6367Z" fill="#ADB9D1"/>
<path d="M20.773 104.134C19.6158 104.134 19.614 105.917 20.773 105.917C21.9303 105.918 21.9321 104.134 20.773 104.134Z" fill="#ADB9D1"/>
<path d="M39.6929 106.008C39.0757 106.008 39.0757 106.958 39.6929 106.958C40.3101 106.958 40.3101 106.008 39.6929 106.008Z" fill="#ADB9D1"/>
<path d="M56.7634 110.673C56.7542 110.487 56.6936 110.296 56.5521 110.167C56.5025 110.13 56.4548 110.092 56.4052 110.055C56.2931 109.99 56.1719 109.959 56.0415 109.957C55.8394 109.932 55.6135 110.048 55.4757 110.188C55.3306 110.336 55.2498 110.538 55.2498 110.746C55.2479 111.161 55.5951 111.563 56.036 111.538C56.227 111.527 56.407 111.465 56.5466 111.328C56.6715 111.204 56.7652 111 56.7579 110.822C56.7579 110.809 56.7542 110.797 56.7542 110.786C56.7597 110.746 56.7652 110.709 56.7634 110.673Z" fill="#ADB9D1"/>
<path d="M7.73089 112.326C6.80693 112.326 6.80509 113.75 7.73089 113.75C8.65486 113.75 8.6567 112.326 7.73089 112.326Z" fill="#ADB9D1"/>
<path d="M113.904 113.781C113.513 113.799 113.184 114.094 113.184 114.494V114.677C113.184 115.05 113.514 115.408 113.904 115.39C114.295 115.372 114.624 115.077 114.624 114.677V114.494C114.624 114.121 114.293 113.762 113.904 113.781Z" fill="#ADB9D1"/>
<path d="M124.926 115.691H124.742C124.641 115.691 124.641 115.847 124.742 115.847H124.926C125.027 115.847 125.027 115.691 124.926 115.691Z" fill="#ADB9D1"/>
<path d="M170.297 121.324C168.998 121.324 168.996 123.324 170.297 123.324C171.596 123.324 171.597 121.324 170.297 121.324Z" fill="#ADB9D1"/>
<path d="M169.746 107.215C168.805 107.215 168.804 108.664 169.746 108.664C170.686 108.664 170.688 107.215 169.746 107.215Z" fill="#ADB9D1"/>
<path d="M132.824 110.969C132.266 110.969 132.264 111.831 132.824 111.831C133.382 111.829 133.384 110.969 132.824 110.969Z" fill="#ADB9D1"/>
<path d="M129.229 102.945C129.169 102.885 129.106 102.823 129.045 102.763C128.884 102.603 128.643 102.505 128.415 102.505C128.197 102.505 127.936 102.601 127.785 102.763C127.629 102.931 127.514 103.153 127.525 103.388C127.536 103.623 127.615 103.843 127.785 104.012L127.969 104.194C128.131 104.355 128.371 104.453 128.599 104.453C128.818 104.453 129.079 104.356 129.229 104.194C129.385 104.027 129.501 103.805 129.49 103.57C129.479 103.335 129.4 103.115 129.229 102.945Z" fill="#ADB9D1"/>
<path d="M161.48 101.172C160.967 101.172 160.967 101.96 161.48 101.96C161.992 101.962 161.992 101.172 161.48 101.172Z" fill="#ADB9D1"/>
<path d="M149.173 89.5947C148.759 89.5947 148.759 90.232 149.173 90.232C149.586 90.232 149.586 89.5947 149.173 89.5947Z" fill="#ADB9D1"/>
<path d="M139.437 78.9395H139.253C139.191 78.9395 139.191 79.0359 139.253 79.0359H139.437C139.5 79.0378 139.5 78.9395 139.437 78.9395Z" fill="#ADB9D1"/>
<path d="M142.053 67.4737C141.887 67.3244 141.685 67.2297 141.457 67.2297H141.274C141.059 67.2297 140.831 67.3226 140.679 67.4737C140.533 67.6176 140.423 67.8561 140.432 68.0637C140.442 68.2785 140.513 68.5025 140.679 68.6536C140.844 68.8029 141.046 68.8976 141.274 68.8976H141.457C141.672 68.8976 141.9 68.8047 142.053 68.6536C142.198 68.5098 142.308 68.2712 142.299 68.0637C142.288 67.8488 142.216 67.6249 142.053 67.4737Z" fill="#ADB9D1"/>
<path d="M144.505 54.0433V54.2254C144.505 54.3219 144.657 54.3219 144.657 54.2254V54.0433C144.655 53.9468 144.505 53.9468 144.505 54.0433Z" fill="#ADB9D1"/>
<path d="M158.174 80.551H158.06C157.252 80.551 157.25 81.7965 158.06 81.7965H158.174C158.982 81.7965 158.984 80.551 158.174 80.551Z" fill="#ADB9D1"/>
<path d="M151.377 63.0728C150.098 63.0728 150.095 65.0429 151.377 65.0429C152.655 65.0429 152.659 63.0728 151.377 63.0728Z" fill="#ADB9D1"/>
<path d="M167.174 54.7209C166.634 54.7209 166.634 55.5531 167.174 55.5531C167.714 55.5512 167.714 54.7209 167.174 54.7209Z" fill="#ADB9D1"/>
<path d="M140.539 42.405H140.355C140.124 42.405 139.881 42.5052 139.716 42.6672C139.56 42.822 139.442 43.0769 139.451 43.3009C139.473 43.7852 139.848 44.1967 140.355 44.1967H140.539C140.77 44.1967 141.013 44.0966 141.178 43.9345C141.334 43.7797 141.452 43.5248 141.442 43.3009C141.42 42.8165 141.046 42.405 140.539 42.405Z" fill="#ADB9D1"/>
<path d="M160.745 31.2852H160.378C159.995 31.2852 159.628 31.6184 159.645 32.0117C159.663 32.405 159.966 32.7382 160.378 32.7382H160.745C161.127 32.7382 161.494 32.405 161.478 32.0117C161.459 31.6184 161.155 31.2852 160.745 31.2852Z" fill="#ADB9D1"/>
<path d="M171.767 34.5645C170.591 34.5645 170.589 36.3762 171.767 36.3762C172.942 36.378 172.944 34.5645 171.767 34.5645Z" fill="#ADB9D1"/>
<path d="M172.134 25.9465C171.824 25.9465 171.824 26.4236 172.134 26.4236C172.444 26.4236 172.444 25.9465 172.134 25.9465Z" fill="#ADB9D1"/>
<path d="M165.842 3.10605C165.673 2.93853 165.396 2.81289 165.154 2.822C164.902 2.83292 164.639 2.91486 164.465 3.10605C164.29 3.29541 164.178 3.52848 164.178 3.78885V3.97094C164.178 4.21857 164.287 4.47894 164.465 4.65374C164.634 4.82126 164.911 4.94689 165.154 4.93779C165.405 4.92687 165.668 4.84493 165.842 4.65374C166.017 4.46438 166.129 4.23131 166.129 3.97094V3.78885C166.129 3.54122 166.021 3.28084 165.842 3.10605Z" fill="#ADB9D1"/>
<path d="M153.695 0.358398H153.581C152.202 0.358398 152.198 2.48511 153.581 2.48511H153.695C155.075 2.48511 155.078 0.358398 153.695 0.358398Z" fill="#ADB9D1"/>
<path d="M127.13 8.77051C125.798 8.77051 125.795 10.8226 127.13 10.8226C128.462 10.8244 128.466 8.77051 127.13 8.77051Z" fill="#ADB9D1"/>
<path d="M105.271 1.7605C104.528 1.7605 104.527 2.90397 105.271 2.90397C106.013 2.90397 106.014 1.7605 105.271 1.7605Z" fill="#ADB9D1"/>
<path d="M75.1454 0.766357C74.0579 0.766357 74.0561 2.44151 75.1454 2.44151C76.2328 2.44151 76.2347 0.766357 75.1454 0.766357Z" fill="#ADB9D1"/>
<path d="M64.4911 39.6973C64.0668 39.6973 64.0668 40.3491 64.4911 40.3491C64.9154 40.3491 64.9154 39.6973 64.4911 39.6973Z" fill="#ADB9D1"/>
<path d="M36.4968 22.8328C36.4913 22.8328 36.4913 22.84 36.4968 22.84C36.5022 22.84 36.5022 22.8328 36.4968 22.8328Z" fill="#515763"/>
<path d="M57.7166 2.34842L57.4411 2.0753C57.2941 1.92963 57.0259 1.91871 56.8808 2.0753C56.7357 2.23189 56.7247 2.47588 56.8808 2.63065C56.9727 2.72169 57.0645 2.81273 57.1564 2.90377C57.3033 3.04943 57.5715 3.06036 57.7166 2.90377C57.8617 2.74718 57.8746 2.50319 57.7166 2.34842Z" fill="#515763"/>
<path d="M2.05672 21.2229H1.78118C1.50564 21.2229 1.24297 21.4632 1.25582 21.7437C1.26868 22.0259 1.48727 22.2644 1.78118 22.2644H2.05672C2.33225 22.2644 2.59493 22.0241 2.58207 21.7437C2.56921 21.4614 2.35246 21.2229 2.05672 21.2229Z" fill="#515763"/>
<path d="M13.629 52.6902C12.6775 52.6902 12.6756 54.1578 13.629 54.1578C14.5805 54.1578 14.5824 52.6902 13.629 52.6902Z" fill="#515763"/>
<path d="M-0.0926315 89.5164H-0.167945C-1.15436 89.5164 -1.1562 91.0367 -0.167945 91.0367H-0.0926315C0.895624 91.0386 0.897461 89.5164 -0.0926315 89.5164Z" fill="#515763"/>
<path d="M45.9382 121.235H45.7545C45.5635 121.235 45.3817 121.401 45.3908 121.596C45.4 121.792 45.5506 121.956 45.7545 121.956H45.9382C46.1293 121.956 46.3111 121.79 46.3019 121.596C46.2946 121.399 46.1421 121.235 45.9382 121.235Z" fill="#515763"/>
<path d="M144.58 118.657C144.547 118.657 144.547 118.705 144.58 118.705C144.614 118.707 144.614 118.657 144.58 118.657Z" fill="#515763"/>
<path d="M157.806 110.399C156.981 110.399 156.979 111.669 157.806 111.669C158.631 111.67 158.632 110.399 157.806 110.399Z" fill="#515763"/>
<path d="M173.052 78.7554C172.275 78.7554 172.275 79.9517 173.052 79.9517C173.829 79.9498 173.829 78.7554 173.052 78.7554Z" fill="#515763"/>
<path d="M157.622 53.7756C157.277 53.7902 156.985 54.0524 156.985 54.4075V54.5895C156.985 54.9191 157.277 55.2359 157.622 55.2214C157.967 55.2068 158.26 54.9446 158.26 54.5895V54.4075C158.26 54.0779 157.966 53.7611 157.622 53.7756Z" fill="#515763"/>
<path d="M139.988 24.5278C139.729 24.5278 139.729 24.9266 139.988 24.9266C140.248 24.9284 140.248 24.5278 139.988 24.5278Z" fill="#515763"/>
<path d="M173.788 7.39575C173.743 7.39575 173.743 7.46277 173.788 7.46277C173.833 7.46458 173.833 7.39575 173.788 7.39575Z" fill="#515763"/>
<path d="M111.332 7.23926C111.32 7.23926 111.32 7.2584 111.332 7.2584C111.344 7.25666 111.344 7.23926 111.332 7.23926Z" fill="#515763"/>
<path d="M98.1068 6.05736C97.7541 6.07375 97.4565 6.33959 97.4565 6.70193V6.88401C97.4565 7.22086 97.756 7.54315 98.1068 7.52858C98.4595 7.51219 98.757 7.24635 98.757 6.88401V6.70193C98.757 6.36508 98.4576 6.04279 98.1068 6.05736Z" fill="#515763"/>
<path d="M65.979 25.158C64.7372 25.158 64.7354 27.0698 65.979 27.0698C67.2189 27.0698 67.2226 25.158 65.979 25.158Z" fill="#F2E3B5"/>
<path d="M38.6126 22.1044C38.4308 21.9241 38.135 21.7894 37.8742 21.8021C37.6041 21.8148 37.3249 21.9022 37.1357 22.1044C36.9484 22.3065 36.8308 22.5559 36.8308 22.8363V23.1095C36.8308 23.3753 36.9465 23.6539 37.1357 23.8414C37.3176 24.0217 37.6133 24.1564 37.8742 24.1437C38.1442 24.1309 38.4234 24.0435 38.6126 23.8414C38.8 23.6393 38.9175 23.3899 38.9175 23.1095V22.8363C38.9175 22.5705 38.8018 22.2919 38.6126 22.1044Z" fill="#F2E3B5"/>
<path d="M38.4258 7.91846C38.2067 7.91846 38.2048 8.25713 38.4258 8.25713C38.6467 8.25713 38.6467 7.91846 38.4258 7.91846Z" fill="#F2E3B5"/>
<path d="M18.5885 19.6626H18.313C18.0797 19.6626 17.8574 19.8665 17.8684 20.1032C17.8795 20.3418 18.065 20.5457 18.313 20.5457H18.5885C18.8218 20.5457 19.0441 20.3418 19.033 20.1032C19.022 19.8665 18.8383 19.6626 18.5885 19.6626Z" fill="#F2E3B5"/>
<path d="M0.127916 53.927C-0.638074 53.927 -0.639911 55.1069 0.127916 55.1069C0.893905 55.1069 0.895742 53.927 0.127916 53.927Z" fill="#F2E3B5"/>
<path d="M26.3037 55.2122H26.0282C25.8188 55.2122 25.6167 55.3942 25.6278 55.6091C25.6369 55.8239 25.8041 56.006 26.0282 56.006H26.3037C26.5131 56.006 26.7152 55.8239 26.7042 55.6091C26.695 55.3942 26.5278 55.2122 26.3037 55.2122Z" fill="#F2E3B5"/>
<path d="M23.548 86.98C22.7912 86.98 22.7894 88.1453 23.548 88.1453C24.3048 88.1453 24.3067 86.98 23.548 86.98Z" fill="#F2E3B5"/>
<path d="M13.3533 91.9255C12.6351 91.9255 12.6333 93.0326 13.3533 93.0326C14.0716 93.0326 14.0734 91.9255 13.3533 91.9255Z" fill="#F2E3B5"/>
<path d="M1.06272 107.18C0.991079 106.963 0.855147 106.747 0.643903 106.639C0.489603 106.561 0.327956 106.499 0.151613 106.506C-0.0890214 106.517 -0.340678 106.601 -0.509673 106.78C-0.698874 106.98 -0.788883 107.217 -0.798067 107.486C-0.807252 107.736 -0.693363 108.023 -0.507836 108.193C-0.180867 108.489 0.256317 108.54 0.64574 108.333C0.844126 108.227 1.00577 108.003 1.06455 107.792C1.08843 107.706 1.09394 107.61 1.09027 107.513C1.10313 107.4 1.09762 107.288 1.06272 107.18Z" fill="#F2E3B5"/>
<path d="M35.2843 93.8301C34.6946 93.8301 34.6946 94.7368 35.2843 94.7368C35.8739 94.7368 35.8739 93.8301 35.2843 93.8301Z" fill="#F2E3B5"/>
<path d="M130.987 120.084C129.971 120.084 129.969 121.649 130.987 121.649C132.003 121.65 132.005 120.084 130.987 120.084Z" fill="#F2E3B5"/>
<path d="M144.659 120.243C144.599 120.183 144.536 120.121 144.476 120.061C144.314 119.901 144.075 119.802 143.846 119.802C143.627 119.802 143.366 119.899 143.216 120.061C143.059 120.228 142.944 120.45 142.955 120.685C142.966 120.918 143.045 121.141 143.216 121.31C143.276 121.37 143.339 121.432 143.399 121.492C143.561 121.652 143.8 121.751 144.029 121.751C144.248 121.751 144.509 121.654 144.659 121.492C144.815 121.324 144.931 121.102 144.92 120.867C144.909 120.634 144.828 120.412 144.659 120.243Z" fill="#F2E3B5"/>
<path d="M156.704 119.185C156.173 119.185 156.173 120.003 156.704 120.003C157.235 120.001 157.235 119.185 156.704 119.185Z" fill="#F2E3B5"/>
<path d="M147.703 101.776C147.519 101.783 147.363 101.924 147.363 102.113V102.295C147.363 102.472 147.519 102.639 147.703 102.632C147.887 102.625 148.043 102.484 148.043 102.295V102.113C148.043 101.936 147.887 101.769 147.703 101.776Z" fill="#F2E3B5"/>
<path d="M137.232 93.5405C136.505 93.5405 136.503 94.6603 137.232 94.6603C137.96 94.6622 137.962 93.5405 137.232 93.5405Z" fill="#F2E3B5"/>
<path d="M175.256 96.1133C174.558 96.1133 174.558 97.1876 175.256 97.1876C175.954 97.1876 175.954 96.1133 175.256 96.1133Z" fill="#F2E3B5"/>
<path d="M147.596 78.3659C147.535 78.3058 147.473 78.2439 147.412 78.1838C147.276 78.0491 147.027 78.0381 146.892 78.1838C146.758 78.3295 146.747 78.5553 146.892 78.6991L147.076 78.8812C147.212 79.0159 147.462 79.0269 147.596 78.8812C147.73 78.7373 147.741 78.5116 147.596 78.3659Z" fill="#F2E3B5"/>
<path d="M162.214 69.7988C161.867 69.7988 161.865 70.3341 162.214 70.3341C162.561 70.3341 162.563 69.7988 162.214 69.7988Z" fill="#F2E3B5"/>
<path d="M169.746 64.9809C169.454 64.9937 169.208 65.2158 169.208 65.5144V65.6965C169.208 65.9751 169.456 66.2427 169.746 66.23C170.038 66.2172 170.284 65.9951 170.284 65.6965V65.5144C170.284 65.2358 170.036 64.9682 169.746 64.9809Z" fill="#F2E3B5"/>
<path d="M147.519 35.8899C147.326 35.899 147.161 36.0446 147.161 36.2449V36.336C147.161 36.5217 147.324 36.6983 147.519 36.691C147.712 36.6819 147.877 36.5363 147.877 36.336V36.2449C147.877 36.0592 147.712 35.8826 147.519 35.8899Z" fill="#F2E3B5"/>
<path d="M137.05 32.0098C136.808 32.0098 136.808 32.3794 137.05 32.3794C137.291 32.3776 137.291 32.0098 137.05 32.0098Z" fill="#F2E3B5"/>
<path d="M171.583 15.8989H171.399C171.16 15.8989 170.929 16.1083 170.941 16.3523C170.952 16.5981 171.143 16.8057 171.399 16.8057H171.583C171.821 16.8057 172.053 16.5963 172.04 16.3523C172.029 16.1065 171.84 15.8989 171.583 15.8989Z" fill="#F2E3B5"/>
<path d="M174.522 9.47339C173.392 9.47339 173.39 11.2141 174.522 11.2141C175.651 11.2141 175.653 9.47339 174.522 9.47339Z" fill="#F2E3B5"/>
<path d="M134.949 0.886442C134.901 0.842742 134.843 0.81543 134.776 0.81543H134.731C134.668 0.81543 134.602 0.842742 134.558 0.886442C134.516 0.92832 134.483 0.997512 134.486 1.0576C134.49 1.12133 134.51 1.18506 134.558 1.22876C134.606 1.27246 134.664 1.29977 134.731 1.29977H134.776C134.839 1.29977 134.905 1.27246 134.949 1.22876C134.991 1.18688 135.024 1.11769 135.021 1.0576C135.017 0.99387 134.997 0.930141 134.949 0.886442Z" fill="#F2E3B5"/>
<path d="M120.517 -1.02197C119.473 -1.02197 119.471 0.585809 120.517 0.585809C121.56 0.58763 121.562 -1.02197 120.517 -1.02197Z" fill="#F2E3B5"/>
<path d="M110.414 7.55591C109.394 7.55591 109.392 9.12545 110.414 9.12545C111.433 9.12545 111.435 7.55591 110.414 7.55591Z" fill="#F2E3B5"/>
<path d="M87.4527 7.77441C87.1894 7.77441 87.1875 8.18046 87.4527 8.18046C87.716 8.17863 87.7179 7.77441 87.4527 7.77441Z" fill="#F2E3B5"/>
<path d="M66.1442 42.3245C66.0597 42.3245 66.0597 42.4531 66.1442 42.4531C66.2286 42.4549 66.2286 42.3245 66.1442 42.3245Z" fill="#F2E3B5"/>
</svg>
