<svg width="165" height="166" viewBox="0 0 165 166" fill="none" xmlns="http://www.w3.org/2000/svg">
<path d="M143.433 -6.61626C143.433 -6.61626 125.057 -16.0112 104.905 -7.68736C84.7502 0.634916 72.6397 20.9078 62.3926 37.0699C52.1439 53.2348 54.7232 71.4214 68.1429 81.3576C81.5626 91.2938 92.7675 80.8071 113.017 82.9412C133.266 85.0753 138.344 88.6863 156.465 79.5485C174.586 70.4107 180.858 43.9263 170.051 22.2587C159.241 0.589464 143.433 -6.61626 143.433 -6.61626Z" fill="#F1B869"/>
<path d="M94.4087 64.5631C93.5781 64.8376 92.6791 64.384 92.405 63.5545L86.8592 46.7747C86.6212 46.0547 85.8446 45.6628 85.1262 45.9003C84.4078 46.1377 84.0176 46.9152 84.2556 47.6352L88.3954 60.161C88.6391 60.8983 88.2393 61.695 87.5037 61.9381C86.768 62.1812 85.9723 61.7797 85.7286 61.0424L83.4431 54.1272C83.267 53.5943 82.6931 53.3048 82.1615 53.4805C81.6298 53.6562 81.3416 54.2307 81.5177 54.7635L82.3677 57.3355L80.2469 58.0364L80.1517 57.7484L81.9851 57.1425L81.2303 54.8585C81.0018 54.1673 81.3766 53.4204 82.0663 53.1925C82.756 52.9645 83.502 53.341 83.7304 54.0322L86.0159 60.9474C86.2073 61.5263 86.8309 61.841 87.4085 61.6501C87.9861 61.4592 88.2994 60.8349 88.108 60.256L83.9682 47.7302C83.6779 46.8518 84.1545 45.902 85.031 45.6123C85.9075 45.3226 86.8562 45.8013 87.1466 46.6798L92.6923 63.4595C92.9141 64.1306 93.641 64.4974 94.3135 64.2751C94.983 64.0538 95.3482 63.3261 95.1264 62.6551L88.3603 42.183C88.0081 41.1173 88.5866 39.9645 89.6499 39.6131C90.7131 39.2616 91.8647 39.8427 92.2169 40.9083L98.9516 61.2854C99.1895 62.0054 99.9661 62.3973 100.685 62.1599C101.403 61.9224 101.793 61.1449 101.555 60.4249L96.1884 44.1866C95.8514 43.167 96.4049 42.064 97.4222 41.7278C98.4395 41.3916 99.5413 41.9475 99.8782 42.9671L103.837 54.9456C104.044 55.5706 104.721 55.9123 105.344 55.7062C105.968 55.5001 106.308 54.8222 106.102 54.1972L103.949 47.6852C103.701 46.9335 104.108 46.1215 104.858 45.8736C105.609 45.6257 106.422 46.034 106.671 46.7857L107.325 48.7644L109.446 48.0635L109.541 48.3515L107.133 49.1474L106.384 46.8807C106.187 46.2874 105.546 45.966 104.954 46.1616C104.362 46.3573 104.042 46.9998 104.237 47.5902L106.389 54.1022C106.648 54.8856 106.221 55.7359 105.44 55.9942C104.658 56.2526 103.809 55.824 103.55 55.0406L99.5909 43.0621C99.3062 42.2009 98.3766 41.7318 97.5174 42.0158C96.6581 42.2998 96.1911 43.2305 96.4757 44.0916L101.843 60.3299C102.133 61.2084 101.656 62.1582 100.78 62.4479C99.9033 62.7376 98.9545 62.2588 98.6642 61.3804L91.9295 41.0033C91.6296 40.0961 90.6503 39.6019 89.745 39.9011C88.8398 40.2003 88.3478 41.1807 88.6477 42.088L95.4138 62.5601C95.6908 63.3886 95.2392 64.2886 94.4087 64.5631Z" fill="#FEDEA5"/>
<path d="M122.14 55.3968C121.309 55.6713 120.41 55.2176 120.136 54.3882L114.59 37.6084C114.352 36.8884 113.576 36.4965 112.857 36.7339C112.139 36.9714 111.749 37.7489 111.987 38.4689L116.127 50.9947C116.37 51.732 115.971 52.5286 115.235 52.7718C114.499 53.0149 113.704 52.6134 113.46 51.8761L111.174 44.9608C110.998 44.428 110.424 44.1385 109.893 44.3142C109.361 44.4899 109.073 45.0644 109.249 45.5972L110.099 48.1692L107.978 48.8701L107.883 48.5821L109.716 47.9761L108.962 45.6922C108.733 45.0009 109.108 44.2541 109.798 44.0261C110.487 43.7982 111.233 44.1746 111.462 44.8659L113.747 51.7811C113.939 52.36 114.562 52.6747 115.14 52.4837C115.717 52.2928 116.031 51.6686 115.839 51.0897L111.699 38.5639C111.409 37.6854 111.886 36.7356 112.762 36.4459C113.639 36.1563 114.588 36.635 114.878 37.5134L120.424 54.2932C120.645 54.9643 121.372 55.331 122.045 55.1088C122.714 54.8875 123.079 54.1598 122.858 53.4887L116.092 33.0166C115.739 31.951 116.318 30.7981 117.381 30.4467C118.444 30.0953 119.596 30.6764 119.948 31.742L126.683 52.1191C126.921 52.8391 127.697 53.231 128.416 52.9935C129.134 52.7561 129.524 51.9786 129.286 51.2586L123.92 35.0203C123.583 34.0007 124.136 32.8977 125.153 32.5615C126.171 32.2252 127.273 32.7812 127.609 33.8008L131.568 45.7793C131.775 46.4043 132.452 46.746 133.076 46.5399C133.699 46.3338 134.04 45.6559 133.833 45.0309L131.681 38.5188C131.432 37.7671 131.84 36.9552 132.593 36.7063C133.343 36.4584 134.154 36.8677 134.402 37.6194L135.056 39.5981L137.177 38.8971L137.272 39.1851L134.864 39.9811L134.115 37.7144C133.919 37.1211 133.28 36.7987 132.688 36.9944C132.096 37.19 131.773 37.8334 131.968 38.4239L134.12 44.9359C134.379 45.7193 133.953 46.5695 133.171 46.8279C132.389 47.0862 131.54 46.6577 131.281 45.8743L127.322 33.8957C127.037 33.0346 126.108 32.5655 125.249 32.8495C124.389 33.1335 123.922 34.0641 124.207 34.9253L129.574 51.1636C129.864 52.042 129.388 52.9918 128.511 53.2815C127.635 53.5712 126.686 53.0925 126.395 52.214L119.661 31.837C119.361 30.9297 118.382 30.4356 117.476 30.7347C116.571 31.0339 116.079 32.0144 116.379 32.9216L123.145 53.3937C123.422 54.2223 122.97 55.1223 122.14 55.3968Z" fill="#FEDEA5"/>
<path d="M149.871 46.2317C149.041 46.5062 148.142 46.0525 147.868 45.2231L142.322 28.4433C142.084 27.7233 141.307 27.3314 140.589 27.5689C139.871 27.8063 139.48 28.5838 139.718 29.3038L143.858 41.8296C144.102 42.5669 143.702 43.3635 142.967 43.6067C142.231 43.8498 141.435 43.4483 141.191 42.711L138.906 35.7957C138.73 35.2629 138.156 34.9734 137.624 35.1491C137.093 35.3248 136.804 35.8993 136.98 36.4321L137.831 39.0041L135.71 39.705L135.615 39.417L137.448 38.811L136.693 36.5271C136.465 35.8358 136.839 35.089 137.529 34.8611C138.219 34.6331 138.965 35.0095 139.193 35.7008L141.479 42.616C141.67 43.1949 142.294 43.5096 142.871 43.3187C143.449 43.1278 143.762 42.5035 143.571 41.9246L139.431 29.3988C139.141 28.5204 139.617 27.5705 140.494 27.2808C141.37 26.9912 142.319 27.4699 142.609 28.3483L148.155 45.1281C148.377 45.7992 149.104 46.1659 149.776 45.9437C150.449 45.7214 150.811 44.9947 150.589 44.3236L143.823 23.8515C143.471 22.7859 144.049 21.6331 145.113 21.2816C146.176 20.9302 147.327 21.5113 147.68 22.5769L154.414 42.954C154.652 43.674 155.429 44.0659 156.147 43.8284C156.866 43.591 157.256 42.8135 157.018 42.0935L151.651 25.8552C151.314 24.8356 151.868 23.7326 152.885 23.3964C153.902 23.0601 155.004 23.6161 155.341 24.6357L159.3 36.6142C159.507 37.2392 160.184 37.5809 160.807 37.3748C161.431 37.1687 161.771 36.4908 161.565 35.8658L159.412 29.3538C159.164 28.602 159.571 27.7901 160.324 27.5413C161.074 27.2934 161.885 27.7026 162.134 28.4543L162.788 30.433L164.908 29.732L165.004 30.0201L162.595 30.816L161.846 28.5493C161.65 27.956 161.011 27.6336 160.419 27.8293C159.827 28.0249 159.505 28.6683 159.7 29.2588L161.852 35.7708C162.111 36.5542 161.684 37.4044 160.903 37.6628C160.121 37.9211 159.272 37.4926 159.013 36.7092L155.054 24.7306C154.769 23.8695 153.839 23.4004 152.98 23.6844C152.121 23.9684 151.654 24.899 151.939 25.7602L157.305 41.9985C157.596 42.8769 157.119 43.8268 156.243 44.1164C155.366 44.4061 154.417 43.9274 154.127 43.0489L147.392 22.6719C147.092 21.7646 146.113 21.2705 145.208 21.5697C144.303 21.8688 143.811 22.8493 144.111 23.7565L150.877 44.2286C151.154 45.0572 150.702 45.9572 149.871 46.2317Z" fill="#FEDEA5"/>
<path d="M107.05 -0.222717L106.168 -2.89262L104.304 -0.79738L107.05 -0.222717Z" fill="#263238"/>
<path d="M103.494 -2.07965L103.075 -1.94098L103.976 0.786522L104.396 0.647854L103.494 -2.07965Z" fill="#263238"/>
<path d="M111.563 -7.49695C109.603 -6.8492 108.544 -4.7322 109.192 -2.77082C109.841 -0.806555 111.956 0.258058 113.913 -0.388744C115.873 -1.0365 116.932 -3.1535 116.284 -5.11488C115.635 -7.07914 113.523 -8.1447 111.563 -7.49695ZM112.854 -1.90454L111.799 -1.55597L110.561 -5.30304L111.615 -5.65161L112.854 -1.90454ZM114.914 -2.58553L113.86 -2.23696L112.621 -5.98404L113.676 -6.33261L114.914 -2.58553Z" fill="#263238"/>
<path d="M151.368 12.7161C151.13 12.7949 150.873 12.6656 150.794 12.4265L149.504 8.5239C149.425 8.28484 149.554 8.02824 149.793 7.94941C150.031 7.87057 150.288 7.99991 150.367 8.23896L151.656 12.1416C151.734 12.3777 151.607 12.6372 151.368 12.7161Z" fill="#FFDB9D"/>
<path d="M149.786 12.6667C149.548 12.7455 149.291 12.6162 149.212 12.3772L148.263 9.50565C148.184 9.26659 148.313 9.00999 148.552 8.93116C148.79 8.85232 149.046 8.98166 149.125 9.22071L150.074 12.0922C150.154 12.3313 150.025 12.5879 149.786 12.6667Z" fill="#FFDB9D"/>
<path d="M148.376 13.1328C148.137 13.2117 147.881 13.0823 147.802 12.8433L146.853 9.97177C146.774 9.73272 146.902 9.47611 147.141 9.39728C147.379 9.31845 147.636 9.44778 147.715 9.68684L148.664 12.5584C148.743 12.7974 148.614 13.054 148.376 13.1328Z" fill="#FFDB9D"/>
<path d="M165.302 7.53894C165.063 7.61777 164.807 7.48844 164.728 7.24938L163.779 4.37787C163.7 4.13882 163.829 3.88221 164.067 3.80338C164.306 3.72455 164.562 3.85388 164.641 4.09293L165.59 6.96445C165.669 7.2035 165.54 7.46011 165.302 7.53894Z" fill="#FFDB9D"/>
<path d="M163.891 8.00505C163.652 8.08388 163.396 7.95455 163.317 7.71549L162.368 4.84398C162.289 4.60493 162.418 4.34832 162.656 4.26949C162.895 4.19066 163.151 4.31999 163.23 4.55905L164.179 7.43056C164.258 7.66961 164.129 7.92622 163.891 8.00505Z" fill="#FFDB9D"/>
<path d="M152.779 12.2494C152.541 12.3283 152.284 12.1989 152.205 11.9599L150.916 8.05727C150.837 7.81821 150.965 7.56161 151.204 7.48278C151.442 7.40394 151.699 7.53328 151.778 7.77233L153.067 11.6749C153.146 11.9111 153.015 12.1715 152.779 12.2494Z" fill="#FFDB9D"/>
<path d="M154.414 12.4695C154.175 12.5483 153.919 12.419 153.84 12.1799L152.096 6.90347C152.017 6.66442 152.146 6.40782 152.384 6.32898C152.623 6.25015 152.879 6.37949 152.958 6.61854L154.702 11.895C154.781 12.134 154.652 12.3906 154.414 12.4695Z" fill="#FFDB9D"/>
<path d="M156.183 13.0865C155.944 13.1654 155.688 13.036 155.609 12.797L153.15 5.35757C153.071 5.11852 153.2 4.86192 153.438 4.78308C153.677 4.70425 153.933 4.83359 154.012 5.07264L156.471 12.5121C156.549 12.7482 156.421 13.0077 156.183 13.0865Z" fill="#FFDB9D"/>
<path d="M162.653 8.9861C162.415 9.06494 162.159 8.9356 162.08 8.69655L160.79 4.79395C160.711 4.55489 160.84 4.29829 161.078 4.21946C161.317 4.14062 161.573 4.26996 161.652 4.50901L162.942 8.41161C163.02 8.64779 162.889 8.90822 162.653 8.9861Z" fill="#FFDB9D"/>
<path d="M161.242 9.45273C161.003 9.53156 160.747 9.40223 160.668 9.16318L159.378 5.26057C159.299 5.02152 159.428 4.76492 159.666 4.68609C159.905 4.60725 160.161 4.73659 160.24 4.97564L161.53 8.87824C161.608 9.11441 161.48 9.3739 161.242 9.45273Z" fill="#FFDB9D"/>
<path d="M160.058 10.6045C159.819 10.6833 159.563 10.554 159.484 10.3149L157.74 5.0385C157.661 4.79945 157.79 4.54284 158.028 4.46401C158.267 4.38518 158.523 4.51451 158.602 4.75356L160.346 10.03C160.425 10.2691 160.296 10.5257 160.058 10.6045Z" fill="#FFDB9D"/>
<path d="M159.004 12.1538C158.766 12.2326 158.51 12.1033 158.431 11.8643L155.972 4.42484C155.893 4.18578 156.022 3.92918 156.26 3.85035C156.499 3.77151 156.755 3.90085 156.834 4.1399L159.293 11.5793C159.371 11.8155 159.243 12.075 159.004 12.1538Z" fill="#FFDB9D"/>
<path d="M158.048 13.9936C157.809 14.0724 157.553 13.9431 157.474 13.704L154.106 3.51404C154.027 3.27499 154.156 3.01838 154.394 2.93955C154.633 2.86072 154.889 2.99005 154.968 3.2291L158.336 13.4191C158.415 13.6581 158.286 13.9147 158.048 13.9936Z" fill="#FFDB9D"/>
<path d="M71.931 28.0737C71.0539 26.6448 69.2831 25.9745 67.6681 26.5082C66.0416 27.0458 65.0113 28.6642 65.1833 30.3517C63.5917 31.1589 62.7955 33.0418 63.3657 34.767C63.9644 36.5786 65.813 37.6193 67.6691 37.188L67.501 36.4672C66.0213 36.8125 64.5447 35.9811 64.0669 34.5352C63.5871 33.0836 64.3177 31.494 65.727 30.9164L66.0019 30.8032L65.9489 30.5076C65.6883 29.0826 66.5267 27.665 67.9004 27.211C69.2769 26.756 70.7959 27.3977 71.4348 28.7041L71.5931 29.0287L71.9199 28.8792C72.0195 28.8335 72.1201 28.7907 72.2236 28.7565C73.7524 28.2512 75.406 29.088 75.9115 30.6173C76.4179 32.1496 75.5848 33.8051 74.0588 34.3094L74.2911 35.0122C76.205 34.3796 77.2467 32.3038 76.6127 30.3856C75.974 28.4434 73.8536 27.3807 71.931 28.0737Z" fill="#4A5161"/>
<path d="M71.7144 31.2666C71.6782 31.1572 71.5913 31.0677 71.4803 31.0309C71.3693 30.9941 71.2477 31.0119 71.1519 31.0788L67.8323 33.3899C67.6972 33.4825 67.6423 33.654 67.6937 33.8095L69.0901 38.0347C68.9542 38.0285 68.8125 38.0434 68.6774 38.088C68.0797 38.2856 67.7549 38.9328 67.9529 39.5319C68.1509 40.131 68.7974 40.4572 69.3952 40.2597C69.9613 40.0725 70.2764 39.4828 70.1425 38.9137L70.154 38.9099L69.0888 35.687L71.7795 33.8169L72.3963 35.6832C72.2633 35.6761 72.1254 35.6929 71.9903 35.7376C71.3926 35.9351 71.0678 36.5824 71.2658 37.1814C71.4638 37.7805 72.1103 38.1067 72.7081 37.9092C73.3058 37.7116 73.6306 37.0644 73.4326 36.4653C73.4307 36.4595 73.4259 36.4547 73.424 36.449L71.7115 31.2676L71.7144 31.2666ZM71.5358 33.0796L68.8461 34.9525L68.4777 33.8379L71.1684 31.9678L71.5358 33.0796Z" fill="#4A5161"/>
<path d="M101.475 15.0273C101.343 14.627 101.746 14.0145 101.57 13.6447C101.388 13.2672 100.658 13.2016 100.43 12.8585C100.2 12.5096 100.431 11.8102 100.163 11.4996C99.8897 11.1842 99.1666 11.3113 98.8589 11.036C98.5473 10.7588 98.5918 10.0253 98.2466 9.79117C97.9015 9.55701 97.2394 9.86849 96.8683 9.68124C96.4972 9.49399 96.3521 8.77522 95.9589 8.63681C95.5695 8.50033 95.0048 8.97132 94.5971 8.88561C94.1933 8.80184 93.8643 8.14384 93.4489 8.11182C93.0373 8.08172 92.6178 8.6836 92.2013 8.70624C91.7915 8.72985 91.3034 8.17876 90.8925 8.25704C90.4903 8.33247 90.2411 9.02504 89.8416 9.15706C89.4422 9.28908 88.8303 8.88432 88.4614 9.06055C88.0848 9.24252 88.0202 9.97309 87.678 10.2012C87.3301 10.4312 86.6317 10.1988 86.322 10.4673C86.0075 10.7405 86.1353 11.465 85.861 11.7729C85.5847 12.0847 84.8524 12.0392 84.6191 12.3846C84.3859 12.7301 84.6977 13.3938 84.5112 13.7653C84.3248 14.1368 83.6075 14.2812 83.4699 14.6749C83.3342 15.0648 83.8051 15.6312 83.72 16.0395C83.637 16.4439 82.9806 16.7727 82.9492 17.1888C82.9197 17.6011 83.521 18.0221 83.5442 18.4394C83.5683 18.8499 83.0188 19.3382 83.0975 19.7499C83.1762 20.152 83.865 20.4035 83.9973 20.8039C84.1296 21.2042 83.7264 21.8167 83.9028 22.1865C84.085 22.564 84.8143 22.6296 85.0425 22.9727C85.2725 23.3216 85.0414 24.0209 85.3099 24.3316C85.5831 24.647 86.3061 24.5199 86.6138 24.7951C86.9254 25.0723 86.8809 25.8059 87.2261 26.04C87.5712 26.2742 88.2333 25.9627 88.6044 26.1499C88.9755 26.3372 89.1206 27.056 89.5138 27.1944C89.9032 27.3308 90.4679 26.8599 90.8756 26.9456C91.2794 27.0293 91.6084 27.6873 92.0239 27.7194C92.4355 27.7495 92.8549 27.1476 93.2714 27.1249C93.6812 27.1013 94.1693 27.6524 94.5802 27.5741C94.9814 27.4958 95.2316 26.8061 95.6311 26.6741C96.0305 26.5421 96.6425 26.9469 97.0114 26.7706C97.3879 26.5887 97.4525 25.8581 97.7947 25.63C98.1426 25.4 98.841 25.6324 99.1507 25.3639C99.4653 25.0906 99.3374 24.3662 99.6118 24.0582C99.888 23.7465 100.62 23.792 100.854 23.4465C101.087 23.1011 100.775 22.4374 100.961 22.0659C101.148 21.6944 101.865 21.5499 102.003 21.1562C102.139 20.7663 101.668 20.2 101.753 19.7917C101.836 19.3872 102.492 19.0585 102.524 18.6424C102.553 18.2301 101.952 17.8091 101.929 17.3918C101.904 16.9813 102.454 16.493 102.375 16.0813C102.298 15.6754 101.608 15.4276 101.475 15.0273Z" fill="#4A5161"/>
<path d="M94.6796 27.7035C94.6566 27.7111 94.6327 27.7158 94.6088 27.7206C94.3387 27.7715 94.0738 27.6258 93.8194 27.4831C93.6281 27.377 93.4331 27.2689 93.2827 27.2771C93.1267 27.2871 92.9407 27.4189 92.7605 27.5487C92.5266 27.7187 92.2812 27.8924 92.0132 27.8724C91.7413 27.8504 91.5225 27.6416 91.3152 27.4386C91.1594 27.2856 90.996 27.1287 90.8448 27.0956C90.6936 27.0625 90.4809 27.1424 90.274 27.2204C90.0019 27.3231 89.7212 27.4286 89.4648 27.3377C89.2085 27.2467 89.0529 26.9882 88.904 26.7403C88.7905 26.551 88.675 26.356 88.5373 26.2865C88.3995 26.217 88.1745 26.2402 87.9553 26.2616C87.6651 26.2904 87.3655 26.3191 87.1398 26.1669C86.9142 26.0146 86.8314 25.7257 86.7515 25.4454C86.6907 25.2323 86.6279 25.0134 86.5113 24.9114C86.3976 24.8084 86.1727 24.7741 85.9564 24.737C85.6693 24.6881 85.3697 24.6402 85.193 24.4334C85.0173 24.2295 85.0102 23.9284 85.0069 23.6387C85.0035 23.4162 84.9981 23.188 84.9132 23.0563C84.8301 22.9304 84.6235 22.8357 84.4284 22.7469C84.1616 22.6242 83.8851 22.5015 83.7669 22.2499C83.6515 22.0069 83.7219 21.7185 83.7923 21.4396C83.8454 21.224 83.9023 21.0007 83.8528 20.851C83.8033 20.7012 83.6246 20.5558 83.4535 20.4143C83.2308 20.2323 82.9985 20.0407 82.9502 19.7787C82.899 19.5081 83.044 19.2429 83.1862 18.9883C83.2919 18.7968 83.3994 18.6015 83.3911 18.4509C83.3809 18.2946 83.2491 18.1081 83.1202 17.9303C82.9502 17.6957 82.7765 17.4497 82.7961 17.1812C82.8177 16.9089 83.0259 16.6899 83.2282 16.4825C83.3807 16.3267 83.5371 16.1632 83.5699 16.0117C83.6028 15.8603 83.5227 15.6472 83.4446 15.4398C83.3418 15.1671 83.236 14.8857 83.3265 14.629C83.417 14.3723 83.6748 14.2168 83.922 14.068C84.1109 13.9545 84.3054 13.839 84.3746 13.7012C84.4438 13.5633 84.4203 13.3378 84.3987 13.1181C84.3695 12.8275 84.3404 12.5272 84.4931 12.3042C84.6447 12.0784 84.933 11.9959 85.2127 11.9162C85.4254 11.8555 85.6438 11.7929 85.7455 11.6763C85.8481 11.5625 85.882 11.3372 85.9188 11.1206C85.9672 10.833 86.0147 10.533 86.2208 10.3563C86.4241 10.1804 86.7247 10.1737 87.0139 10.1708C87.236 10.1677 87.4638 10.1627 87.5951 10.0778C87.7207 9.99473 87.8149 9.78788 87.9033 9.59252C88.0254 9.32535 88.1475 9.04858 88.3957 8.93142C88.6381 8.81616 88.9261 8.88709 89.2046 8.958C89.4199 9.01144 89.6428 9.06874 89.7922 9.01935C89.9417 8.96996 90.0866 8.79109 90.2276 8.61988C90.409 8.39701 90.5999 8.16458 90.8614 8.11651C91.1314 8.06559 91.3963 8.21125 91.6536 8.35306C91.8448 8.45917 92.0399 8.56721 92.1902 8.55906C92.3463 8.54901 92.5323 8.41726 92.7096 8.28837C92.9435 8.11841 93.1889 7.94466 93.4569 7.9647C93.7288 7.98667 93.9476 8.19549 94.155 8.39851C94.3107 8.5515 94.4741 8.70834 94.6253 8.74144C94.7765 8.77453 94.9921 8.69371 95.1961 8.61668C95.4682 8.51398 95.7489 8.40843 96.0053 8.49941C96.2617 8.59038 96.4172 8.84886 96.567 9.09965C96.6806 9.28894 96.7961 9.484 96.9338 9.55349C97.0715 9.62298 97.2965 9.59973 97.5158 9.57838C97.8059 9.54958 98.1056 9.52082 98.3312 9.67307C98.5569 9.82532 98.6396 10.1143 98.7195 10.3946C98.7804 10.6077 98.8432 10.8265 98.9598 10.9285C99.0735 11.0315 99.2984 11.0658 99.5147 11.103C99.8018 11.1518 100.101 11.1998 100.278 11.4065C100.454 11.6104 100.461 11.9116 100.464 12.2012C100.468 12.4237 100.473 12.652 100.558 12.7837C100.641 12.9096 100.848 13.0042 101.043 13.0931C101.31 13.2157 101.586 13.3384 101.703 13.5872C101.819 13.8302 101.748 14.1186 101.678 14.3975C101.625 14.6131 101.568 14.8363 101.617 14.9861C101.667 15.1359 101.846 15.2813 102.017 15.4228C102.239 15.6048 102.472 15.7964 102.52 16.0583C102.571 16.3289 102.426 16.5941 102.285 16.8517C102.179 17.0431 102.069 17.2394 102.08 17.389C102.09 17.5454 102.222 17.7318 102.352 17.9126C102.522 18.1471 102.696 18.3932 102.676 18.6616C102.654 18.9339 102.446 19.1529 102.244 19.3603C102.091 19.5162 101.935 19.6797 101.902 19.8311C101.869 19.9825 101.949 20.1957 102.027 20.4031C102.13 20.6758 102.236 20.9571 102.146 21.2138C102.055 21.4706 101.797 21.626 101.547 21.7758C101.358 21.8893 101.164 22.0047 101.095 22.1426C101.025 22.2805 101.049 22.5059 101.07 22.7256C101.1 23.0163 101.129 23.3166 100.977 23.5424C100.824 23.7654 100.537 23.8508 100.257 23.9304C100.045 23.9911 99.8263 24.0537 99.7246 24.1704C99.622 24.2842 99.5881 24.5095 99.5513 24.7261C99.5029 25.0136 99.4554 25.3136 99.2492 25.4904C99.046 25.6662 98.7453 25.6729 98.4562 25.6758C98.2341 25.6789 98.0092 25.683 97.875 25.7689C97.7494 25.8519 97.6552 26.0588 97.5668 26.2541C97.4447 26.5213 97.3226 26.7981 97.0715 26.9162C96.8329 27.0334 96.5411 26.9605 96.2626 26.8896C96.0474 26.8362 95.8244 26.7789 95.675 26.8283C95.5255 26.8776 95.3806 27.0565 95.2396 27.2277C95.0765 27.419 94.9067 27.6285 94.6796 27.7035ZM93.0822 27.0079C93.1397 26.9889 93.1991 26.9757 93.2613 26.9711C93.4987 26.9565 93.7369 27.0886 93.9635 27.215C94.171 27.3317 94.3891 27.4513 94.5509 27.4202C94.7061 27.3881 94.8586 27.2035 95.0083 27.0198C95.1762 26.8142 95.3518 26.6028 95.5846 26.5259C95.8174 26.4489 96.0853 26.5169 96.3417 26.5791C96.5676 26.6355 96.8039 26.6948 96.9476 26.6281C97.0961 26.5566 97.1971 26.3316 97.2971 26.1132C97.4038 25.8767 97.5162 25.6287 97.7156 25.4989C97.9198 25.3643 98.1926 25.3604 98.4559 25.3565C98.6904 25.3524 98.9345 25.3484 99.0563 25.2443C99.18 25.1363 99.2207 24.8928 99.2585 24.6599C99.3001 24.4002 99.3427 24.1337 99.503 23.9529C99.6632 23.7722 99.9247 23.6954 100.178 23.6243C100.405 23.5588 100.641 23.4905 100.731 23.3585C100.824 23.2226 100.797 22.9789 100.774 22.7439C100.747 22.481 100.722 22.2114 100.829 21.9941C100.935 21.7767 101.17 21.6384 101.396 21.503C101.599 21.3818 101.808 21.2549 101.863 21.1026C101.915 20.9513 101.83 20.7208 101.747 20.499C101.652 20.2523 101.558 19.9959 101.607 19.7592C101.657 19.5224 101.845 19.3293 102.028 19.141C102.195 18.9708 102.365 18.793 102.375 18.63C102.386 18.4699 102.244 18.2709 102.107 18.0796C101.954 17.8652 101.794 17.6432 101.78 17.3986C101.765 17.1607 101.897 16.9223 102.023 16.6954C102.139 16.4877 102.258 16.2694 102.227 16.1073C102.198 15.9508 102.01 15.7987 101.827 15.6485C101.621 15.48 101.41 15.3038 101.333 15.0706C101.256 14.8373 101.323 14.5689 101.385 14.3121C101.441 14.086 101.5 13.8493 101.433 13.7052C101.362 13.5563 101.137 13.4549 100.919 13.3545C100.682 13.2473 100.435 13.1343 100.305 12.9344C100.17 12.7297 100.166 12.4563 100.162 12.1926C100.157 11.9576 100.153 11.713 100.049 11.5909C99.941 11.4668 99.6979 11.4258 99.4653 11.3876C99.206 11.3456 98.9399 11.3025 98.7593 11.1418C98.5786 10.981 98.5016 10.719 98.4303 10.4646C98.3647 10.2371 98.2962 10.0009 98.1642 9.91037C98.0294 9.82075 97.7853 9.84394 97.5507 9.86716C97.2883 9.89317 97.0193 9.91819 96.8022 9.81104C96.5879 9.70294 96.4467 9.46849 96.3112 9.24172C96.19 9.03898 96.063 8.82854 95.9109 8.77339C95.7598 8.72111 95.5299 8.80668 95.3086 8.88941C95.0614 8.98068 94.8066 9.07768 94.5702 9.02801C94.3338 8.97834 94.1408 8.78975 93.9526 8.60597C93.7825 8.43855 93.6047 8.26727 93.442 8.25716C93.2822 8.24609 93.0837 8.38835 92.893 8.52488C92.6792 8.67859 92.4578 8.83804 92.2136 8.85164C91.9762 8.86622 91.7381 8.73406 91.5114 8.6077C91.3039 8.49099 91.0858 8.37137 90.924 8.4025C90.7679 8.43173 90.6163 8.61921 90.4666 8.80286C90.2987 9.00851 90.1241 9.22277 89.8913 9.2997C89.6585 9.37664 89.3906 9.30864 89.1332 9.24356C88.9074 9.18721 88.671 9.12795 88.5273 9.19462C88.3788 9.26607 88.2778 9.49111 88.1779 9.70945C88.0712 9.94599 87.9587 10.194 87.7593 10.3238C87.5552 10.4584 87.2823 10.4623 87.019 10.4662C86.7845 10.4703 86.5404 10.4743 86.4186 10.5784C86.2949 10.6864 86.2542 10.9299 86.2165 11.1628C86.1748 11.4225 86.1322 11.689 85.972 11.8698C85.8118 12.0505 85.5493 12.1245 85.2964 12.1984C85.0694 12.2639 84.8338 12.3322 84.7436 12.4642C84.6543 12.5992 84.6778 12.8438 84.7013 13.0788C84.7276 13.3417 84.7529 13.6113 84.6462 13.8286C84.5396 14.046 84.3048 14.1843 84.0786 14.3197C83.8764 14.4409 83.6665 14.5678 83.6116 14.7201C83.5596 14.8714 83.6454 15.1019 83.7282 15.3237C83.8197 15.5714 83.9168 15.8268 83.8676 16.0635C83.8183 16.3003 83.6303 16.4934 83.4471 16.6817C83.2802 16.8519 83.1095 17.0297 83.0996 17.1927C83.0887 17.3528 83.231 17.5518 83.3675 17.7431C83.5213 17.9575 83.6807 18.1795 83.6946 18.4241C83.7095 18.662 83.5779 18.9004 83.4521 19.1272C83.3358 19.335 83.2167 19.5533 83.248 19.7154C83.2774 19.8719 83.4647 20.024 83.6483 20.1742C83.8538 20.3427 84.065 20.5189 84.1421 20.7521C84.2192 20.9854 84.1517 21.2538 84.0899 21.5106C84.034 21.7367 83.9751 21.9734 84.0419 22.1175C84.1134 22.2664 84.3391 22.3707 84.5563 22.4682C84.7925 22.5754 85.0403 22.6884 85.1701 22.8883C85.3047 23.093 85.3089 23.3664 85.3132 23.6301C85.3176 23.8651 85.3219 24.1097 85.426 24.2318C85.534 24.3559 85.777 24.3969 86.0096 24.4351C86.269 24.4771 86.535 24.5202 86.7156 24.6809C86.8963 24.8417 86.9733 25.1037 87.0446 25.3581C87.1103 25.5856 87.1788 25.8218 87.3107 25.9123C87.4465 26.0048 87.6897 25.9788 87.9243 25.9555C88.1866 25.9295 88.4557 25.9045 88.6728 26.0117C88.8899 26.1188 89.0282 26.3542 89.1638 26.581C89.285 26.7837 89.4119 26.9942 89.564 27.0493C89.7152 27.1016 89.9451 27.016 90.1664 26.9333C90.4126 26.8391 90.6684 26.745 90.9047 26.7947C91.1411 26.8444 91.3341 27.0329 91.5224 27.2167C91.6924 27.3841 91.8702 27.5554 92.0329 27.5655C92.1928 27.5766 92.3883 27.4353 92.582 27.2978C92.742 27.1842 92.9069 27.0658 93.0822 27.0079Z" fill="#4A5161"/>
<path d="M88.8566 22.3147C88.7474 22.3508 88.6202 22.3226 88.538 22.2283C88.1654 21.8147 87.8408 21.3534 87.5747 20.8567C85.9396 17.7902 86.8962 14.078 89.703 12.5785C92.5098 11.079 96.1223 12.3546 97.7574 15.4211C97.8508 15.5978 97.9395 15.7794 98.0158 15.9618C98.0825 16.1155 98.0104 16.2927 97.8571 16.3593C97.6999 16.424 97.5268 16.3535 97.4601 16.1998C97.3895 16.0346 97.3094 15.8694 97.2236 15.7061C95.7469 12.9355 92.5028 11.7714 89.9883 13.1136C87.4766 14.4549 86.6317 17.8011 88.1084 20.5717C88.3507 21.0251 88.6467 21.448 88.9839 21.8222C89.0957 21.9482 89.0886 22.139 88.963 22.2508C88.9352 22.2824 88.8969 22.3014 88.8566 22.3147Z" fill="white"/>
<path d="M88.9046 22.459C88.735 22.515 88.5465 22.4655 88.4261 22.3328C88.044 21.9096 87.7127 21.4376 87.4428 20.9294C86.6357 19.4135 86.4149 17.6942 86.8296 16.0939C87.2423 14.4879 88.2385 13.1907 89.6347 12.4481C91.0299 11.7026 92.6585 11.5957 94.2218 12.1493C95.7812 12.7009 97.0848 13.8387 97.8918 15.3546C97.9863 15.5343 98.0769 15.7216 98.1569 15.906C98.2551 16.1355 98.1493 16.4037 97.9174 16.5027C97.6798 16.6036 97.4206 16.4944 97.3215 16.262C97.2528 16.1025 97.1766 15.9393 97.0926 15.7817C95.6569 13.087 92.5018 11.951 90.063 13.2522C87.6242 14.5534 86.8091 17.8067 88.2458 20.5043C88.4824 20.95 88.7707 21.3595 89.1022 21.7259C89.2694 21.9135 89.2554 22.1992 89.0723 22.3684C89.0215 22.4076 88.9649 22.439 88.9046 22.459ZM90.5912 12.362C90.3125 12.4541 90.0385 12.5702 89.7759 12.7113C88.4563 13.4158 87.5139 14.6442 87.1214 16.1668C86.728 17.6961 86.9384 19.3358 87.7101 20.7835C87.9696 21.2696 88.2856 21.7243 88.6515 22.1273C88.706 22.186 88.8045 22.1949 88.865 22.1366C88.9263 22.0812 88.9323 21.9834 88.874 21.9228C88.5272 21.539 88.2246 21.1055 87.9756 20.6415C86.4588 17.7979 87.3307 14.3597 89.9151 12.9784C92.5006 11.6 95.8394 12.7903 97.3533 15.6349C97.443 15.8001 97.5221 15.972 97.5936 16.1401C97.626 16.2188 97.713 16.2507 97.7954 16.2203C97.8318 16.2051 97.8606 16.1764 97.8731 16.1371C97.8895 16.0998 97.8886 16.0586 97.8733 16.0221C97.799 15.8454 97.7113 15.6667 97.6197 15.4957C96.847 14.0451 95.6016 12.9583 94.115 12.4337C92.9335 12.0128 91.7091 11.9925 90.5912 12.362Z" fill="#263238"/>
<path d="M121.829 57.4C121.829 57.4 132.557 50.6724 135.053 46.0138C135.053 46.0138 135.807 51.8347 138.676 54.0813C141.544 56.328 151.707 61.4224 153.557 62.514C155.406 63.6056 159.108 66.3881 159.841 66.0404C160.577 65.6918 161.541 61.5394 161.893 60.3561C162.246 59.1758 163.211 58.1796 162.864 56.4858C162.517 54.7891 161.526 55.0113 161.303 55.6186C161.079 56.2259 159.595 58.3808 158.478 59.1751C157.36 59.9695 156.161 60.8642 156.161 60.8642C156.161 60.8642 151.778 57.7313 147.892 53.69C144.007 49.6486 138.635 41.4211 137.267 39.8477C135.897 38.2782 134.558 38.082 133.121 38.5569C131.684 39.0318 127.086 40.5515 120.213 46.7621C113.34 52.9727 114.77 56.3339 115.95 57.3303C117.129 58.3305 119.395 58.754 121.829 57.4Z" fill="#4592D0"/>
<path d="M159.865 66.1985C159.267 66.3961 157.695 65.4013 155.386 63.8738C154.676 63.4026 154.002 62.9574 153.48 62.6507C152.958 62.3441 151.771 61.714 150.268 60.917C146.439 58.8888 140.651 55.8243 138.586 54.2065C136.126 52.2815 135.209 47.8756 134.97 46.4689C132.149 51.0785 122.336 57.2643 121.911 57.5325C121.908 57.5334 121.905 57.5344 121.903 57.5382C119.422 58.9141 117.079 58.4874 115.854 57.4545C115.549 57.1974 114.839 56.4481 114.813 55.0382C114.785 53.4279 115.682 50.6649 120.114 46.657C127.011 40.4225 131.575 38.9143 133.075 38.4185C134.739 37.8686 136.11 38.294 137.383 39.7548C137.844 40.2828 138.743 41.5449 139.883 43.1425C142.218 46.4184 145.418 50.9006 148.003 53.5923C151.531 57.2633 155.518 60.2137 156.161 60.6818C156.46 60.4584 157.459 59.7193 158.391 59.0567C159.487 58.2758 160.953 56.1332 161.162 55.569C161.29 55.2232 161.615 55.0008 161.955 55.0259C162.19 55.0439 162.761 55.2193 163.015 56.4611C163.269 57.7 162.859 58.5638 162.461 59.3949C162.298 59.7396 162.143 60.0623 162.04 60.4063C161.974 60.6295 161.883 60.963 161.777 61.3559C161.139 63.736 160.513 65.8947 159.907 66.1814C159.893 66.1891 159.879 66.1938 159.865 66.1985ZM135.006 45.8725C135.029 45.8649 135.057 45.8621 135.081 45.867C135.145 45.8778 135.194 45.9316 135.203 45.9959C135.21 46.0544 135.984 51.7823 138.767 53.9644C140.811 55.5668 146.584 58.6236 150.405 60.6479C151.913 61.4469 153.106 62.0779 153.633 62.3894C154.16 62.7008 154.837 63.148 155.551 63.6212C157.056 64.6157 159.335 66.1182 159.778 65.9077C160.31 65.6552 161.104 62.6963 161.486 61.2763C161.594 60.8796 161.684 60.5433 161.75 60.32C161.859 59.955 162.027 59.6055 162.187 59.2684C162.564 58.4794 162.951 57.6645 162.718 56.5244C162.569 55.8037 162.275 55.3578 161.931 55.3308C161.728 55.3148 161.527 55.458 161.446 55.6764C161.222 56.2808 159.726 58.4779 158.568 59.3047C157.464 60.0914 156.266 60.9823 156.254 60.9928C156.2 61.0329 156.13 61.0337 156.076 60.9942C156.031 60.9643 151.637 57.8065 147.786 53.8016C145.183 51.0965 141.979 46.5998 139.636 43.3201C138.501 41.7302 137.605 40.4739 137.153 39.9555C135.952 38.5793 134.725 38.1927 133.167 38.7075C131.681 39.1985 127.164 40.6915 120.313 46.8821C115.963 50.8116 115.083 53.4826 115.111 55.0324C115.133 56.3157 115.771 56.99 116.045 57.222C117.19 58.1886 119.394 58.5783 121.749 57.273C121.991 57.1194 132.483 50.4888 134.919 45.9461C134.939 45.9107 134.972 45.8839 135.006 45.8725ZM121.83 57.4027L121.833 57.4018L121.83 57.4027Z" fill="#263238"/>
<path d="M162.866 56.4882C162.519 54.7915 161.528 55.0137 161.305 55.621C161.081 56.2283 159.597 58.3833 158.479 59.1776C157.362 59.9719 156.162 60.8666 156.162 60.8666C156.162 60.8666 152.748 58.4264 149.276 55.0759C148.781 57.0125 147.747 58.2617 146.95 58.9755C149.916 60.5703 152.679 61.9957 153.558 62.5164C155.408 63.608 159.11 66.3906 159.843 66.0429C160.579 65.6942 161.543 61.5419 161.895 60.3586C162.25 59.1772 163.216 58.1839 162.866 56.4882Z" fill="#FEDEA5"/>
<path d="M159.865 66.1982C159.267 66.3958 157.695 65.401 155.386 63.8735C154.676 63.4023 154.003 62.957 153.481 62.6504C152.958 62.3437 151.768 61.7117 150.261 60.9128C149.24 60.3715 148.074 59.7569 146.879 59.1105C146.836 59.0864 146.806 59.045 146.8 58.9961C146.793 58.9472 146.812 58.8993 146.849 58.8649C147.618 58.173 148.641 56.9497 149.129 55.0409C149.144 54.9882 149.185 54.949 149.234 54.9328C149.287 54.9186 149.342 54.9322 149.38 54.9707C152.497 57.9758 155.599 60.2731 156.158 60.6825C156.457 60.459 157.456 59.7199 158.388 59.0573C159.484 58.2764 160.95 56.1338 161.159 55.5696C161.287 55.2239 161.612 55.0014 161.952 55.0265C162.187 55.0445 162.758 55.2199 163.013 56.4618C163.266 57.7007 162.857 58.5644 162.459 59.3956C162.295 59.7403 162.141 60.063 162.037 60.4069C161.971 60.6302 161.88 60.9636 161.774 61.3565C161.136 63.7367 160.511 65.8954 159.904 66.1821C159.894 66.1887 159.879 66.1935 159.865 66.1982ZM147.209 58.9437C148.341 59.5506 149.435 60.1314 150.404 60.6419C151.915 61.4427 153.108 62.0738 153.635 62.3852C154.162 62.6967 154.839 63.1439 155.553 63.6171C157.058 64.6116 159.337 66.1141 159.78 65.9035C160.312 65.6511 161.106 62.6922 161.488 61.2721C161.596 60.8754 161.686 60.5391 161.752 60.3159C161.861 59.9508 162.029 59.6013 162.189 59.2643C162.566 58.4752 162.953 57.6603 162.72 56.5203C162.571 55.7996 162.277 55.3536 161.933 55.3266C161.73 55.3106 161.529 55.4538 161.448 55.6722C161.224 56.2767 159.728 58.4738 158.57 59.3006C157.466 60.0873 156.269 60.9782 156.256 60.9887C156.202 61.0288 156.132 61.0295 156.078 60.99C156.045 60.966 152.739 58.5923 149.36 55.361C148.86 57.0818 147.952 58.2383 147.209 58.9437Z" fill="#263238"/>
<path d="M95.0388 25.5469C95.0388 25.5469 97.1599 27.7308 97.5797 28.5281C97.9994 29.3255 97.1793 30.1428 96.266 30.6779C95.3527 31.2129 93.6239 31.1613 92.6613 33.4283C91.6988 35.6952 90.4442 44.6111 90.276 45.9925C90.1106 47.373 90.9966 48.1728 92.4465 47.3805C93.8964 46.5882 96.2222 39.7367 96.2222 39.7367C96.2222 39.7367 103.412 44.3028 104.485 45.4273C105.559 46.5547 106.089 48.8744 106.719 51.2414C107.345 53.6094 108.109 57.0979 111.119 59.1445C114.129 61.1912 118.805 60.5052 121.826 57.3981C124.845 54.2948 126.619 46.4374 123.981 44.3478C121.344 42.2544 116.968 42.2375 114.939 40.1C112.91 37.9625 112.861 36.426 112.001 33.8252C111.142 31.2244 109.459 28.0619 109.459 28.0619C109.459 28.0619 115.018 24.6273 121.693 21.3574C124.013 20.2197 121.581 17.963 119.993 17.8649C118.001 17.7405 110.481 21.1333 108.291 21.6336C105.129 22.359 103.776 23.5122 103.238 24.2364C102.699 24.9607 102.021 25.9645 101.225 26.1509C100.429 26.3373 98.3342 22.8157 98.3342 22.8157C98.3342 22.8157 96.8613 25.1778 95.0388 25.5469Z" fill="#F37630"/>
<path d="M117.978 59.9822C115.567 60.7791 112.973 60.5885 111.036 59.2703C108.145 57.3056 107.299 54.0584 106.68 51.6848L106.412 50.6616C105.857 48.5384 105.33 46.5304 104.378 45.5319C103.42 44.5228 97.3782 40.651 96.3073 39.9666C95.9184 41.0855 93.8878 46.766 92.5213 47.5116C91.7997 47.9034 91.1486 47.9493 90.6916 47.6371C90.2432 47.3316 90.0366 46.7258 90.128 45.9704C90.2729 44.7596 91.5402 35.6797 92.522 33.3649C93.2672 31.6075 94.4484 31.198 95.3948 30.8692C95.6928 30.7675 95.9696 30.6696 96.1891 30.5428C96.5973 30.3024 97.8951 29.455 97.4449 28.5943C97.0414 27.8267 94.9509 25.6679 94.9279 25.6467C94.8897 25.6083 94.8764 25.5488 94.8909 25.4961C94.9082 25.4424 94.9494 25.4032 95.0059 25.3909C96.7441 25.0369 98.1921 22.7533 98.2074 22.7323C98.2343 22.6882 98.2861 22.6615 98.3368 22.6607C98.3885 22.6628 98.4382 22.6879 98.4659 22.7331C99.4679 24.4146 100.763 26.0952 101.193 25.9978C101.865 25.8426 102.483 25.0026 102.981 24.33L103.12 24.1406C103.617 23.4747 104.943 22.2408 108.259 21.4805C109.08 21.2922 110.711 20.6732 112.438 20.016C115.39 18.8968 118.735 17.6282 120.004 17.7042C121.071 17.77 122.559 18.7827 122.775 19.868C122.868 20.3325 122.767 20.992 121.76 21.4846C115.702 24.4515 110.506 27.5938 109.659 28.1099C109.981 28.7257 111.388 31.4778 112.145 33.7704C112.334 34.3407 112.48 34.8514 112.624 35.3438C113.126 37.0851 113.488 38.3455 115.052 39.9885C116.083 41.0756 117.742 41.6007 119.498 42.1578C121.119 42.6732 122.792 43.2032 124.076 44.2229C124.844 44.8315 125.302 45.9454 125.399 47.4438C125.615 50.8001 124.063 55.3131 121.935 57.4986C120.808 58.6698 119.426 59.5035 117.978 59.9822ZM96.1778 39.5941C96.2209 39.5798 96.2678 39.5867 96.307 39.6089C96.6015 39.7959 103.523 44.198 104.597 45.3255C105.603 46.3827 106.138 48.4262 106.704 50.5906L106.972 51.6138C107.578 53.9404 108.41 57.1223 111.206 59.0225C114.187 61.0499 118.806 60.2898 121.719 57.2984C123.761 55.2018 125.306 50.7042 125.097 47.4764C125.004 46.0663 124.587 45.0282 123.888 44.4736C122.648 43.4904 120.999 42.9682 119.407 42.4625C117.613 41.8928 115.917 41.3541 114.832 40.2113C113.219 38.5144 112.828 37.158 112.334 35.4398C112.191 34.9502 112.045 34.4424 111.859 33.8779C111.013 31.3174 109.344 28.1693 109.328 28.1396C109.292 28.0685 109.314 27.9813 109.383 27.9393C109.439 27.9049 115.024 24.4647 121.63 21.2271C122.3 20.9003 122.587 20.4668 122.484 19.9419C122.295 18.9947 120.931 18.0812 119.99 18.0216C118.786 17.9467 115.328 19.2591 112.55 20.3147C110.737 21.0032 109.171 21.5975 108.329 21.7895C105.105 22.5291 103.836 23.7027 103.362 24.3351L103.223 24.5216C102.697 25.2354 102.044 26.1223 101.262 26.3039C100.478 26.4865 98.8733 23.9946 98.3302 23.1038C97.9443 23.6626 96.7793 25.201 95.3252 25.6336C95.8526 26.1877 97.3555 27.7836 97.7103 28.4618C98.0986 29.2025 97.5886 30.0803 96.3389 30.8128C96.0954 30.9539 95.8013 31.0575 95.4929 31.1658C94.6001 31.4737 93.4908 31.8595 92.7975 33.4943C91.8282 35.7795 90.5705 44.8114 90.4237 46.0164C90.3469 46.652 90.5039 47.156 90.8567 47.394C91.2181 47.6388 91.7562 47.5887 92.3724 47.2541C93.4802 46.6515 95.279 42.0444 96.0771 39.6944C96.0982 39.6427 96.1318 39.6093 96.1778 39.5941Z" fill="#263238"/>
<path d="M111.588 20.508C111.392 20.5822 111.2 20.6555 111.012 20.7239C111.375 21.9584 112.198 23.9165 113.962 25.4355C114.145 25.3335 114.336 25.2257 114.526 25.118C112.758 23.6737 111.94 21.7013 111.588 20.508Z" fill="#263238"/>
<path d="M114.144 39.1512C114.018 38.9849 113.903 38.8186 113.798 38.6552C109.77 41.0599 107.024 45.0982 105.645 47.5124C105.736 47.7602 105.821 48.0165 105.907 48.2853C107.145 46.0135 109.931 41.6455 114.144 39.1512Z" fill="#263238"/>
<path d="M103.667 44.7385C103.854 44.881 104.022 45.0139 104.159 45.1284C105.031 43.4184 107.418 39.5948 112.66 36.0028C112.6 35.8022 112.54 35.592 112.48 35.3818C107.082 39.0125 104.616 42.8848 103.667 44.7385Z" fill="#263238"/>
<path d="M96.2212 36.551C97.2158 36.0977 101.888 33.7228 107.51 26.7371C108.433 27.6493 109.212 28.2512 109.281 28.3051C109.362 28.3677 109.47 28.3834 109.562 28.353C109.576 28.3482 109.592 28.3397 109.606 28.332C109.518 28.163 109.466 28.065 109.466 28.065C109.466 28.065 109.556 28.0096 109.723 27.9066C109.703 27.8749 109.681 27.847 109.651 27.822C109.616 27.795 106.374 25.2949 105.267 22.6799C105.076 22.7752 104.894 22.8734 104.732 22.9717C104.955 23.4797 105.245 23.9813 105.574 24.4571C101.475 30.1884 96.4035 32.7625 95.0104 33.389C94.6192 32.6877 94.2249 32.1407 93.9135 31.758C93.7582 31.8764 93.6048 32.0102 93.4571 32.1709C93.7245 32.5074 94.0625 32.9803 94.4031 33.577C93.926 33.281 93.4008 33.0904 92.8879 32.966C92.811 33.1096 92.7332 33.2599 92.6639 33.4265C92.6495 33.4601 92.636 33.4965 92.6216 33.53C93.5776 33.7412 94.5877 34.2028 95.1573 35.1743C95.3574 35.6928 95.5334 36.264 95.6653 36.8849C95.0022 36.2287 93.832 35.4174 92.083 35.3821C92.0376 35.5728 91.9923 35.7731 91.9479 35.9762C94.6025 35.955 95.7477 37.896 95.8145 38.0113C95.8278 38.0324 95.8431 38.0497 95.8613 38.0661C95.898 38.399 95.9213 38.7395 95.9273 39.0953C95.1587 38.5347 93.5798 37.6444 91.5633 37.8604C91.5256 38.0646 91.485 38.2697 91.4482 38.4767C93.8154 38.1257 95.5168 39.493 95.922 39.8606C95.9158 40.1214 95.9134 40.3746 95.9101 40.6249C96.1093 40.0799 96.2267 39.7312 96.2267 39.7312C96.2267 39.7312 96.3357 39.8006 96.525 39.9201C96.5271 39.8587 96.5272 39.8012 96.5292 39.7398C96.5659 38.568 96.4396 37.5011 96.2212 36.551ZM105.943 24.9742C106.307 25.451 106.697 25.8973 107.082 26.3004C101.739 32.9542 97.1759 35.4176 96.0644 35.9511C95.9854 35.6737 95.8979 35.4087 95.8074 35.1543C95.8046 35.1169 95.7941 35.0756 95.776 35.0401C95.7684 35.0266 95.7608 35.0132 95.7522 34.9968C95.6064 34.6137 95.4501 34.2564 95.288 33.9298C96.7779 33.2489 101.826 30.6509 105.943 24.9742Z" fill="#263238"/>
<path d="M116.464 41.1857C116.26 41.0805 116.065 40.9724 115.879 40.852C111.351 43.9331 108.343 48.0866 106.647 50.9601C106.672 51.0542 106.697 51.1483 106.722 51.2423C106.767 51.4189 106.816 51.6042 106.864 51.7894C108.484 48.9281 111.594 44.4086 116.464 41.1857Z" fill="#263238"/>
<path d="M111.795 33.2216C111.727 33.0334 111.654 32.8433 111.582 32.6531C104.337 35.482 101.954 40.4709 101.188 42.9858C101.365 43.1063 101.538 43.2248 101.71 43.3404C102.365 41.0313 104.575 36.0457 111.795 33.2216Z" fill="#263238"/>
<path d="M115.372 19.0909C115.175 19.1622 114.979 19.2335 114.78 19.3058C115.015 20.5859 115.575 22.2727 116.868 23.8391C117.049 23.7409 117.234 23.6446 117.42 23.5445C116.13 22.0126 115.592 20.3278 115.372 19.0909Z" fill="#263238"/>
<path d="M107.526 21.8309C108.223 23.2238 109.453 25.2868 111.277 26.9777C111.451 26.8756 111.635 26.7669 111.827 26.6553C110.06 25.0605 108.839 23.0522 108.131 21.6727C107.925 21.7248 107.722 21.776 107.526 21.8309Z" fill="#263238"/>
<path d="M110.506 30.1686C110.416 29.9746 110.327 29.7931 110.244 29.6192C102.226 33.3873 99.2072 38.3243 98.1205 40.9581C98.2917 41.0709 98.4695 41.1846 98.6531 41.306C99.6821 38.8159 102.622 33.8892 110.506 30.1686Z" fill="#263238"/>
<path d="M121.83 57.3999C124.328 54.8329 125.971 49.0121 124.97 45.8959C124.756 45.315 124.444 44.8335 124.023 44.4965C123.668 44.2115 123.282 43.9235 122.88 43.6316C121.585 42.935 120.07 42.5187 118.654 42.0539C113.106 46.5425 109.62 53.0364 108.163 55.5942C108.805 56.9188 109.716 58.1895 111.123 59.1464C114.132 61.193 118.808 60.507 121.83 57.3999Z" fill="#4592D0"/>
<path d="M117.978 59.9824C115.567 60.7792 112.973 60.5887 111.036 59.2705C109.77 58.4109 108.783 57.2291 108.025 55.6587C108.004 55.6145 108.005 55.5598 108.029 55.5168L108.301 55.0372C109.926 52.1615 113.305 46.1822 118.557 41.9353C118.598 41.9028 118.648 41.8924 118.699 41.9108C118.96 41.997 119.223 42.0794 119.49 42.1637C120.666 42.5386 121.884 42.9252 122.95 43.4992C123.411 43.8325 123.788 44.1138 124.115 44.3795C124.54 44.7213 124.875 45.2144 125.108 45.8433C126.115 48.9768 124.511 54.8582 121.935 57.5083C120.808 58.6699 119.426 59.5037 117.978 59.9824ZM108.333 55.5983C109.063 57.0823 110.004 58.2026 111.207 59.0188C114.188 61.0462 118.808 60.2862 121.721 57.2947C124.236 54.7096 125.801 48.9816 124.825 45.9402C124.613 45.368 124.31 44.922 123.928 44.6139C123.603 44.3539 123.233 44.0736 122.792 43.7529C121.765 43.201 120.564 42.8183 119.4 42.4492C119.16 42.3717 118.922 42.2971 118.686 42.2186C113.516 46.4256 110.175 52.3378 108.569 55.1819L108.333 55.5983Z" fill="#4592D0"/>
<path d="M88.8745 21.1331C88.7529 21.1798 88.6398 21.2427 88.5363 21.3248C87.6964 21.9762 87.7855 23.4994 88.7366 24.7281C89.6849 25.9578 91.1344 26.4275 91.9752 25.7791C92.1525 25.6406 92.2859 25.4655 92.3811 25.2615L88.8745 21.1331Z" fill="white"/>
<path d="M91.6128 26.1392C91.242 26.2617 90.8084 26.2517 90.3482 26.1035C89.7091 25.8962 89.0934 25.4416 88.614 24.8205C88.1356 24.2023 87.8526 23.4907 87.8118 22.8174C87.77 22.1219 87.9951 21.5492 88.4418 21.2034C88.5559 21.1146 88.6824 21.0441 88.8185 20.9927C88.8788 20.9728 88.9467 20.9854 88.9888 21.0355L92.4915 25.1619C92.5287 25.2071 92.5372 25.2714 92.5132 25.3241C92.4027 25.5587 92.253 25.7519 92.0651 25.8971C91.928 26.0031 91.7766 26.0851 91.6128 26.1392ZM88.8332 21.3169C88.7594 21.3541 88.6932 21.3951 88.63 21.4448C88.2647 21.7284 88.0829 22.2102 88.1181 22.7992C88.1543 23.4102 88.4183 24.0641 88.8585 24.6343C89.2988 25.2044 89.8647 25.6243 90.4464 25.8123C91.0099 25.9934 91.5212 25.9394 91.8836 25.6567C92.0102 25.5574 92.1186 25.4321 92.2022 25.2799L88.8332 21.3169Z" fill="#263238"/>
<path d="M88.8746 21.1336C88.7529 21.1802 88.6398 21.2431 88.5363 21.3253C88.4395 21.3988 88.357 21.4868 88.2869 21.5834L91.9235 25.8158C91.9417 25.8034 91.9608 25.7939 91.9781 25.7786C92.1555 25.6401 92.2889 25.465 92.384 25.261L88.8746 21.1336Z" fill="white"/>
<path d="M91.982 25.9461C91.9217 25.966 91.8432 25.96 91.805 25.9119L88.1684 21.6795C88.1216 21.6247 88.1179 21.5461 88.163 21.4896C88.2475 21.3787 88.3396 21.2811 88.4412 21.2028C88.5553 21.114 88.6818 21.0434 88.8178 20.9921C88.8782 20.9721 88.9461 20.9848 88.9881 21.0348L92.4909 25.1613C92.5281 25.2065 92.5366 25.2708 92.5126 25.3234C92.402 25.558 92.2523 25.7513 92.0644 25.8965C92.0491 25.9079 92.0357 25.9155 92.0203 25.927C92.0069 25.9346 91.9964 25.9413 91.982 25.9461ZM88.4826 21.5789L91.9396 25.6055C92.045 25.5099 92.1285 25.4056 92.1958 25.2812L88.8296 21.3172C88.7559 21.3544 88.6897 21.3954 88.6265 21.4451C88.5756 21.4842 88.5267 21.5292 88.4826 21.5789Z" fill="#263238"/>
<path d="M96.5774 15.3775C96.6542 15.2723 96.7434 15.1757 96.8479 15.0964C97.6877 14.4451 99.1372 14.9149 100.085 16.1445C101.037 17.3732 101.126 18.8964 100.289 19.5468C100.111 19.6853 99.9064 19.7691 99.6871 19.8096L96.5774 15.3775Z" fill="white"/>
<path d="M99.934 19.9031C99.8622 19.9269 99.7884 19.9449 99.7109 19.9609C99.6534 19.9703 99.5951 19.9481 99.5597 19.8991L96.4501 15.467C96.4138 15.4151 96.413 15.3451 96.4494 15.2915C96.5339 15.1709 96.6365 15.0667 96.7506 14.9779C97.6547 14.2797 99.2027 14.7585 100.202 16.0545C100.68 16.6727 100.966 17.3833 101.004 18.0576C101.046 18.753 100.824 19.3248 100.377 19.6706C100.247 19.7709 100.101 19.8481 99.934 19.9031ZM99.7488 19.6417C99.9164 19.5991 100.065 19.5276 100.191 19.4283C100.557 19.1446 100.739 18.6628 100.703 18.0739C100.666 17.46 100.403 16.8089 99.9629 16.2388C99.0662 15.0784 97.7067 14.6204 96.9349 15.2173C96.8717 15.2669 96.8132 15.3214 96.7604 15.3836L99.7488 19.6417Z" fill="#263238"/>
<path d="M99.9342 19.9035C99.8623 19.9273 99.7886 19.9452 99.711 19.9613C99.6536 19.9707 99.5952 19.9485 99.5599 19.8994L96.4502 15.4674C96.4139 15.4154 96.4131 15.3454 96.4496 15.2919C96.5341 15.1713 96.6367 15.0671 96.7508 14.9783C96.8524 14.8999 96.9674 14.8332 97.0968 14.7809C97.1638 14.7523 97.2384 14.7756 97.2805 14.8351L100.457 19.4209C100.501 19.4862 100.491 19.5725 100.431 19.6212C100.404 19.6461 100.392 19.6595 100.376 19.6681C100.247 19.7712 100.101 19.8484 99.9342 19.9035ZM99.749 19.6421C99.8907 19.608 100.015 19.5509 100.127 19.4755L97.1038 15.1108C97.0444 15.1432 96.9859 15.1785 96.9351 15.2176C96.8718 15.2673 96.8133 15.3218 96.7606 15.384L99.749 19.6421Z" fill="#263238"/>
<path d="M102.552 25.1435C102.158 25.6189 101.716 26.0365 101.23 26.1491C100.434 26.3355 98.3397 22.8139 98.3397 22.8139C98.3397 22.8139 96.8629 25.1741 95.0404 25.5432C95.0404 25.5432 97.1615 27.727 97.5812 28.5244C97.9218 29.169 97.4476 29.8273 96.7718 30.3382C97.4927 31.2947 99.4973 33.3669 102.345 31.5856C104.834 30.0313 103.573 26.921 102.552 25.1435Z" fill="#FEDEA5"/>
<path d="M101.317 32.2471C98.9573 33.0269 97.3044 31.3049 96.6465 30.4329C96.6226 30.3993 96.6131 30.3609 96.616 30.3216C96.6219 30.2813 96.642 30.2459 96.6756 30.222C97.1089 29.8935 97.785 29.2484 97.4426 28.598C97.0391 27.8304 94.9485 25.6716 94.9256 25.6505C94.8874 25.612 94.8741 25.5525 94.8885 25.4998C94.9059 25.4461 94.9471 25.4069 95.0036 25.3947C96.7418 25.0406 98.1897 22.757 98.2051 22.736C98.232 22.6919 98.2837 22.6653 98.3345 22.6645C98.3862 22.6665 98.4359 22.6916 98.4636 22.7368C99.4656 24.4183 100.761 26.0989 101.191 26.0015C101.566 25.9125 101.963 25.6089 102.43 25.0455C102.462 25.0063 102.51 24.9872 102.559 24.9903C102.607 24.9933 102.652 25.0232 102.676 25.0664C103.699 26.8497 105.028 30.0811 102.416 31.7145C102.037 31.9579 101.67 32.1303 101.317 32.2471ZM96.9817 30.3669C97.7514 31.3361 99.6379 33.0991 102.261 31.4589C104.573 30.0144 103.477 27.1242 102.527 25.4064C102.21 25.7669 101.769 26.1808 101.263 26.2971C100.478 26.4797 98.8738 23.9877 98.3308 23.097C97.9449 23.6558 96.7798 25.1942 95.3258 25.6268C95.8532 26.1809 97.356 27.7768 97.7109 28.455C98.0276 29.0564 97.7659 29.7307 96.9817 30.3669Z" fill="#FEDEA5"/>
<path d="M99.6683 24.7993C99.3388 24.3619 99.0228 23.8977 98.7823 23.5267C98.6161 23.3229 98.4519 23.1056 98.2905 22.8874C98.037 23.2683 96.6807 25.2117 95.0344 25.5449C95.0344 25.5449 95.751 26.2857 96.434 27.0599C97.1789 27.0374 98.1844 26.8776 98.8059 26.2408C99.1992 25.8393 99.474 25.3108 99.6683 24.7993Z" fill="#263238"/>
<path d="M97.8428 26.9834C97.3658 27.141 96.8611 27.196 96.4418 27.21C96.3978 27.2118 96.3528 27.1915 96.3232 27.1597C95.6497 26.3951 94.9341 25.6573 94.9284 25.6496C94.8901 25.6111 94.8768 25.5516 94.8913 25.4989C94.9086 25.4452 94.9499 25.4061 95.0064 25.3938C96.5904 25.0747 97.9141 23.1772 98.1656 22.8002C98.1935 22.759 98.2395 22.7342 98.2902 22.7334C98.3409 22.7326 98.3868 22.7558 98.4155 22.7943C98.5845 23.0259 98.7478 23.2403 98.9016 23.4259C99.2128 23.9045 99.5164 24.3409 99.7885 24.7014C99.821 24.7418 99.8266 24.7974 99.8112 24.8472C99.5726 25.4756 99.273 25.9772 98.921 26.3395C98.6188 26.6502 98.2394 26.8523 97.8428 26.9834ZM96.5037 26.9052C97.2083 26.8768 98.1334 26.7148 98.7002 26.1345C99.0091 25.8152 99.278 25.3749 99.4944 24.8242C99.164 24.3839 98.8556 23.9235 98.6533 23.6102C98.5425 23.4775 98.4202 23.3198 98.2942 23.1506C97.8795 23.7381 96.7376 25.2114 95.3238 25.6307C95.575 25.8895 96.0461 26.3887 96.5037 26.9052Z" fill="#263238"/>
<path d="M88.7373 20.1403C88.7373 20.1403 91.1147 24.0348 92.1871 24.9264C93.2605 25.8207 96.2273 26.3194 97.4665 26.0664C98.7057 25.8133 99.0594 24.0575 99.3656 22.6305C99.6717 21.2035 99.556 20.1492 98.766 18.6947C97.9732 17.2411 96.2494 15.0825 95.1065 13.9779C94.3659 13.261 91.9308 13.0787 90.128 14.2208C88.3251 15.363 87.6433 18.0067 88.7373 20.1403Z" fill="#FEDEA5"/>
<path d="M97.6761 26.1696C97.6186 26.1886 97.5602 26.2047 97.497 26.216C96.1563 26.4899 93.1819 25.949 92.0923 25.044C91.0112 24.1457 88.7083 20.3799 88.611 20.2204C88.61 20.2175 88.6062 20.2156 88.6043 20.2098C87.494 18.0465 88.1425 15.3019 90.0479 14.0939C91.938 12.8974 94.4439 13.1299 95.2121 13.8727C96.3311 14.9533 98.0808 17.1225 98.9004 18.6279C99.6769 20.0517 99.8414 21.1475 99.515 22.6674L99.4967 22.747C99.206 24.105 98.8457 25.7831 97.6761 26.1696ZM88.8688 20.0649C88.9652 20.2215 91.2576 23.9557 92.2823 24.8087C93.2897 25.6482 96.1674 26.1763 97.4334 25.9176C98.551 25.692 98.9103 24.0206 99.2 22.6789L99.2184 22.5993C99.5332 21.1407 99.38 20.1371 98.634 18.7671C97.8288 17.2857 96.1039 15.153 95.0021 14.0859C94.3188 13.4268 91.9527 13.2408 90.2112 14.3467C88.4323 15.4745 87.832 18.037 88.8688 20.0649Z" fill="#263238"/>
<path d="M93.9943 21.2142C93.9857 21.2171 93.9771 21.2199 93.9675 21.2199C93.8851 21.2311 93.8096 21.1762 93.7954 21.0947C93.7935 21.0793 93.7387 20.7109 93.9968 20.4019C94.2098 20.1494 94.5614 20.0173 95.04 20.0092C95.1224 20.0075 95.1921 20.0739 95.1948 20.1593C95.1966 20.2418 95.1275 20.3125 95.0452 20.3142C94.6584 20.3206 94.3835 20.4147 94.23 20.5964C94.0602 20.7963 94.0923 21.0477 94.0932 21.0505C94.1074 21.1225 94.0633 21.1914 93.9943 21.2142Z" fill="#263238"/>
<path d="M94.9756 22.7454C94.2917 22.9714 93.6936 22.8592 93.6792 22.8544C93.5969 22.8368 93.5454 22.758 93.5599 22.6766C93.5773 22.5941 93.6559 22.5426 93.7372 22.5573C93.8262 22.5758 95.9373 22.9643 96.5319 20.3653C96.5493 20.2829 96.6317 20.2333 96.714 20.2508C96.7963 20.2683 96.846 20.3509 96.8286 20.4334C96.4936 21.9082 95.6883 22.5098 94.9756 22.7454Z" fill="#263238"/>
<path d="M91.8387 21.789C91.514 21.8964 91.2709 21.8553 91.2508 21.8524C91.0881 21.8231 90.9783 21.6645 91.0064 21.4986C91.0354 21.3357 91.1907 21.2269 91.3524 21.2533C91.3897 21.2601 92.0597 21.3294 92.574 20.2138C92.6451 20.0625 92.8233 19.994 92.9744 20.0655C93.1256 20.1369 93.1941 20.3155 93.123 20.4668C92.7308 21.3249 92.2266 21.6608 91.8387 21.789Z" fill="#263238"/>
<path d="M95.5661 18.9472C95.2701 19.045 94.9732 19.0825 94.7435 19.0817C94.5778 19.0821 94.4402 18.9455 94.4415 18.7758C94.4409 18.6099 94.5771 18.4722 94.7436 18.4746C94.7982 18.4758 96.0877 18.4617 96.1259 17.5066C96.131 17.3388 96.273 17.2089 96.4405 17.2142C96.608 17.2195 96.7379 17.3619 96.7328 17.5297C96.7016 18.3419 96.1379 18.7582 95.5661 18.9472Z" fill="#263238"/>
<path d="M90.4191 20.5232C90.3443 20.5479 90.2621 20.5111 90.2316 20.4382C90.2173 20.4045 89.8809 19.5893 90.245 18.897C90.4669 18.4787 90.8887 18.2019 91.5045 18.0783C91.5849 18.0612 91.6662 18.1143 91.6842 18.1977C91.7013 18.2784 91.6514 18.3588 91.5652 18.3777C91.0423 18.4834 90.6886 18.7057 90.5128 19.0418C90.215 19.6066 90.5066 20.3153 90.5094 20.324C90.5418 20.4027 90.5072 20.4908 90.4286 20.5232C90.4277 20.5203 90.4219 20.5222 90.4191 20.5232Z" fill="#263238"/>
<path d="M93.3253 17.0675C93.2909 17.0789 93.2526 17.0788 93.2153 17.0624C93.1397 17.0266 93.1044 16.9392 93.1391 16.8607C93.1448 16.8492 93.7484 15.5603 95.3685 15.9386C95.4508 15.9561 95.5004 16.0388 95.483 16.1212C95.4656 16.2036 95.3832 16.2532 95.3009 16.2357C93.9191 15.9128 93.4193 16.9757 93.4136 16.9872C93.3953 17.0284 93.3627 17.0552 93.3253 17.0675Z" fill="#263238"/>
<path d="M86.9358 22.9228C86.9358 22.9228 87.4466 25.1724 87.8421 25.6647C88.2375 26.157 90.829 27.6422 91.3424 28.0188C91.8557 28.3955 91.9476 28.4418 91.688 30.0099C91.4285 31.5781 88.4639 42.1485 88.9719 44.3991C89.4827 46.6487 90.2736 48.5693 92.448 47.3842C94.6253 46.1982 94.0263 39.9204 93.9173 36.292C93.8083 32.6637 93.4427 28.0275 93.14 27.1116C92.8382 26.1986 89.1368 24.8949 88.7322 24.7315C88.3304 24.5672 87.7946 23.4185 87.5861 22.7877C87.3786 22.1502 87.028 22.2661 86.9358 22.9228Z" fill="#FEDEA5"/>
<path d="M91.9349 47.773C91.4348 47.9382 90.9868 47.933 90.5966 47.7553C89.5989 47.3023 89.1413 45.821 88.827 44.4265C88.4406 42.7173 89.9909 36.4128 90.917 32.6468C91.2276 31.378 91.4765 30.3757 91.5404 29.9808C91.7825 28.5238 91.7242 28.4824 91.2729 28.1491C91.0923 28.0172 90.6993 27.7733 90.2422 27.4898C89.2477 26.8729 88.0066 26.1074 87.7248 25.7565C87.3189 25.2517 86.8403 23.1863 86.7891 22.954C86.7862 22.9358 86.7834 22.9176 86.7863 22.8974C86.8464 22.4814 87.0096 22.2326 87.2318 22.2103C87.3524 22.1992 87.5773 22.2526 87.7353 22.7308C87.9866 23.4911 88.5027 24.4643 88.7935 24.5822C88.8346 24.6006 88.914 24.6286 89.0231 24.6693C91.7332 25.6936 93.0893 26.4498 93.2892 27.0547C93.6081 28.0195 93.9659 32.7189 94.0741 36.2773C94.0895 36.7386 94.1086 37.2403 94.1335 37.7688C94.2922 41.4222 94.5078 46.4242 92.5251 47.5044C92.319 47.6237 92.1217 47.7113 91.9349 47.773ZM87.0859 22.9166C87.2331 23.5549 87.6531 25.1923 87.9559 25.5683C88.2052 25.8788 89.5238 26.6954 90.3968 27.2343C90.8778 27.5322 91.2545 27.7655 91.4275 27.8936C92.0241 28.329 92.0908 28.4922 91.8342 30.0306C91.7674 30.4361 91.5176 31.4451 91.2059 32.7206C90.2875 36.4617 88.7479 42.7211 89.1181 44.3623C89.4011 45.6041 89.8348 47.0805 90.7187 47.4785C91.172 47.6833 91.714 47.6064 92.3762 47.2469C94.1941 46.2564 93.9793 41.3627 93.8252 37.7908C93.8023 37.2585 93.7793 36.7549 93.7668 36.2926C93.6505 32.4398 93.2759 27.9983 92.997 27.1544C92.8847 26.8146 92.0837 26.156 88.9115 24.9585C88.8015 24.915 88.7183 24.885 88.6742 24.8676C88.1845 24.6685 87.6316 23.4104 87.4393 22.8286C87.3546 22.5722 87.2685 22.5144 87.2494 22.5144C87.2312 22.5172 87.1372 22.5994 87.0859 22.9166Z" fill="#263238"/>
<path d="M93.9183 36.2879C93.9075 35.9273 93.8939 35.558 93.8783 35.183L90.4974 34.9937C89.6281 38.6132 88.6624 43.0312 88.9729 44.395C89.4837 46.6446 90.2747 48.5652 92.4491 47.3801C94.6263 46.1941 94.0283 39.9191 93.9183 36.2879Z" fill="#F26F1F"/>
<path d="M91.9351 47.7733C91.4351 47.9386 90.9871 47.9333 90.5968 47.7556C89.5992 47.3026 89.1415 45.8214 88.8272 44.4269C88.5045 42.9969 89.5433 38.3374 90.3548 34.9575C90.3731 34.8876 90.4363 34.8379 90.511 34.842L93.891 35.0284C93.9685 35.0315 94.0306 35.094 94.0343 35.1727C94.0498 35.5477 94.0645 35.9199 94.0753 36.2805C94.0907 36.7419 94.1098 37.2435 94.1347 37.772C94.2934 41.4254 94.509 46.4275 92.5263 47.5077C92.3193 47.624 92.1219 47.7116 91.9351 47.7733ZM90.6167 35.1521C89.8177 38.4927 88.8146 43.0094 89.1213 44.3617C89.4042 45.6035 89.838 47.0799 90.7218 47.4779C91.1752 47.6827 91.7172 47.6058 92.3793 47.2463C94.1972 46.2558 93.9824 41.3621 93.8283 37.7902C93.8054 37.2579 93.7824 36.7543 93.7699 36.292C93.7609 35.9755 93.75 35.6532 93.7343 35.3261L90.6167 35.1521Z" fill="#263238"/>
<path d="M89.8853 37.6464C89.8805 37.6703 89.8756 37.6943 89.8708 37.7183C89.8583 37.7767 89.8448 37.8323 89.8322 37.8908C89.8042 38.0182 89.7791 38.1447 89.7501 38.2693C90.5764 38.1943 92.0135 38.1251 93.9968 38.2331C93.9886 38.025 93.9794 37.8235 93.9712 37.625C92.1237 37.5232 90.748 37.5753 89.8853 37.6464Z" fill="#263238"/>
<path d="M93.6287 45.5973C93.6932 45.3778 93.7492 45.1421 93.7985 44.8958C91.8912 45.5677 90.3555 45.6855 89.3082 45.6419C89.3806 45.8607 89.4587 46.0681 89.5426 46.2641C90.5649 46.2808 91.9485 46.1462 93.6287 45.5973Z" fill="#263238"/>
<path d="M89.1389 41.4746C89.1292 41.5321 89.1196 41.5896 89.1127 41.6462C89.104 41.7066 89.0934 41.7708 89.0846 41.8312C89.0701 41.9318 89.0594 42.0248 89.0468 42.1216C90.2161 41.8597 92.0346 41.6038 94.0713 41.8539C94.0745 41.6516 94.0768 41.4464 94.0762 41.2421C92.1008 41.0036 90.3427 41.2205 89.1389 41.4746Z" fill="#263238"/>
<path d="M98.3326 13.6576C98.3326 13.6576 100.537 14.3284 100.998 14.7576C101.459 15.1897 102.751 17.8839 103.089 18.424C103.427 18.964 103.468 19.0591 105.049 18.9136C106.629 18.7653 117.368 16.5576 119.57 17.2293C121.774 17.9 123.63 18.8267 122.293 20.9169C120.957 23.0071 114.749 21.9629 111.143 21.5926C107.536 21.2223 102.946 20.5286 102.057 20.1613C101.167 19.794 100.134 16.0015 100 15.5887C99.8672 15.1759 98.7607 14.5576 98.1447 14.3044C97.5344 14.0492 97.6758 13.7054 98.3326 13.6576Z" fill="#FEDEA5"/>
<path d="M121.021 21.9592C118.958 22.6412 115.391 22.2288 112.614 21.9072C112.087 21.848 111.59 21.7889 111.131 21.7423C107.595 21.3809 102.94 20.686 102.003 20.2993C101.416 20.0558 100.756 18.6477 99.9321 15.8658C99.8988 15.7554 99.875 15.6738 99.8607 15.6306C99.7646 15.3301 98.8314 14.744 98.0929 14.4386C97.628 14.2472 97.5901 14.0169 97.6086 13.899C97.6434 13.6766 97.9051 13.5327 98.3225 13.5033C98.3416 13.5034 98.3608 13.5034 98.379 13.5102C98.6086 13.5781 100.629 14.2041 101.103 14.6449C101.435 14.9538 102.107 16.2458 102.651 17.2833C102.9 17.757 103.113 18.1691 103.221 18.3411C103.531 18.836 103.567 18.8975 105.036 18.7603C105.434 18.7213 106.451 18.5481 107.736 18.3278C111.552 17.6707 117.94 16.572 119.616 17.0819C120.978 17.4977 122.422 18.0586 122.804 19.0888C123.009 19.6409 122.88 20.284 122.424 20.997C122.138 21.443 121.65 21.7512 121.021 21.9592ZM98.0576 13.8592C97.9455 13.8963 97.9091 13.9403 97.9062 13.9508C97.9052 13.9671 97.9577 14.0584 98.2054 14.1618C98.7698 14.3938 99.9834 15.0373 100.146 15.5394C100.16 15.5826 100.185 15.6671 100.219 15.7804C101.187 19.0356 101.786 19.8824 102.115 20.0196C102.934 20.3589 107.329 21.0501 111.159 21.4393C111.617 21.4859 112.118 21.5441 112.645 21.6062C116.191 22.0156 121.049 22.576 122.166 20.8332C122.574 20.1967 122.687 19.661 122.517 19.1934C122.18 18.2822 120.743 17.7415 119.527 17.3731C117.922 16.8846 111.579 17.9748 107.787 18.6272C106.494 18.8503 105.474 19.0244 105.063 19.0644C103.511 19.2099 103.354 19.1308 102.975 18.5244C102.848 18.3236 102.644 17.9278 102.38 17.4273C101.904 16.5176 101.188 15.141 100.894 14.8705C100.54 14.5404 98.94 14.0021 98.3162 13.8121C98.2042 13.8204 98.1208 13.8383 98.0576 13.8592Z" fill="#263238"/>
<path d="M111.145 21.5914C110.789 21.5557 110.418 21.5152 110.047 21.4718L110.102 18.0799C113.768 17.4722 118.239 16.822 119.572 17.2281C121.776 17.8988 123.632 18.8255 122.295 20.9157C120.959 23.0059 114.751 21.9617 111.145 21.5914Z" fill="#F26F1F"/>
<path d="M121.021 21.9596C118.958 22.6416 115.391 22.2292 112.614 21.9076C112.087 21.8484 111.59 21.7892 111.131 21.7427C110.771 21.7051 110.405 21.6665 110.031 21.6241C109.954 21.6142 109.894 21.5479 109.897 21.4702L109.952 18.0783C109.953 18.0045 110.003 17.9432 110.079 17.931C113.502 17.3618 118.216 16.6567 119.619 17.0813C120.98 17.4971 122.425 18.058 122.807 19.0883C123.012 19.6404 122.883 20.2835 122.427 20.9965C122.138 21.4434 121.647 21.7526 121.021 21.9596ZM111.16 21.4426C111.618 21.4892 112.119 21.5474 112.646 21.6095C116.192 22.0189 121.05 22.5792 122.167 20.8364C122.575 20.2 122.688 19.6643 122.518 19.1967C122.181 18.2855 120.744 17.7447 119.528 17.3764C118.203 16.9741 113.634 17.6538 110.251 18.2126L110.201 21.3408C110.525 21.3744 110.846 21.409 111.16 21.4426Z" fill="#263238"/>
<path d="M116.656 22.14C116.86 22.1522 117.06 22.1596 117.261 22.1669L117.535 17.1243C117.403 17.1296 117.269 17.1388 117.129 17.1498C117.102 17.1526 117.07 17.1535 117.042 17.1562C117.005 17.159 116.965 17.1627 116.927 17.1655L116.656 22.14Z" fill="#263238"/>
<path d="M113.916 17.4963C113.864 17.5038 113.81 17.5123 113.757 17.5169C113.617 17.5376 113.477 17.5553 113.337 17.576L113.058 21.8054C113.213 21.8212 113.369 21.8399 113.525 21.8586C113.568 21.8636 113.614 21.8676 113.661 21.8744L113.95 17.4916C113.938 17.4954 113.929 17.4954 113.916 17.4963Z" fill="#263238"/>
<path d="M120.697 17.6162C120.6 18.6228 120.413 20.4511 120.194 22.0155C120.416 21.9741 120.63 21.9258 120.827 21.867C121.022 20.4416 121.185 18.8606 121.28 17.8741C121.096 17.7815 120.899 17.6964 120.697 17.6162Z" fill="#263238"/>
<path d="M156.673 61.7655C157.343 61.8636 158.013 62.281 158.013 62.281C158.013 62.281 157.986 63.0664 156.835 64.7822C158.203 65.4675 159.472 66.2235 159.847 66.0453C160.583 65.6967 161.547 61.5443 161.899 60.3611C162.251 59.1807 163.216 58.1845 162.87 56.4907C162.523 54.794 161.532 55.0162 161.308 55.6235C161.085 56.2308 159.257 58.5793 158.14 59.3765C157.023 60.1708 156.164 60.873 156.164 60.873C156.164 60.873 156.003 61.6675 156.673 61.7655Z" fill="#F37630"/>
<path d="M159.865 66.1985C159.503 66.3182 158.785 65.961 157.582 65.3396C157.317 65.2035 157.04 65.0587 156.761 64.9178C156.722 64.8985 156.692 64.8639 156.681 64.8226C156.671 64.7813 156.678 64.7344 156.701 64.698C157.596 63.364 157.797 62.6041 157.842 62.3626C157.646 62.2517 157.142 61.9902 156.646 61.9176C156.425 61.8852 156.258 61.7869 156.144 61.6235C155.92 61.3044 156.005 60.8577 156.012 60.8395C156.02 60.805 156.038 60.7735 156.066 60.7515C156.074 60.7458 156.939 60.0379 158.049 59.2493C159.157 58.4617 160.95 56.1437 161.165 55.568C161.293 55.2222 161.618 54.9998 161.957 55.0249C162.193 55.0429 162.764 55.2183 163.018 56.4601C163.272 57.6991 162.862 58.5628 162.464 59.3939C162.301 59.7387 162.146 60.0614 162.043 60.4053C161.977 60.6286 161.886 60.962 161.78 61.3549C161.142 63.735 160.516 65.8937 159.91 66.1804C159.895 66.1852 159.879 66.1938 159.865 66.1985ZM157.05 64.7231C157.28 64.8389 157.504 64.9566 157.723 65.0696C158.578 65.5154 159.546 66.0162 159.778 65.9076C160.31 65.6552 161.104 62.6963 161.486 61.2762C161.594 60.8796 161.684 60.5432 161.75 60.32C161.859 59.9549 162.027 59.6054 162.187 59.2684C162.564 58.4794 162.951 57.6645 162.718 56.5244C162.569 55.8037 162.275 55.3577 161.931 55.3307C161.728 55.3147 161.527 55.458 161.446 55.6764C161.217 56.2951 159.394 58.6677 158.224 59.4983C157.266 60.179 156.495 60.7951 156.304 60.9508C156.293 61.0533 156.282 61.2902 156.396 61.4507C156.462 61.544 156.559 61.598 156.693 61.6176C157.387 61.7205 158.063 62.136 158.092 62.1553C158.14 62.1842 158.166 62.2361 158.161 62.2888C158.159 62.3185 158.121 63.0914 157.05 64.7231Z" fill="#263238"/>
<path d="M162.175 55.2477C162.58 57.3023 162.168 58.1478 160.693 61.3827C159.542 63.907 159.247 65.3302 159.177 66.0051C159.481 66.0867 159.714 66.1056 159.844 66.0466C160.58 65.698 161.544 61.5456 161.896 60.3623C162.248 59.1819 163.213 58.1857 162.867 56.4919C162.718 55.7616 162.452 55.3896 162.175 55.2477Z" fill="white"/>
<path d="M159.856 66.2015C159.698 66.2538 159.467 66.2377 159.138 66.1513C159.066 66.1338 159.017 66.0636 159.028 65.9898C159.109 65.2123 159.439 63.771 160.557 61.3185L160.642 61.1337C162.042 58.0674 162.417 57.2438 162.028 55.2766C162.016 55.2199 162.041 55.1606 162.087 55.1262C162.133 55.0918 162.195 55.0872 162.248 55.1142C162.499 55.2455 162.838 55.587 163.018 56.4603C163.272 57.6992 162.862 58.563 162.464 59.3941C162.301 59.7388 162.146 60.0615 162.043 60.4055C161.977 60.6287 161.886 60.9622 161.78 61.3551C161.142 63.7352 160.517 65.8939 159.91 66.1806C159.894 66.1892 159.876 66.1949 159.856 66.2015ZM159.345 65.8882C159.637 65.9515 159.746 65.925 159.778 65.9078C160.31 65.6554 161.105 62.6965 161.486 61.2764C161.594 60.8797 161.684 60.5434 161.75 60.3202C161.859 59.9551 162.028 59.6056 162.187 59.2686C162.564 58.4795 162.951 57.6646 162.718 56.5246C162.634 56.1177 162.517 55.8497 162.403 55.6767C162.661 57.4412 162.204 58.4419 160.915 61.264L160.829 61.4489C159.748 63.819 159.433 65.2105 159.345 65.8882Z" fill="#263238"/>
<path d="M113.292 52.4224C113.249 52.4366 113.197 52.4317 113.157 52.3999C113.091 52.3517 113.074 52.2548 113.122 52.1878C113.122 52.1878 113.361 51.8568 113.755 51.3143C113.803 51.2473 113.9 51.2313 113.968 51.2823C114.034 51.3305 114.051 51.4274 114 51.4954C113.604 52.035 113.37 52.368 113.37 52.368C113.347 52.3947 113.321 52.4129 113.292 52.4224Z" fill="white"/>
<path d="M112.385 53.2945C112.385 53.2945 119.457 42.8648 125.945 37.7367C132.434 32.6114 135.525 33.612 135.905 36.3618C136.281 39.1126 135.691 48.5725 134.628 54.0355C133.565 59.4986 131.665 68.538 131.665 68.538C131.665 68.538 137.816 73 138.421 73.5477C139.025 74.0924 136.282 75.1078 134.91 74.8138C133.819 74.5801 133.872 74.6839 131.465 74.0355C127.385 72.9367 126.907 72.1363 127.129 71.2097C127.847 68.2409 129.014 65.5709 128.775 62.3564C128.337 56.5174 128.522 48.7057 129.054 49.3797C129.054 49.3797 126.842 53.9443 122.338 57.3497C117.832 60.7561 114.376 61.4028 111.13 59.1406" fill="#73B4EA"/>
<path d="M137.301 74.691C136.494 74.9578 135.507 75.0985 134.874 74.9661C134.555 74.8989 134.335 74.8598 134.122 74.8217C133.611 74.7318 133.126 74.6459 131.422 74.1868C127.363 73.0938 126.72 72.2555 126.979 71.1793C127.162 70.4194 127.377 69.6711 127.588 68.9496C128.211 66.7852 128.799 64.7444 128.621 62.375C128.351 58.7394 128.279 53.1595 128.551 50.5873C127.592 52.1724 125.55 55.1158 122.425 57.4774C117.794 60.9793 114.281 61.53 111.036 59.2706C110.966 59.2234 110.951 59.1294 110.998 59.0595C111.045 58.9896 111.141 58.9737 111.208 59.0218C114.327 61.1954 117.731 60.6453 122.24 57.2352C125.831 54.5212 127.971 51.0314 128.662 49.7869C128.73 49.4515 128.812 49.2455 128.911 49.2094C128.946 49.198 129.062 49.1629 129.166 49.2946C129.203 49.3398 129.208 49.4022 129.184 49.4548C129.18 49.4625 129.089 49.6492 128.91 49.967C128.643 51.6685 128.541 57.3283 128.918 62.3568C129.1 64.7789 128.503 66.8485 127.875 69.0369C127.666 69.7574 127.454 70.5019 127.272 71.2551C127.1 71.97 127.283 72.7627 131.499 73.8964C133.189 74.3536 133.666 74.4357 134.171 74.5274C134.387 74.5646 134.611 74.6056 134.937 74.6738C136.078 74.9162 138.105 74.2303 138.339 73.7698C138.36 73.7277 138.359 73.7056 138.318 73.6681C137.727 73.1349 131.637 68.7133 131.575 68.67C131.526 68.6353 131.503 68.5758 131.515 68.5173C131.534 68.4282 133.426 59.4165 134.478 54.0148C135.553 48.4904 136.126 39.1034 135.754 36.3891C135.622 35.42 135.151 34.7453 134.397 34.4417C133.403 34.0386 130.995 33.9493 126.038 37.8625C119.643 42.9152 112.581 53.2807 112.51 53.384C112.463 53.4539 112.37 53.4718 112.301 53.4246C112.231 53.3774 112.213 53.2843 112.26 53.2145C112.331 53.1111 119.42 42.7045 125.851 37.6241C129.612 34.6527 132.686 33.4225 134.507 34.1592C135.368 34.5072 135.902 35.2637 136.053 36.3478C136.428 39.0832 135.853 48.5221 134.773 54.0704C133.782 59.1712 132.037 67.4919 131.831 68.4799C132.586 69.0261 137.945 72.9255 138.52 73.4414C138.662 73.5704 138.695 73.7383 138.61 73.9068C138.46 74.1931 137.936 74.4811 137.301 74.691Z" fill="#73B4EA"/>
<path d="M114.881 50.2549C114.835 50.2701 114.784 50.2613 114.743 50.2334C114.675 50.1823 114.663 50.0873 114.711 50.0204C116.195 48.038 118.303 45.3222 119.934 43.6491C119.99 43.5889 120.089 43.5882 120.146 43.646C120.207 43.7056 120.207 43.8015 120.15 43.8589C118.531 45.5214 116.432 48.2249 114.953 50.2024C114.935 50.2273 114.91 50.2454 114.881 50.2549Z" fill="white"/>
<path d="M126.503 53.168C126.463 53.1813 126.417 53.1773 126.376 53.1522C126.305 53.1088 126.283 53.0138 126.326 52.942L128.103 50.0515C128.075 49.4472 127.881 43.3616 130.556 39.2761C130.603 39.2062 130.695 39.1854 130.765 39.2326C130.835 39.2799 130.856 39.372 130.809 39.4418C128.061 43.6374 128.403 50.016 128.408 50.0784C128.409 50.11 128.403 50.1407 128.386 50.1656L126.587 53.0954C126.565 53.1346 126.537 53.1566 126.503 53.168Z" fill="white"/>
<path d="M135.569 47.98C135.552 47.9857 135.531 47.9894 135.511 47.9865C135.426 47.9824 135.364 47.9102 135.368 47.8259L135.459 46.3358C135.463 46.2514 135.535 46.1893 135.619 46.1934C135.704 46.1976 135.766 46.2697 135.762 46.3541L135.671 47.8441C135.67 47.9083 135.627 47.961 135.569 47.98Z" fill="white"/>
<path d="M135.74 45.1789C135.723 45.1846 135.702 45.1884 135.682 45.1854C135.597 45.1813 135.535 45.1092 135.539 45.0248L135.866 39.6294C135.87 39.545 135.942 39.4829 136.026 39.487C136.111 39.4911 136.173 39.5633 136.169 39.6476L135.842 45.043C135.838 45.1082 135.797 45.1599 135.74 45.1789Z" fill="white"/>
<path d="M134.905 74.8186C136.276 75.1097 139.023 74.0963 138.417 73.5525C137.813 73.0077 131.661 68.5428 131.661 68.5428C131.661 68.5428 132.164 66.1497 132.798 63.081C130.868 63.4536 129.568 63.0111 128.777 62.5185C128.968 65.6628 127.833 68.2936 127.125 71.2145C126.902 72.1411 127.38 72.9415 131.46 74.0403C133.867 74.6886 133.814 74.5849 134.905 74.8186Z" fill="#FEDEA5"/>
<path d="M137.301 74.6911C136.494 74.9579 135.507 75.0986 134.874 74.9662C134.555 74.899 134.335 74.8599 134.122 74.8218C133.611 74.7319 133.126 74.646 131.422 74.1869C127.363 73.0939 126.72 72.2556 126.979 71.1794C127.163 70.4224 127.376 69.6779 127.584 68.9574C128.194 66.839 128.769 64.8374 128.628 62.5295C128.625 62.4729 128.652 62.4193 128.703 62.3897C128.751 62.3611 128.811 62.3604 128.86 62.3922C129.586 62.8452 130.854 63.3049 132.771 62.9332C132.822 62.9228 132.872 62.9383 132.906 62.9748C132.941 63.0114 132.958 63.0632 132.945 63.1121C132.387 65.8205 131.928 68.0008 131.83 68.4772C132.585 69.0234 137.944 72.9228 138.519 73.4386C138.661 73.5676 138.694 73.7355 138.609 73.9041C138.46 74.1932 137.936 74.4812 137.301 74.6911ZM128.943 62.7895C129.027 65.03 128.467 66.9818 127.876 69.0399C127.669 69.7566 127.456 70.501 127.274 71.2514C127.102 71.9662 127.285 72.759 131.5 73.8927C133.191 74.3498 133.668 74.4319 134.173 74.5237C134.389 74.5608 134.613 74.6018 134.939 74.67C136.08 74.9125 138.107 74.2266 138.341 73.7661C138.362 73.7239 138.361 73.7019 138.32 73.6643C137.729 73.1311 131.639 68.7096 131.577 68.6662C131.528 68.6316 131.505 68.572 131.517 68.5136C131.517 68.5136 131.997 66.2336 132.606 63.2721C130.906 63.5496 129.706 63.1986 128.943 62.7895Z" fill="#263238"/>
<path d="M131.661 68.5429C131.661 68.5429 131.184 68.3812 130.958 69.3088C130.732 70.2364 130.698 71.0975 130.698 71.0975L127.641 69.3029C127.46 69.9315 127.28 70.5658 127.125 71.2145C126.902 72.1412 127.38 72.9416 131.46 74.0403C133.868 74.6887 133.814 74.585 134.905 74.8186C136.276 75.1098 139.024 74.0963 138.417 73.5525C137.812 73.0049 131.661 68.5429 131.661 68.5429Z" fill="#F37630"/>
<path d="M137.301 74.6909C136.494 74.9578 135.508 75.0985 134.874 74.966C134.555 74.8988 134.335 74.8598 134.122 74.8217C133.611 74.7318 133.127 74.6458 131.422 74.1867C127.364 73.0938 126.72 72.2555 126.979 71.1793C127.143 70.5056 127.332 69.8359 127.496 69.261C127.51 69.215 127.542 69.1787 127.584 69.1615C127.629 69.1435 127.675 69.1474 127.718 69.1716L130.565 70.8408C130.592 70.5158 130.656 69.9099 130.811 69.2707C130.913 68.8538 131.08 68.5782 131.309 68.4514C131.514 68.3389 131.691 68.3922 131.709 68.399C131.723 68.4038 131.739 68.4115 131.751 68.4202C132.003 68.6022 137.916 72.8938 138.52 73.4385C138.661 73.5675 138.694 73.7354 138.61 73.9039C138.46 74.1931 137.936 74.481 137.301 74.6909ZM127.732 69.5312C127.582 70.0601 127.414 70.6523 127.27 71.2493C127.099 71.9642 127.281 72.7569 131.497 73.8906C133.187 74.3478 133.664 74.4299 134.169 74.5216C134.386 74.5588 134.61 74.5998 134.935 74.668C136.077 74.9104 138.104 74.2245 138.337 73.764C138.358 73.7219 138.357 73.6998 138.316 73.6623C137.744 73.1454 132.039 69.0023 131.598 68.6815C131.572 68.6776 131.512 68.6812 131.445 68.7194C131.344 68.7785 131.201 68.9344 131.102 69.3407C130.883 70.2405 130.849 71.092 130.848 71.0987C130.846 71.1505 130.814 71.1993 130.769 71.227C130.723 71.2518 130.666 71.2516 130.619 71.2255L127.732 69.5312Z" fill="#F37630"/>
<path d="M131.462 74.0402C133.869 74.6886 133.816 74.5849 134.906 74.8186C136.141 75.0815 138.486 74.2873 138.505 73.7282C134.067 74.9396 129.301 72.6523 127.099 71.364C126.964 72.2266 127.602 72.9998 131.462 74.0402Z" fill="white"/>
<path d="M137.278 74.7049C136.493 74.9642 135.534 75.1088 134.874 74.9657C134.556 74.8985 134.336 74.8594 134.122 74.8213C133.611 74.7314 133.127 74.6455 131.423 74.1864C127.496 73.1265 126.8 72.312 126.947 71.34C126.956 71.2892 126.986 71.2471 127.031 71.2261C127.077 71.2042 127.129 71.2063 127.173 71.2333C129.536 72.6152 134.143 74.76 138.462 73.5818C138.509 73.5695 138.557 73.5792 138.595 73.6081C138.633 73.637 138.655 73.6841 138.652 73.733C138.647 73.8816 138.55 74.0319 138.365 74.1761C138.12 74.369 137.726 74.5567 137.278 74.7049ZM127.233 71.6161C127.261 72.2041 127.876 72.9177 131.501 73.8922C133.192 74.3493 133.668 74.4314 134.174 74.5232C134.39 74.5603 134.614 74.6013 134.939 74.6695C135.851 74.8633 137.468 74.4504 138.127 73.9768C133.95 74.9167 129.611 72.977 127.233 71.6161Z" fill="#263238"/>
</svg>
