<svg width="171" height="153" viewBox="0 0 171 153" fill="none" xmlns="http://www.w3.org/2000/svg">
<path d="M12.5 59.8156C-13 64.1955 -19.5 49.2309 -24 40.6536V-13H64V85H48.5C40.1667 74.4153 38 55.4358 12.5 59.8156Z" fill="#808AFF"/>
<path d="M115.5 59.8156C141 64.1955 147.5 49.2309 152 40.6536V-13H64V85H79.5C87.8333 74.4153 90 55.4357 115.5 59.8156Z" fill="#808AFF"/>
<g clip-path="url(#clip0_471_5)">
<path d="M157.386 48H154V65H157.386V48Z" fill="#9BA3FF"/>
<path d="M162.693 53.7142H159.307V64.9997H162.693V53.7142Z" fill="#9BA3FF"/>
<path d="M168.007 59.1H164.621V65H168.007V59.1Z" fill="#9BA3FF"/>
</g>
<g clip-path="url(#clip1_471_5)">
<path d="M92.5 153C111.554 153 127 150.314 127 147C127 143.686 111.554 141 92.5 141C73.4462 141 58 143.686 58 147C58 150.314 73.4462 153 92.5 153Z" fill="#808AFF"/>
</g>
<path d="M86.6817 69.1561C86.6817 69.1561 85.3302 84.0966 90.9285 83.8716C96.9339 83.6269 95.3185 69.1561 95.3185 69.1561C94.5337 66.8237 94.221 65.4405 94.5727 62.9939H87.2809C87.6327 65.4405 87.4633 66.8237 86.6817 69.1561Z" fill="#FDBCA0"/>
<path d="M87.4274 65.884C88.2546 66.1319 89.0883 66.3603 89.9514 66.432C90.7688 66.5005 91.609 66.4483 92.4232 66.3603C93.1006 66.2852 93.8236 66.1645 94.501 65.9395C94.3935 65.0522 94.4098 64.1388 94.5759 62.9905H87.2841C87.4437 64.1159 87.4925 65.0163 87.4274 65.884Z" fill="#F0A38B"/>
<path d="M90.9283 65.0327C93.0094 65.0327 95.0122 64.2107 96.4778 62.7297C98.2234 60.9681 99.5912 59.0043 99.9918 56.698C100.506 53.736 99.5065 50.7772 97.3245 48.3959H84.5288C82.3468 50.774 81.347 53.736 81.8616 56.698C82.2621 59.0043 83.6332 60.9681 85.3756 62.7297C86.8444 64.2074 88.8473 65.0327 90.9283 65.0327Z" fill="#FDBCA0"/>
<path d="M91.5635 70.8982C91.2997 71.1885 91.0522 71.5049 90.8177 71.8213C90.5344 71.6256 90.3097 71.3875 90.0622 71.1428C90.0394 71.12 89.9938 71.1428 90.0035 71.1754C90.1436 71.5604 90.4367 71.8735 90.7363 72.141C90.8014 72.1965 90.8926 72.203 90.9578 72.141C91.2737 71.8311 91.5831 71.469 91.8273 71.0971C91.9315 70.9438 91.6905 70.7579 91.5635 70.8982Z" fill="#DF8370"/>
<path d="M98.6046 70.3273C96.6603 70.4936 94.7421 70.81 92.85 71.2928C92.736 71.3222 92.7848 71.4951 92.8988 71.469C94.7812 71.0514 96.6831 70.7676 98.6046 70.6372C98.8065 70.6241 98.8033 70.3109 98.6046 70.3273Z" fill="#DF8370"/>
<path d="M83.2491 70.3273C85.1934 70.4936 87.1116 70.81 89.0037 71.2928C89.1177 71.3222 89.0689 71.4951 88.9549 71.469C87.0725 71.0514 85.1706 70.7676 83.2491 70.6372C83.0504 70.6241 83.0504 70.3109 83.2491 70.3273Z" fill="#DF8370"/>
<path d="M83.5844 43.4702C80.865 45.0295 78.9501 47.4858 78.9175 50.7871C78.8849 54.5092 83.4118 60.4365 83.3499 60.2897C81.8453 56.6687 81.4512 51.6842 85.2062 49.1887C85.5808 48.9407 86.0497 48.7972 86.3852 48.5069C86.3754 46.5398 85.2909 44.6347 83.5844 43.4702Z" fill="#3F4553"/>
<path d="M98.0049 43.4702C100.724 45.0295 102.639 47.4858 102.672 50.7871C102.704 54.5092 100.48 57.8203 98.2654 60.6322C98.8289 59.4056 100.135 51.6809 96.3798 49.1887C96.0053 48.9407 95.5363 48.7972 95.2009 48.5069C95.2139 46.5398 96.3016 44.6347 98.0049 43.4702Z" fill="#424495"/>
<path d="M137.05 41.4999C134.973 40.4658 132.546 40.244 130.286 40.7039C129.192 40.9257 128.156 41.3139 127.169 41.8391C126.515 42.1849 125.85 42.6808 125.088 42.7395C124.163 42.808 123.353 42.2045 122.665 41.6695C120.529 40.0058 118.357 38.5477 115.608 38.1464C114.279 37.9507 112.794 38.0942 111.765 38.9098C110.71 37.5136 109.137 36.5186 107.404 36.1533C105.112 35.6705 102.933 36.3588 101.132 37.7419C100.116 37.2428 98.3376 36.5251 98.1129 36.4632C91.3389 34.5972 82.0898 39.3306 83.2882 47.313C84.3174 54.1732 92.99 57.344 98.9987 55.9348C100.295 58.3912 103.402 58.962 105.796 57.6833C105.978 57.8236 106.16 57.9638 106.346 58.1008C110.166 60.9063 114.611 62.7298 119.412 61.9012C121.236 61.5848 122.942 60.9258 124.512 59.9798C126.004 61.102 127.967 61.4576 129.775 60.5898C131.12 59.9472 132.022 58.7598 132.344 57.4158C132.367 57.4158 132.39 57.4158 132.413 57.4158C136.405 57.3669 140.639 55.3802 141.659 51.1884C142.587 47.3782 140.522 43.2255 137.05 41.4999Z" fill="#4E5567"/>
<path d="M118.897 40.2571C120.21 41.3303 120.988 42.8015 120.171 44.4228C119.506 45.744 118.311 46.7063 117.441 47.8774C116.422 49.2475 116.246 51.0058 117.917 52.0072C119.562 52.9924 121.623 51.7658 122.994 50.8361C124.688 49.6846 126.505 46.354 127.964 44.9252C134.445 38.5803 140.88 45.3623 140.906 45.3851C140.066 43.7345 138.724 42.335 137.05 41.4999C134.972 40.4658 132.546 40.244 130.286 40.704C129.192 40.9258 128.156 41.314 127.169 41.8392C126.515 42.185 125.85 42.6808 125.088 42.7395C124.163 42.808 123.352 42.2045 122.665 41.6696C120.529 40.0059 118.357 38.5477 115.608 38.1465C114.308 37.9573 112.859 38.0943 111.833 38.8641C114.071 37.9931 117.103 38.7858 118.897 40.2571Z" fill="#3F4553"/>
<path d="M136.158 56.3394C134.572 56.5253 133.087 56.4373 131.628 55.7881C130.999 57.4224 129.713 59.0731 127.895 59.3308C126.674 59.5037 125.231 59.122 124.981 57.8269C116.396 64.8275 106.772 57.0179 105.844 55.5532C103.167 57.3017 99.7931 55.1683 98.7932 52.4379C96.7545 53.2306 94.4032 52.9859 92.4231 52.1345C88.7332 50.5524 86.688 46.1909 87.9777 42.3416C89.0524 39.1415 91.915 36.9526 95.0871 36.062C88.9026 36.0261 82.2621 40.4757 83.288 47.3131C84.3171 54.1733 92.9865 57.3441 98.9984 55.9349C100.295 58.3913 103.402 58.9622 105.795 57.6834C105.978 57.8237 106.16 57.9639 106.346 58.101C110.166 60.9064 114.611 62.7299 119.412 61.9013C121.235 61.5849 122.942 60.926 124.512 59.9799C126.003 61.1021 127.967 61.4577 129.774 60.59C131.12 59.9473 132.022 58.7599 132.344 57.4159C132.367 57.4159 132.39 57.4159 132.412 57.4159C134.318 57.3931 136.275 56.9266 137.916 55.9936C137.34 56.1665 136.741 56.2709 136.158 56.3394Z" fill="#3F4553"/>
<path d="M88.642 58.4467C87.5022 58.6359 85.6491 58.6979 84.5972 57.5692C84.3887 57.3441 84.1054 57.5985 84.3659 57.8236C84.4083 57.8595 84.4506 57.8921 84.4929 57.9247C84.3692 57.9606 84.2389 57.9769 84.1021 57.9671C84.0989 57.9671 84.0989 57.9704 84.1021 57.9737C84.2682 58.0291 84.4376 58.0454 84.6037 58.0128C84.6069 58.0161 84.6102 58.0193 84.6135 58.0193C84.4702 58.1139 84.2975 58.1531 84.1282 58.2085C84.1249 58.2085 84.1249 58.2118 84.1282 58.2151C84.3366 58.2346 84.5548 58.2085 84.7274 58.0976C84.747 58.1107 84.7665 58.1172 84.7861 58.1303C84.6558 58.2314 84.5092 58.3064 84.3431 58.3456C84.3269 58.3488 84.3301 58.3749 84.3464 58.3749C84.5581 58.3847 84.76 58.3325 84.9294 58.2151C84.9652 58.2346 85.0043 58.251 85.0401 58.2705C84.9196 58.3586 84.7958 58.4369 84.6558 58.5021C84.6428 58.5087 84.6493 58.5315 84.6623 58.5315C84.8479 58.538 85.0108 58.4434 85.1573 58.3325C85.2029 58.3553 85.2485 58.3717 85.2974 58.3912C85.2355 58.4532 85.1638 58.5119 85.0954 58.5706C85.0857 58.5804 85.0954 58.5935 85.1085 58.5935C85.2257 58.5641 85.3332 58.5152 85.4244 58.4467C86.4698 58.8773 87.6943 58.8903 88.743 58.5119C88.8537 58.4663 88.769 58.4271 88.642 58.4467Z" fill="#3F4553"/>
<path d="M93.3219 58.4467C94.4618 58.6359 96.3149 58.6979 97.3668 57.5692C97.5752 57.3441 97.8585 57.5985 97.598 57.8236C97.5557 57.8595 97.5133 57.8921 97.471 57.9247C97.598 57.9606 97.725 57.9769 97.8618 57.9671C97.8651 57.9671 97.8651 57.9704 97.8618 57.9737C97.6957 58.0291 97.5264 58.0454 97.3603 58.0128C97.357 58.0161 97.3538 58.0193 97.3505 58.0193C97.4938 58.1139 97.6664 58.1531 97.8357 58.2085C97.839 58.2085 97.839 58.2118 97.8357 58.2151C97.6273 58.2346 97.4091 58.2085 97.2365 58.0976C97.217 58.1107 97.1974 58.1172 97.1779 58.1303C97.3082 58.2314 97.4547 58.3064 97.6208 58.3456C97.6371 58.3488 97.6338 58.3749 97.6175 58.3749C97.4059 58.3847 97.2039 58.3325 97.0346 58.2151C96.9988 58.2346 96.9597 58.251 96.9239 58.2705C97.0444 58.3586 97.1681 58.4369 97.3082 58.5021C97.3212 58.5087 97.3147 58.5315 97.3016 58.5315C97.116 58.538 96.9532 58.4434 96.8066 58.3325C96.761 58.3553 96.7154 58.3717 96.6698 58.3912C96.7317 58.4532 96.8034 58.5119 96.8718 58.5706C96.8815 58.5804 96.8718 58.5935 96.8587 58.5935C96.7415 58.5641 96.634 58.5152 96.5428 58.4467C95.4974 58.8773 94.2729 58.8903 93.221 58.5119C93.1135 58.4663 93.1949 58.4271 93.3219 58.4467Z" fill="#3F4553"/>
<path d="M91.7001 60.8248C91.166 61.1021 90.6352 61.213 90.0848 60.8803C90.0457 60.8575 90.0001 60.9129 90.0359 60.9455C90.5082 61.3663 91.3484 61.474 91.8206 60.9814C91.8988 60.8966 91.8011 60.7726 91.7001 60.8248Z" fill="#3F4553"/>
<path d="M92.9213 62.7493C92.2536 62.9483 91.5958 63.0233 90.9444 62.994C90.2931 63.0233 89.6352 62.9483 88.9676 62.7493C88.9513 62.7428 88.9383 62.7721 88.9546 62.7787C89.5961 63.0527 90.2703 63.1995 90.9444 63.2158C91.6186 63.1995 92.2927 63.0527 92.9343 62.7787C92.9506 62.7721 92.9375 62.746 92.9213 62.7493Z" fill="#3F4553"/>
<path d="M87.883 60.0451C87.8277 60.019 87.7691 59.9962 87.7104 59.9799C86.9647 59.7874 86.0821 59.4221 85.3037 59.5558C84.7533 59.6504 84.6263 60.3192 84.939 60.7139C85.2744 61.138 85.9323 61.2587 86.4403 61.2978C86.9516 61.3369 87.7528 61.3924 88.1338 60.9912C88.479 60.6291 88.2445 60.2213 87.883 60.0451Z" fill="#FBAD8B"/>
<path d="M93.9794 60.0451C94.0348 60.019 94.0934 59.9962 94.1521 59.9799C94.8978 59.7874 95.7804 59.4221 96.5588 59.5558C97.1092 59.6504 97.2362 60.3192 96.9235 60.7139C96.5881 61.138 95.9302 61.2587 95.4222 61.2978C94.9109 61.3369 94.1097 61.3924 93.7287 60.9912C93.3835 60.6291 93.6212 60.2213 93.9794 60.0451Z" fill="#FBAD8B"/>
<path d="M81.0931 55.1616C80.3213 55.0474 79.494 55.3671 79.6341 56.2838C79.7448 57.0145 80.5297 57.742 81.7282 57.5234C81.4025 56.7666 81.1778 55.9706 81.0931 55.1616Z" fill="#F9CDB9"/>
<path d="M80.3472 55.8794C80.5589 55.7032 80.8879 55.625 81.1712 55.6706C81.1549 55.5825 81.1451 55.4912 81.1321 55.4031C80.7446 55.3672 80.2886 55.5271 80.0672 55.8076C79.7219 56.248 79.9825 56.7373 80.3635 57.0375C80.4189 57.0831 80.497 57.0114 80.4449 56.9559C80.1681 56.6623 79.976 56.1893 80.3472 55.8794Z" fill="#F8C4AB"/>
<path d="M81.3244 56.3686C81.1225 56.1859 80.8587 56.0848 80.5558 56.0979C80.4874 56.1011 80.4614 56.2153 80.5395 56.2251C80.8163 56.2642 81.0541 56.4078 81.2006 56.6296C81.0313 56.7209 80.9075 56.9199 81.0801 57.083C81.2169 57.2135 81.4188 57.2429 81.611 57.2233C81.5035 56.9427 81.4025 56.6589 81.3244 56.3686Z" fill="#F8C4AB"/>
<path d="M81.0248 57.3114C81.0216 57.3081 81.0151 57.3114 81.0183 57.3146C81.1421 57.6213 81.318 58.3389 80.8946 58.4857C80.6112 58.5836 80.5852 58.2182 80.6275 58.0258C80.6666 57.8496 80.7643 57.6669 80.8457 57.5104C80.8457 57.5104 80.6503 57.468 80.4712 57.3766C80.2269 57.5854 80.139 57.8953 80.1814 58.2215C80.2204 58.5184 80.4093 58.8446 80.7448 58.8544C81.0444 58.8641 81.2593 58.6064 81.3049 58.3324C81.357 57.9768 81.2137 57.6017 81.0248 57.3114Z" fill="#FDCA27"/>
<path d="M143.345 113.492C141.515 111.309 137.555 111.133 134.956 110.862C127.143 110.047 119.132 110.249 111.315 110.882C107.424 111.198 103.551 111.671 99.6955 112.295C96.9044 112.748 93.7878 113.064 91 113.958C88.2122 113.064 85.0955 112.745 82.3045 112.295C78.4518 111.668 74.5763 111.195 70.6845 110.882C62.8684 110.249 54.8536 110.047 47.0439 110.862C44.4483 111.133 40.4849 111.309 38.6546 113.492C36.8862 115.599 39.0682 118.153 40.7487 119.494C43.0707 121.347 46.0181 122.26 48.8319 123.06C52.3654 124.058 55.9804 124.736 59.6149 125.252C75.8823 127.548 84.7145 125.855 93.2178 125.751C93.5435 126.165 93.8496 126.596 94.1297 127.043C102.75 127.098 113.823 126.41 122.382 125.252C126.02 124.759 129.631 124.061 133.165 123.06C135.982 122.264 138.926 121.35 141.248 119.494C142.929 118.153 145.111 115.599 143.345 113.492Z" fill="#93BFA8"/>
<path d="M131.803 115.002C132.074 114.656 133.712 114.229 134.357 113.942C131.318 114.187 128.267 114.552 125.235 114.865C119.467 115.459 113.693 116.989 108.228 118.904C105.613 119.82 103.004 120.783 100.405 121.748C98.3471 122.512 96.3117 123.347 94.3804 124.387C94.6768 124.296 94.9732 124.205 95.2695 124.117C98.3504 123.21 110.905 116.408 134.152 115.57C133.614 115.452 131.699 115.136 131.803 115.002Z" fill="#66A986"/>
<path d="M50.5384 114.523C50.2681 114.177 48.6299 113.749 47.9851 113.462C51.0236 113.707 54.0752 114.072 57.1072 114.386C62.8749 114.979 68.649 116.509 74.1138 118.424C76.729 119.341 79.3376 120.303 81.9365 121.269C83.9948 122.032 86.0302 122.867 87.9614 123.908C87.6651 123.816 87.3687 123.725 87.0724 123.637C83.9915 122.73 71.4368 115.929 48.1903 115.09C48.7244 114.973 50.6393 114.656 50.5384 114.523Z" fill="#66A986"/>
<path d="M98.8585 121.735C97.5493 121.21 96.1652 121.197 94.8918 121.742C92.7163 122.678 90.0491 121.243 87.7889 121.5C85.7079 121.739 84.441 124.11 86.0335 125.624C86.4178 125.989 90.2803 127.392 96.3997 124.534C97.0706 124.221 97.7252 124.042 98.484 124.051C98.6599 124.055 98.826 124.221 99.0116 124.201C99.4089 124.153 99.7346 124.081 99.9561 123.696C100.477 122.789 99.6076 122.035 98.8585 121.735Z" fill="#FDB597"/>
<path d="M83.5844 126.547C84.6884 125.669 86.0139 125.258 87.385 125.418C89.7363 125.692 91.8825 123.552 94.1231 123.151C96.1846 122.782 98.0768 124.691 96.9825 126.602C96.7187 127.062 93.4164 129.512 86.7369 128.527C86.0041 128.419 85.3267 128.436 84.6037 128.661C84.4376 128.713 84.3236 128.922 84.138 128.954C83.7439 129.023 83.4117 129.046 83.0893 128.742C82.3338 128.021 82.9526 127.049 83.5844 126.547Z" fill="#FDBCA0"/>
<path d="M127.967 72.9565C127.214 73.3447 126.423 73.7818 125.684 74.1896C126.075 73.8699 128.244 71.6582 129.087 71.1134C129.178 71.0547 128.963 70.1576 126.745 71.9322C126.084 72.4607 125.303 72.9956 124.681 73.573C125.472 72.0692 126.133 70.5458 127.169 69.1692C127.211 69.1137 127.198 69.0517 127.162 69.0093C126.951 68.843 126.42 69.0322 126.182 69.2866C125.759 69.7368 124.15 71.4788 123.368 73.3153C123.381 72.6857 123.326 71.6647 122.88 71.4559C122.6 71.3222 122.134 71.4983 121.834 71.5212C121.245 71.5636 120.473 71.6484 119.923 71.4135C119.841 71.3809 119.636 71.3548 119.711 71.6256C119.962 72.5128 121.199 72.6238 121.968 72.8195C122.228 73.4523 121.496 74.4897 121.033 74.8029C120.281 75.315 119.183 74.8126 119.372 73.8079C119.538 72.9239 120.066 72.5226 119.6 71.6549C119.447 71.3678 118.789 71.1069 118.936 71.5701C119.314 72.7542 118.229 73.7492 118.089 74.8942C117.978 75.8011 118.457 76.6068 118.939 77.3343C118.91 77.4093 118.887 77.4843 118.861 77.5561C118.206 78.6913 117.698 79.8885 117.33 81.1412C118.17 81.4185 120.639 81.2423 120.629 81.2227C120.639 81.2423 120.926 79.4873 121.584 78.7468C122.303 77.9345 123.209 77.3082 124.075 76.6688C125.895 75.3215 127.745 74.0134 129.621 72.7412C129.729 72.6727 129.641 72.092 127.967 72.9565Z" fill="#FDBCA0"/>
<path d="M54.2314 72.9565C54.9837 73.3447 55.7751 73.7818 56.5144 74.1896C56.1236 73.8699 53.9546 71.6582 53.1111 71.1134C53.0199 71.0547 53.2349 70.1576 55.4527 71.9322C56.1138 72.4607 56.8954 72.9956 57.5175 73.573C56.7261 72.0692 56.065 70.5458 55.0293 69.1692C54.987 69.1137 55 69.0517 55.0358 69.0093C55.2475 68.843 55.7784 69.0322 56.0161 69.2866C56.4395 69.7368 58.0483 71.4788 58.8299 73.3153C58.8169 72.6857 58.8723 71.6647 59.3184 71.4559C59.5985 71.3222 60.0642 71.4983 60.3638 71.5212C60.9533 71.5636 61.7251 71.6484 62.2755 71.4135C62.357 71.3809 62.5621 71.3548 62.4872 71.6256C62.2365 72.5128 60.9989 72.6238 60.2303 72.8195C59.9698 73.4523 60.7025 74.4897 61.165 74.8029C61.9173 75.315 63.0148 74.8126 62.8259 73.8079C62.6598 72.9239 62.1322 72.5226 62.598 71.6549C62.751 71.3678 63.4089 71.1069 63.2623 71.5701C62.8845 72.7542 63.969 73.7492 64.1091 74.8942C64.2198 75.8011 63.7411 76.6068 63.2591 77.3343C63.2884 77.4093 63.3112 77.4843 63.3372 77.5561C63.9918 78.6913 64.4999 79.8885 64.8679 81.1412C64.0277 81.4185 61.5591 81.2423 61.5688 81.2227C61.5591 81.2423 61.2725 79.4873 60.6146 78.7468C59.8949 77.9345 58.9895 77.3082 58.1232 76.6688C56.3027 75.3215 54.4529 74.0134 52.577 72.7412C52.4695 72.6727 52.5575 72.092 54.2314 72.9565Z" fill="#FDBCA0"/>
<path d="M116.451 79.9864C115.23 83.1409 111.088 94.7867 109.358 99.7256C108.329 97.0833 105.548 85.6104 103.206 72.2911C102.477 68.1514 97.8164 68.7419 95.3218 69.1562C95.1426 71.9355 92.4493 79.6407 91.0033 79.657C89.5574 79.6407 86.6914 72.4803 86.6849 69.1562C84.1935 68.7419 79.5299 68.1514 78.8004 72.2911C76.4555 85.6104 73.6776 97.0865 72.6484 99.7256C70.9158 94.7867 66.7765 83.1409 65.5553 79.9864C63.9888 80.7269 62.2562 81.1347 60.5269 81.2358C61.8654 84.8013 66.2848 110.05 72.7982 110.05C75.6218 110.05 77.4098 107.046 80.2887 95.9154C80.432 97.7748 80.4809 101.347 80.4092 105.102C80.3571 107.806 78.491 110.931 75.9931 110.327C75.4883 110.207 74.8304 110.588 75.4557 111.267C75.6251 111.453 75.8433 111.59 76.068 111.694C80.0575 113.586 80.2138 116.415 82.5684 118.062C83.9916 119.057 85.7437 119.37 87.4144 119.709C89.2252 120.075 91.0913 120.349 92.9346 120.071C95.9992 119.612 98.3798 117.56 100.917 115.955C102.333 115.058 103.773 114.34 105.437 114.095C109.72 113.466 109.436 110.438 108.541 110.5C105.541 110.706 101.591 106.876 101.568 102.661C101.552 99.8561 101.607 97.3671 101.718 95.9154C104.597 107.046 106.385 110.05 109.208 110.05C115.722 110.05 120.141 84.8013 121.48 81.2358C119.75 81.1347 118.018 80.7237 116.451 79.9864Z" fill="#F2EDE4"/>
<path d="M99.2203 91.0124C99.1877 91.0352 99.1616 91.0581 99.1356 91.0809C98.6047 91.5996 98.1911 92.2226 97.67 92.7511C97.149 93.2763 96.4748 93.7167 95.7355 93.7134C93.9606 93.7036 93.0715 91.5702 92.0033 90.4839C90.3619 88.8202 88.7694 92.6108 87.5481 93.3546C86.2943 94.1179 85.4443 93.658 84.5194 92.7544C83.9527 92.1998 83.4707 91.5767 82.9464 90.983C82.8096 90.8264 82.4969 90.9928 82.5816 91.1951C83.1939 92.6695 84.578 95.1161 86.405 95.1553C87.5253 95.1781 88.4437 94.5355 89.1797 93.746C89.5412 93.3578 90.5378 91.2733 91.1859 91.5474C91.3064 91.5996 91.3911 91.7072 91.4725 91.8116C91.7949 92.2357 92.0945 92.6826 92.4397 93.0871C92.6189 93.2959 93.1367 93.6417 93.1367 93.9287C93.8694 94.6757 94.8758 95.2629 95.9147 95.1357C96.9764 95.0052 97.8166 94.1734 98.4321 93.2959C98.8685 92.6728 99.2365 92.0008 99.5264 91.2962C99.5687 91.1951 99.6045 91.0678 99.5296 90.9863C99.4482 90.9015 99.3245 90.9406 99.2203 91.0124Z" fill="#D9C9AC"/>
<g clip-path="url(#clip2_471_5)">
<path d="M158.99 107.955L170.135 104.22L164.548 87.8198L153.403 91.5555C152.966 91.7012 152.729 92.1707 152.88 92.6038L157.933 107.433C158.08 107.866 158.553 108.101 158.99 107.955Z" fill="#3F4553"/>
<path d="M158.998 107.631L170.421 103.803L165.038 88.006L153.615 91.8348C153.333 91.9279 153.182 92.2314 153.276 92.5147L158.312 107.296C158.41 107.575 158.716 107.725 158.998 107.631Z" fill="#DDDDE3"/>
<path d="M159.239 107.551L170.662 103.722L165.279 87.9252L153.856 91.754C153.574 91.8471 153.423 92.1506 153.517 92.4339L158.553 107.215C158.651 107.494 158.957 107.648 159.239 107.551Z" fill="#E2E5FF"/>
<path d="M159.855 107.664L171 103.928L165.413 87.5324L154.268 91.2681C153.831 91.4138 153.594 91.8833 153.745 92.3164L158.798 107.146C158.945 107.579 159.418 107.81 159.855 107.664Z" fill="#4E5567"/>
<path d="M164.789 87.742L164.549 87.8223L170.136 104.222L170.376 104.142L164.789 87.742Z" fill="#3F4553"/>
<path d="M166.381 100.553L166.63 100.027L167.152 100.294L163.071 88.3176C162.997 88.1072 162.814 88.1234 162.602 88.1962C162.389 88.2691 162.23 88.3662 162.304 88.5767L166.381 100.553Z" fill="#93BFA8"/>
<path d="M141.338 92.0902L148.84 83.2699L147.323 82.0017L139.822 90.8221L141.338 92.0902Z" fill="#3F4553"/>
<path d="M139.821 90.8191L141.335 92.0859L139.147 93.2799C139.074 93.3203 138.976 93.2353 139 93.1584L139.821 90.8191Z" fill="#F2EDE4"/>
<path d="M139.151 93.2838L139.743 92.96L139.229 92.5269L139.009 93.1583C138.98 93.2352 139.078 93.3202 139.151 93.2838Z" fill="#3F4553"/>
<path d="M140.836 91.6701L148.337 82.8497L147.822 82.4192L140.321 91.2396L140.836 91.6701Z" fill="#4E5567"/>
</g>
<g clip-path="url(#clip3_471_5)">
<path d="M58.5028 7C48.8335 7 41 14.8335 41 24.5028C41 34.1665 48.8335 42.0055 58.5028 42.0055C68.1665 42.0055 76.0055 34.172 76.0055 24.5028C76 14.8335 68.1665 7 58.5028 7ZM58.5028 39.0452C50.4708 39.0452 43.9603 32.5347 43.9603 24.5028C43.9603 16.4708 50.4708 9.96031 58.5028 9.96031C66.5347 9.96031 73.0452 16.4708 73.0452 24.5028C73.0452 32.5347 66.5347 39.0452 58.5028 39.0452Z" fill="#808AFF"/>
<path d="M71.9209 30.1097C75.0195 22.6998 71.5244 14.1809 64.1145 11.0824C56.7046 7.98378 48.1857 11.4788 45.0872 18.8887C41.9886 26.2987 45.4836 34.8175 52.8936 37.9161C60.3035 41.0147 68.8223 37.5196 71.9209 30.1097Z" fill="#AEB4FC"/>
<path d="M58.5311 11.2615C57.5113 11.2615 57.5058 12.8491 58.5311 12.8491C59.5565 12.8491 59.5565 11.2615 58.5311 11.2615Z" fill="#808AFF"/>
<path d="M71.7383 24.5296C71.7383 23.5098 70.1506 23.5042 70.1506 24.5296C70.1506 25.555 71.7383 25.555 71.7383 24.5296Z" fill="#808AFF"/>
<path d="M58.469 37.7383C59.4888 37.7383 59.4943 36.1507 58.469 36.1507C57.4491 36.1507 57.4436 37.7383 58.469 37.7383Z" fill="#808AFF"/>
<path d="M45.2618 24.4698C45.2618 25.4896 46.8495 25.4951 46.8495 24.4698C46.8495 23.4499 45.2618 23.4444 45.2618 24.4698Z" fill="#808AFF"/>
<path d="M64.7544 28.753C64.6607 28.753 64.567 28.731 64.4843 28.6758L58.2274 24.9548C58.0675 24.8611 57.9683 24.6846 57.9683 24.4972V14.4972C57.9683 14.205 58.2053 13.968 58.4975 13.968C58.7897 13.968 59.0267 14.205 59.0267 14.4972V24.1995L65.0245 27.7662C65.2781 27.9151 65.3608 28.2403 65.2064 28.4939C65.1127 28.6593 64.9363 28.753 64.7544 28.753Z" fill="#808AFF"/>
</g>
<path d="M23.6207 60.4065L23.2715 58.4255L21.2463 58.7707C20.925 57.8457 20.4013 57.0312 19.7239 56.3686L20.9111 54.7051L19.249 53.5524L18.0688 55.209C17.2168 54.7948 16.2671 54.567 15.2754 54.5739L14.9193 52.5653L12.915 52.9104L13.2642 54.9121C12.3284 55.2297 11.5043 55.7474 10.8339 56.4169L9.15091 55.2435L7.98467 56.8863L9.6607 58.0528C9.24169 58.8949 9.01124 59.8336 9.01822 60.8138L7 61.1589L7.34917 63.1399L9.37438 62.7948C9.69562 63.7198 10.2194 64.5342 10.8968 65.1969L9.70959 66.8604L11.3717 68.0131L12.5519 66.3565C13.4038 66.7707 14.3536 66.9984 15.3452 66.9915L15.7014 69.0002L17.7057 68.655L17.3565 66.6533C18.2923 66.3358 19.1163 65.8181 19.7867 65.1486L21.4697 66.322L22.636 64.6792L20.96 63.5127C21.379 62.6706 21.6094 61.7318 21.6024 60.7517L23.6207 60.4065ZM15.6316 62.6223C14.605 62.8017 13.6273 62.1184 13.4457 61.1037C13.2642 60.089 13.9555 59.1227 14.9821 58.9432C16.0087 58.7637 16.9864 59.4471 17.1679 60.4618C17.3495 61.4764 16.6651 62.4428 15.6316 62.6223Z" fill="#9BA3FF"/>
<path d="M42.7278 56.4099V53.918H40.1788C39.9903 52.717 39.5224 51.6126 38.838 50.6601L40.6467 48.8723L38.8659 47.1122L37.0642 48.893C36.1074 48.2097 34.9971 47.7334 33.782 47.5332V45H31.2609V47.5194C30.0458 47.7058 28.9215 48.1683 27.9647 48.8447L26.156 47.0569L24.3752 48.8171L26.177 50.5979C25.4856 51.5436 25.0037 52.6411 24.8012 53.8421H22.2383V56.3339H24.7872C24.9758 57.535 25.4437 58.6394 26.1281 59.5919L24.3194 61.3797L26.1001 63.1398L27.9019 61.3589C28.8586 62.0423 29.969 62.5186 31.1841 62.7187V65.252H33.7051V62.7325C34.9203 62.5462 36.0376 62.0837 37.0013 61.4073L38.81 63.195L40.5908 61.4349L38.7891 59.654C39.4805 58.7084 39.9623 57.6109 40.1648 56.4099H42.7278ZM32.483 57.4452C31.1911 57.4452 30.1366 56.4099 30.1366 55.126C30.1366 53.849 31.1841 52.8067 32.483 52.8067C33.775 52.8067 34.8295 53.8421 34.8295 55.126C34.8225 56.4029 33.775 57.4452 32.483 57.4452Z" fill="#AEB4FC"/>
<g opacity="0.3">
<path d="M160.995 37.8971L142.266 33.6877C142.082 33.6476 141.966 33.4642 142.009 33.2807L144.367 22.7805C144.407 22.5971 144.591 22.4803 144.774 22.5237L163.503 26.7364C163.687 26.7765 163.803 26.9599 163.76 27.1434L161.398 37.6436C161.358 37.8237 161.178 37.9405 160.995 37.8971Z" fill="#ECECEC"/>
<path d="M142.319 33.4408C142.269 33.4308 142.239 33.3808 142.253 33.3341L144.614 22.8339C144.624 22.7838 144.674 22.7538 144.721 22.7671L163.45 26.9799C163.5 26.9899 163.53 27.04 163.517 27.0867L161.155 37.5869C161.145 37.6369 161.095 37.6669 161.048 37.6536L142.319 33.4408Z" fill="#F5F4F5"/>
<path d="M160.867 26.1406L147.414 23.1153L147.359 23.3593L160.812 26.3847L160.867 26.1406Z" fill="#706F6E"/>
<path d="M146.105 24.625L145.485 24.4849C145.408 24.4682 145.358 24.3915 145.375 24.3114L145.471 23.8745C145.488 23.7978 145.565 23.7477 145.645 23.7644L146.265 23.9045C146.342 23.9212 146.392 23.9979 146.375 24.0779L146.279 24.5149C146.259 24.5916 146.182 24.6417 146.105 24.625Z" fill="#585857"/>
<path d="M145.511 24.3615C145.501 24.3582 145.494 24.3482 145.498 24.3382L145.594 23.9012C145.598 23.8912 145.608 23.8845 145.618 23.8879L146.238 24.028C146.248 24.0313 146.255 24.0413 146.252 24.0513L146.155 24.4883C146.152 24.4983 146.142 24.5049 146.132 24.5016L145.511 24.3615Z" fill="#5E5E5D"/>
<path d="M147.242 24.8786L146.622 24.7385C146.545 24.7218 146.495 24.6451 146.512 24.565L146.609 24.1281C146.625 24.0514 146.702 24.0013 146.782 24.018L147.402 24.1581C147.479 24.1748 147.529 24.2515 147.512 24.3316L147.416 24.7685C147.396 24.8486 147.319 24.8953 147.242 24.8786Z" fill="#585857"/>
<path d="M146.649 24.6182C146.639 24.6149 146.632 24.6049 146.635 24.5949L146.732 24.1579C146.735 24.1479 146.745 24.1413 146.755 24.1446L147.376 24.2847C147.386 24.288 147.392 24.298 147.389 24.308L147.292 24.745C147.289 24.755 147.279 24.7617 147.269 24.7583L146.649 24.6182Z" fill="#5E5E5D"/>
<path d="M148.38 25.1353L147.759 24.9952C147.683 24.9785 147.633 24.9018 147.649 24.8218L147.746 24.3848C147.763 24.3081 147.839 24.2581 147.92 24.2747L148.54 24.4148C148.617 24.4315 148.667 24.5082 148.65 24.5883L148.553 25.0252C148.533 25.102 148.457 25.152 148.38 25.1353Z" fill="#585857"/>
<path d="M147.786 24.8718C147.776 24.8685 147.769 24.8585 147.773 24.8485L147.87 24.4115C147.873 24.4015 147.883 24.3949 147.893 24.3982L148.513 24.5383C148.523 24.5416 148.53 24.5516 148.527 24.5616L148.43 24.9986C148.427 25.0086 148.417 25.0153 148.407 25.0119L147.786 24.8718Z" fill="#5E5E5D"/>
<path d="M149.517 25.3887L148.897 25.2486C148.82 25.2319 148.77 25.1552 148.787 25.0751L148.884 24.6382C148.9 24.5615 148.977 24.5114 149.057 24.5281L149.677 24.6682C149.754 24.6849 149.804 24.7616 149.787 24.8417L149.691 25.2786C149.671 25.3587 149.594 25.4087 149.517 25.3887Z" fill="#585857"/>
<path d="M148.924 25.1286C148.914 25.1252 148.907 25.1152 148.91 25.1052L149.007 24.6683C149.01 24.6583 149.02 24.6516 149.03 24.6549L149.651 24.795C149.661 24.7983 149.667 24.8084 149.664 24.8184L149.567 25.2553C149.564 25.2653 149.554 25.272 149.544 25.2687L148.924 25.1286Z" fill="#5E5E5D"/>
<path d="M150.651 25.6456L150.031 25.5055C149.954 25.4889 149.904 25.4121 149.921 25.3321L150.018 24.8951C150.034 24.8184 150.111 24.7684 150.191 24.7851L150.811 24.9252C150.888 24.9418 150.938 25.0185 150.921 25.0986L150.825 25.5356C150.808 25.6156 150.731 25.6623 150.651 25.6456Z" fill="#585857"/>
<path d="M150.061 25.3855C150.051 25.3822 150.044 25.3722 150.048 25.3622L150.145 24.9252C150.148 24.9152 150.158 24.9085 150.168 24.9119L150.788 25.052C150.798 25.0553 150.805 25.0653 150.802 25.0753L150.705 25.5123C150.702 25.5223 150.692 25.5289 150.682 25.5256L150.061 25.3855Z" fill="#5E5E5D"/>
<path d="M151.789 25.9024L151.168 25.7623C151.092 25.7456 151.042 25.6689 151.058 25.5888L151.155 25.1519C151.172 25.0751 151.248 25.0251 151.329 25.0418L151.949 25.1819C152.026 25.1986 152.076 25.2753 152.059 25.3553L151.962 25.7923C151.946 25.869 151.869 25.919 151.789 25.9024Z" fill="#585857"/>
<path d="M151.198 25.6389C151.188 25.6356 151.182 25.6255 151.185 25.6155L151.282 25.1786C151.285 25.1686 151.295 25.1619 151.305 25.1652L151.925 25.3053C151.935 25.3087 151.942 25.3187 151.939 25.3287L151.842 25.7656C151.839 25.7756 151.829 25.7823 151.819 25.779L151.198 25.6389Z" fill="#5E5E5D"/>
<path d="M152.926 26.156L152.306 26.0159C152.229 25.9992 152.179 25.9225 152.196 25.8424L152.293 25.4055C152.309 25.3287 152.386 25.2787 152.466 25.2954L153.086 25.4355C153.163 25.4522 153.213 25.5289 153.196 25.6089L153.1 26.0459C153.083 26.1259 153.003 26.176 152.926 26.156Z" fill="#585857"/>
<path d="M152.336 25.8958C152.326 25.8925 152.319 25.8825 152.322 25.8725L152.419 25.4355C152.422 25.4255 152.433 25.4189 152.443 25.4222L153.063 25.5623C153.073 25.5656 153.08 25.5756 153.076 25.5856L152.98 26.0226C152.976 26.0326 152.966 26.0393 152.956 26.0359L152.336 25.8958Z" fill="#5E5E5D"/>
<path d="M154.064 26.4129L153.443 26.2728C153.367 26.2561 153.317 26.1794 153.333 26.0994L153.43 25.6624C153.447 25.5857 153.524 25.5357 153.604 25.5523L154.224 25.6924C154.301 25.7091 154.351 25.7858 154.334 25.8659L154.237 26.3028C154.217 26.3829 154.141 26.4296 154.064 26.4129Z" fill="#585857"/>
<path d="M153.473 26.1526C153.463 26.1492 153.457 26.1392 153.46 26.1292L153.557 25.6922C153.56 25.6822 153.57 25.6756 153.58 25.6789L154.2 25.819C154.21 25.8223 154.217 25.8323 154.214 25.8423L154.117 26.2793C154.114 26.2893 154.104 26.296 154.094 26.2926L153.473 26.1526Z" fill="#5E5E5D"/>
<path d="M155.201 26.6696L154.581 26.5295C154.504 26.5129 154.454 26.4361 154.471 26.3561L154.568 25.9191C154.584 25.8424 154.661 25.7924 154.741 25.8091L155.361 25.9491C155.438 25.9658 155.488 26.0425 155.472 26.1226L155.375 26.5596C155.355 26.6363 155.278 26.6863 155.201 26.6696Z" fill="#585857"/>
<path d="M154.607 26.4062C154.597 26.4028 154.591 26.3928 154.594 26.3828L154.691 25.9459C154.694 25.9358 154.704 25.9292 154.714 25.9325L155.334 26.0726C155.344 26.0759 155.351 26.0859 155.348 26.0959L155.251 26.5329C155.248 26.5429 155.238 26.5496 155.228 26.5462L154.607 26.4062Z" fill="#5E5E5D"/>
<path d="M156.338 26.9232L155.718 26.7831C155.641 26.7665 155.591 26.6897 155.608 26.6097L155.705 26.1727C155.721 26.096 155.798 26.046 155.878 26.0627L156.499 26.2028C156.575 26.2194 156.625 26.2961 156.609 26.3762L156.512 26.8132C156.492 26.8932 156.415 26.9432 156.338 26.9232Z" fill="#585857"/>
<path d="M155.745 26.6631C155.735 26.6598 155.728 26.6498 155.731 26.6398L155.828 26.2028C155.831 26.1928 155.842 26.1861 155.852 26.1895L156.472 26.3296C156.482 26.3329 156.489 26.3429 156.485 26.3529L156.389 26.7899C156.385 26.7999 156.375 26.8065 156.365 26.8032L155.745 26.6631Z" fill="#5E5E5D"/>
<path d="M157.476 27.1799L156.856 27.0399C156.779 27.0232 156.729 26.9465 156.745 26.8664L156.842 26.4295C156.859 26.3527 156.936 26.3027 157.016 26.3194L157.636 26.4595C157.713 26.4761 157.763 26.5529 157.746 26.6329L157.649 27.0699C157.629 27.1499 157.553 27.1966 157.476 27.1799Z" fill="#585857"/>
<path d="M156.882 26.9198C156.872 26.9165 156.865 26.9065 156.868 26.8965L156.965 26.4595C156.969 26.4495 156.979 26.4428 156.989 26.4462L157.609 26.5863C157.619 26.5896 157.626 26.5996 157.622 26.6096L157.526 27.0466C157.522 27.0566 157.512 27.0633 157.502 27.0599L156.882 26.9198Z" fill="#5E5E5D"/>
<path d="M158.613 27.4369L157.993 27.2968C157.916 27.2801 157.866 27.2034 157.883 27.1234L157.979 26.6864C157.996 26.6097 158.073 26.5597 158.153 26.5763L158.773 26.7164C158.85 26.7331 158.9 26.8098 158.883 26.8899L158.787 27.3268C158.766 27.4035 158.69 27.4536 158.613 27.4369Z" fill="#585857"/>
<path d="M158.019 27.1732C158.009 27.1699 158.003 27.1599 158.006 27.1499L158.103 26.7129C158.106 26.7029 158.116 26.6962 158.126 26.6996L158.747 26.8397C158.757 26.843 158.763 26.853 158.76 26.863L158.663 27.3C158.66 27.31 158.65 27.3166 158.64 27.3133L158.019 27.1732Z" fill="#5E5E5D"/>
<path d="M159.751 27.6903L159.13 27.5502C159.053 27.5335 159.003 27.4568 159.02 27.3767L159.117 26.9398C159.133 26.8631 159.21 26.813 159.29 26.8297L159.911 26.9698C159.987 26.9865 160.037 27.0632 160.021 27.1432L159.924 27.5802C159.904 27.6602 159.827 27.7103 159.751 27.6903Z" fill="#585857"/>
<path d="M159.157 27.4301C159.147 27.4268 159.14 27.4168 159.144 27.4068L159.24 26.9698C159.244 26.9598 159.254 26.9532 159.264 26.9565L159.884 27.0966C159.894 27.0999 159.901 27.1099 159.897 27.1199L159.801 27.5569C159.797 27.5669 159.787 27.5736 159.777 27.5702L159.157 27.4301Z" fill="#5E5E5D"/>
<path d="M160.888 27.947L160.268 27.8069C160.191 27.7902 160.141 27.7135 160.158 27.6335L160.254 27.1965C160.271 27.1198 160.348 27.0698 160.428 27.0864L161.048 27.2265C161.125 27.2432 161.175 27.3199 161.158 27.4L161.062 27.8369C161.042 27.917 160.965 27.9637 160.888 27.947Z" fill="#585857"/>
<path d="M160.294 27.6871C160.284 27.6838 160.278 27.6738 160.281 27.6637L160.378 27.2268C160.381 27.2168 160.391 27.2101 160.401 27.2135L161.022 27.3535C161.032 27.3569 161.038 27.3669 161.035 27.3769L160.938 27.8138C160.935 27.8239 160.925 27.8305 160.915 27.8272L160.294 27.6871Z" fill="#5E5E5D"/>
<path d="M162.022 28.2039L161.402 28.0638C161.325 28.0472 161.275 27.9705 161.292 27.8904L161.388 27.4534C161.405 27.3767 161.482 27.3267 161.562 27.3434L162.182 27.4835C162.259 27.5001 162.309 27.5769 162.292 27.6569L162.195 28.0939C162.179 28.1706 162.102 28.2206 162.022 28.2039Z" fill="#585857"/>
<path d="M161.432 27.9405C161.422 27.9371 161.415 27.9271 161.419 27.9171L161.515 27.4802C161.519 27.4702 161.529 27.4635 161.539 27.4668L162.159 27.6069C162.169 27.6103 162.176 27.6203 162.172 27.6303L162.076 28.0672C162.072 28.0772 162.062 28.0839 162.052 28.0806L161.432 27.9405Z" fill="#5E5E5D"/>
<path d="M145.471 24.6351L146.238 24.8086C146.325 24.8286 146.382 24.9153 146.362 25.0054L146.192 25.7592C146.172 25.8459 146.085 25.9026 145.995 25.8826L145.228 25.7091C145.141 25.6891 145.084 25.6024 145.104 25.5123L145.274 24.7585C145.294 24.6718 145.381 24.6151 145.471 24.6351Z" fill="#585857"/>
<path d="M145.258 25.5855C145.238 25.5821 145.225 25.5588 145.228 25.5388L145.398 24.7849C145.401 24.7649 145.425 24.7516 145.445 24.7549L146.212 24.9284C146.232 24.9317 146.245 24.9551 146.242 24.9751L146.072 25.7289C146.069 25.7489 146.045 25.7623 146.025 25.7589L145.258 25.5855Z" fill="#5E5E5D"/>
<path d="M146.782 24.9317L147.549 25.1051C147.636 25.1252 147.692 25.2119 147.672 25.3019L147.502 26.0558C147.482 26.1425 147.396 26.1992 147.306 26.1792L146.538 26.0057C146.452 25.9857 146.395 25.899 146.415 25.8089L146.585 25.0551C146.605 24.9651 146.692 24.9117 146.782 24.9317Z" fill="#585857"/>
<path d="M146.569 25.8823C146.549 25.879 146.535 25.8557 146.539 25.8357L146.709 25.0818C146.712 25.0618 146.735 25.0485 146.755 25.0518L147.523 25.2253C147.543 25.2286 147.556 25.2519 147.553 25.2719L147.382 26.0258C147.379 26.0458 147.356 26.0591 147.336 26.0558L146.569 25.8823Z" fill="#5E5E5D"/>
<path d="M148.093 25.2255L148.861 25.3989C148.947 25.419 149.004 25.5057 148.984 25.5957L148.814 26.3496C148.794 26.4363 148.707 26.493 148.617 26.473L147.85 26.2995C147.763 26.2795 147.706 26.1928 147.726 26.1027L147.897 25.3489C147.917 25.2622 148.007 25.2055 148.093 25.2255Z" fill="#585857"/>
<path d="M147.88 26.1759C147.86 26.1725 147.846 26.1492 147.85 26.1292L148.02 25.3753C148.023 25.3553 148.046 25.342 148.066 25.3453L148.834 25.5188C148.854 25.5221 148.867 25.5455 148.864 25.5655L148.693 26.3193C148.69 26.3393 148.667 26.3527 148.647 26.3493L147.88 26.1759Z" fill="#5E5E5D"/>
<path d="M149.404 25.519L150.171 25.6925C150.258 25.7125 150.315 25.7992 150.295 25.8893L150.124 26.6431C150.104 26.7298 150.018 26.7865 149.928 26.7665L149.16 26.5931C149.074 26.5731 149.017 26.4863 149.037 26.3963L149.207 25.6424C149.227 25.5557 149.317 25.499 149.404 25.519Z" fill="#585857"/>
<path d="M149.191 26.4727C149.171 26.4694 149.157 26.4461 149.161 26.426L149.331 25.6722C149.334 25.6522 149.357 25.6389 149.377 25.6422L150.145 25.8156C150.165 25.819 150.178 25.8423 150.175 25.8623L150.005 26.6162C150.001 26.6362 149.978 26.6495 149.958 26.6462L149.191 26.4727Z" fill="#5E5E5D"/>
<path d="M150.715 25.8158L151.482 25.9893C151.568 26.0093 151.625 26.096 151.605 26.1861L151.435 26.9399C151.415 27.0266 151.328 27.0833 151.238 27.0633L150.471 26.8899C150.384 26.8699 150.328 26.7831 150.348 26.6931L150.518 25.9393C150.541 25.8492 150.628 25.7958 150.715 25.8158Z" fill="#585857"/>
<path d="M150.501 26.7663C150.481 26.7629 150.468 26.7396 150.471 26.7196L150.641 25.9657C150.645 25.9457 150.668 25.9324 150.688 25.9357L151.455 26.1092C151.475 26.1125 151.489 26.1359 151.485 26.1559L151.315 26.9097C151.312 26.9297 151.288 26.9431 151.268 26.9397L150.501 26.7663Z" fill="#5E5E5D"/>
<path d="M152.026 26.1094L152.793 26.2829C152.879 26.3029 152.936 26.3896 152.916 26.4797L152.746 27.2335C152.726 27.3202 152.639 27.3769 152.549 27.3569L151.782 27.1835C151.695 27.1634 151.639 27.0767 151.659 26.9867L151.829 26.2328C151.852 26.1461 151.939 26.0894 152.026 26.1094Z" fill="#585857"/>
<path d="M151.812 27.06C151.792 27.0567 151.779 27.0333 151.782 27.0133L151.952 26.2595C151.955 26.2395 151.979 26.2261 151.999 26.2295L152.766 26.4029C152.786 26.4063 152.799 26.4296 152.796 26.4496L152.626 27.2034C152.622 27.2235 152.599 27.2368 152.579 27.2335L151.812 27.06Z" fill="#5E5E5D"/>
<path d="M153.337 26.406L154.104 26.5795C154.191 26.5995 154.247 26.6862 154.227 26.7763L154.057 27.5301C154.037 27.6168 153.95 27.6735 153.86 27.6535L153.093 27.48C153.006 27.46 152.95 27.3733 152.97 27.2833L153.14 26.5294C153.163 26.4394 153.25 26.386 153.337 26.406Z" fill="#585857"/>
<path d="M153.123 27.3567C153.103 27.3533 153.09 27.33 153.093 27.31L153.263 26.5561C153.266 26.5361 153.29 26.5228 153.31 26.5261L154.077 26.6996C154.097 26.7029 154.11 26.7262 154.107 26.7463L153.937 27.5001C153.933 27.5201 153.91 27.5334 153.89 27.5301L153.123 27.3567Z" fill="#5E5E5D"/>
<path d="M154.651 26.6998L155.418 26.8733C155.505 26.8933 155.561 26.98 155.541 27.0701L155.371 27.8239C155.351 27.9106 155.265 27.9673 155.174 27.9473L154.407 27.7739C154.321 27.7538 154.264 27.6671 154.284 27.5771L154.454 26.8232C154.474 26.7365 154.561 26.6798 154.651 26.6998Z" fill="#585857"/>
<path d="M154.434 27.6504C154.414 27.6471 154.401 27.6237 154.404 27.6037L154.574 26.8499C154.577 26.8299 154.601 26.8165 154.621 26.8199L155.388 26.9933C155.408 26.9967 155.421 27.02 155.418 27.04L155.248 27.7938C155.245 27.8139 155.221 27.8272 155.201 27.8239L154.434 27.6504Z" fill="#5E5E5D"/>
<path d="M155.961 26.9931L156.729 27.1666C156.815 27.1866 156.872 27.2733 156.852 27.3634L156.682 28.1172C156.662 28.2039 156.575 28.2606 156.485 28.2406L155.718 28.0672C155.631 28.0471 155.574 27.9604 155.595 27.8704L155.765 27.1165C155.785 27.0298 155.871 26.9731 155.961 26.9931Z" fill="#585857"/>
<path d="M155.748 27.9471C155.728 27.9437 155.715 27.9204 155.718 27.9004L155.888 27.1465C155.892 27.1265 155.915 27.1132 155.935 27.1165L156.702 27.29C156.722 27.2933 156.735 27.3166 156.732 27.3367L156.562 28.0905C156.559 28.1105 156.535 28.1238 156.515 28.1205L155.748 27.9471Z" fill="#5E5E5D"/>
<path d="M157.272 27.2902L158.04 27.4636C158.126 27.4836 158.183 27.5703 158.163 27.6604L157.993 28.4142C157.973 28.501 157.886 28.5577 157.796 28.5376L157.029 28.3642C156.942 28.3442 156.886 28.2575 156.906 28.1674L157.076 27.4136C157.096 27.3235 157.182 27.2701 157.272 27.2902Z" fill="#585857"/>
<path d="M157.059 28.2408C157.039 28.2375 157.025 28.2141 157.029 28.1941L157.199 27.4403C157.202 27.4203 157.226 27.4069 157.246 27.4103L158.013 27.5837C158.033 27.587 158.046 27.6104 158.043 27.6304L157.873 28.3842C157.869 28.4042 157.846 28.4176 157.826 28.4143L157.059 28.2408Z" fill="#5E5E5D"/>
<path d="M158.583 27.5835L159.35 27.757C159.437 27.777 159.494 27.8637 159.474 27.9538L159.304 28.7076C159.284 28.7943 159.197 28.851 159.107 28.831L158.343 28.6576C158.256 28.6375 158.2 28.5508 158.22 28.4608L158.39 27.7069C158.407 27.6202 158.493 27.5635 158.583 27.5835Z" fill="#585857"/>
<path d="M158.37 28.5343C158.35 28.531 158.336 28.5076 158.34 28.4876L158.51 27.7338C158.513 27.7138 158.537 27.7005 158.557 27.7038L159.324 27.8772C159.344 27.8806 159.357 27.9039 159.354 27.9239L159.18 28.6778C159.177 28.6978 159.154 28.7111 159.134 28.7078L158.37 28.5343Z" fill="#5E5E5D"/>
<path d="M159.894 27.8805L160.661 28.054C160.748 28.074 160.805 28.1607 160.785 28.2508L160.615 29.0046C160.595 29.0913 160.508 29.148 160.418 29.128L159.651 28.9546C159.564 28.9346 159.507 28.8479 159.527 28.7578L159.697 28.004C159.717 27.9139 159.807 27.8605 159.894 27.8805Z" fill="#585857"/>
<path d="M159.681 28.8312C159.661 28.8279 159.648 28.8045 159.651 28.7845L159.821 28.0307C159.824 28.0107 159.848 27.9973 159.868 28.0007L160.635 28.1741C160.655 28.1774 160.668 28.2008 160.665 28.2208L160.495 28.9746C160.491 28.9946 160.468 29.008 160.448 29.0047L159.681 28.8312Z" fill="#5E5E5D"/>
<path d="M161.205 28.1739L161.972 28.3474C162.059 28.3674 162.115 28.4541 162.095 28.5442L161.925 29.298C161.905 29.3847 161.818 29.4414 161.728 29.4214L160.961 29.2479C160.875 29.2279 160.818 29.1412 160.838 29.0512L161.011 28.2973C161.028 28.2106 161.118 28.1539 161.205 28.1739Z" fill="#585857"/>
<path d="M160.991 29.1247C160.971 29.1214 160.958 29.098 160.961 29.078L161.132 28.3242C161.135 28.3042 161.158 28.2908 161.178 28.2942L161.945 28.4676C161.965 28.471 161.979 28.4943 161.975 28.5143L161.805 29.2682C161.802 29.2882 161.779 29.3015 161.759 29.2982L160.991 29.1247Z" fill="#5E5E5D"/>
<path d="M145.194 25.8558L145.961 26.0293C146.048 26.0493 146.105 26.136 146.085 26.2261L145.915 26.9799C145.895 27.0666 145.808 27.1233 145.718 27.1033L144.951 26.9299C144.864 26.9098 144.807 26.8231 144.827 26.7331L145.001 25.9792C145.021 25.8925 145.107 25.8358 145.194 25.8558Z" fill="#585857"/>
<path d="M144.981 26.8064C144.961 26.8031 144.948 26.7797 144.951 26.7597L145.121 26.0059C145.124 25.9859 145.148 25.9725 145.168 25.9759L145.935 26.1493C145.955 26.1526 145.968 26.176 145.965 26.196L145.795 26.9498C145.791 26.9699 145.768 26.9832 145.748 26.9799L144.981 26.8064Z" fill="#5E5E5D"/>
<path d="M146.509 26.1526L147.276 26.3261C147.363 26.3461 147.419 26.4328 147.399 26.5229L147.229 27.2767C147.209 27.3634 147.123 27.4201 147.033 27.4001L146.265 27.2267C146.179 27.2067 146.122 27.1199 146.142 27.0299L146.312 26.2761C146.332 26.186 146.419 26.1326 146.509 26.1526Z" fill="#585857"/>
<path d="M146.292 27.1033C146.272 27.1 146.259 27.0766 146.262 27.0566L146.432 26.3028C146.435 26.2827 146.459 26.2694 146.479 26.2727L147.246 26.4462C147.266 26.4495 147.279 26.4729 147.276 26.4929L147.106 27.2467C147.103 27.2667 147.079 27.2801 147.059 27.2767L146.292 27.1033Z" fill="#5E5E5D"/>
<path d="M147.819 26.4462L148.587 26.6197C148.673 26.6397 148.73 26.7264 148.71 26.8165L148.54 27.5703C148.52 27.657 148.433 27.7137 148.343 27.6937L147.576 27.5203C147.489 27.5002 147.433 27.4135 147.453 27.3235L147.623 26.5696C147.643 26.4829 147.729 26.4262 147.819 26.4462Z" fill="#585857"/>
<path d="M147.606 27.3968C147.586 27.3935 147.573 27.3701 147.576 27.3501L147.746 26.5963C147.75 26.5763 147.773 26.5629 147.793 26.5663L148.56 26.7397C148.58 26.7431 148.593 26.7664 148.59 26.7864L148.42 27.5402C148.417 27.5603 148.393 27.5736 148.373 27.5703L147.606 27.3968Z" fill="#5E5E5D"/>
<path d="M149.13 26.7397L149.897 26.9132C149.984 26.9332 150.041 27.0199 150.021 27.11L149.851 27.8638C149.83 27.9505 149.744 28.0072 149.654 27.9872L148.887 27.8138C148.8 27.7938 148.743 27.707 148.763 27.617L148.933 26.8632C148.953 26.7764 149.04 26.7197 149.13 26.7397Z" fill="#585857"/>
<path d="M148.917 27.6903C148.897 27.687 148.883 27.6637 148.887 27.6436L149.057 26.8898C149.06 26.8698 149.084 26.8565 149.104 26.8598L149.871 27.0332C149.891 27.0366 149.904 27.0599 149.901 27.0799L149.731 27.8338C149.727 27.8538 149.704 27.8671 149.684 27.8638L148.917 27.6903Z" fill="#5E5E5D"/>
<path d="M150.442 27.0366L151.209 27.21C151.295 27.23 151.352 27.3167 151.332 27.4068L151.162 28.1606C151.142 28.2474 151.055 28.3041 150.965 28.284L150.198 28.1106C150.111 28.0906 150.055 28.0039 150.075 27.9138L150.245 27.16C150.265 27.0699 150.355 27.0165 150.442 27.0366Z" fill="#585857"/>
<path d="M150.228 27.9872C150.208 27.9839 150.194 27.9605 150.198 27.9405L150.368 27.1867C150.371 27.1667 150.395 27.1533 150.415 27.1567L151.182 27.3301C151.202 27.3334 151.215 27.3568 151.212 27.3768L151.042 28.1306C151.038 28.1506 151.015 28.164 150.995 28.1607L150.228 27.9872Z" fill="#5E5E5D"/>
<path d="M151.752 27.3299L152.519 27.5034C152.606 27.5234 152.663 27.6101 152.643 27.7002L152.473 28.454C152.453 28.5407 152.366 28.5974 152.276 28.5774L151.509 28.404C151.422 28.3839 151.365 28.2972 151.385 28.2072L151.555 27.4533C151.575 27.3666 151.665 27.3099 151.752 27.3299Z" fill="#585857"/>
<path d="M151.539 28.2807C151.519 28.2774 151.506 28.254 151.509 28.234L151.679 27.4802C151.682 27.4602 151.706 27.4469 151.726 27.4502L152.493 27.6236C152.513 27.627 152.526 27.6503 152.523 27.6703L152.353 28.4242C152.349 28.4442 152.326 28.4575 152.306 28.4542L151.539 28.2807Z" fill="#5E5E5D"/>
<path d="M153.063 27.6269L153.83 27.8004C153.917 27.8204 153.973 27.9071 153.953 27.9972L153.783 28.751C153.763 28.8377 153.676 28.8944 153.586 28.8744L152.819 28.701C152.733 28.681 152.676 28.5943 152.696 28.5042L152.866 27.7504C152.889 27.6603 152.976 27.6069 153.063 27.6269Z" fill="#585857"/>
<path d="M152.849 28.5776C152.829 28.5743 152.816 28.5509 152.819 28.5309L152.99 27.7771C152.993 27.7571 153.016 27.7437 153.036 27.7471L153.803 27.9205C153.823 27.9238 153.837 27.9472 153.833 27.9672L153.663 28.721C153.66 28.741 153.637 28.7544 153.617 28.7511L152.849 28.5776Z" fill="#5E5E5D"/>
<path d="M154.374 27.9203L155.141 28.0938C155.228 28.1138 155.284 28.2005 155.264 28.2906L155.094 29.0444C155.074 29.1311 154.988 29.1878 154.897 29.1678L154.13 28.9943C154.044 28.9743 153.987 28.8876 154.007 28.7976L154.177 28.0437C154.2 27.957 154.287 27.9003 154.374 27.9203Z" fill="#585857"/>
<path d="M154.16 28.8711C154.14 28.8678 154.127 28.8444 154.13 28.8244L154.3 28.0706C154.304 28.0506 154.327 28.0372 154.347 28.0406L155.114 28.214C155.134 28.2174 155.147 28.2407 155.144 28.2607L154.974 29.0146C154.971 29.0346 154.947 29.0479 154.927 29.0446L154.16 28.8711Z" fill="#5E5E5D"/>
<path d="M155.685 28.2141L156.452 28.3875C156.539 28.4075 156.595 28.4942 156.575 28.5843L156.405 29.3381C156.385 29.4249 156.299 29.4816 156.209 29.4615L155.441 29.2881C155.355 29.2681 155.298 29.1814 155.318 29.0913L155.488 28.3375C155.511 28.2508 155.598 28.1941 155.685 28.2141Z" fill="#585857"/>
<path d="M155.471 29.1647C155.451 29.1613 155.438 29.138 155.441 29.118L155.611 28.3641C155.615 28.3441 155.638 28.3308 155.658 28.3341L156.425 28.5076C156.445 28.5109 156.458 28.5342 156.455 28.5543L156.285 29.3081C156.282 29.3281 156.258 29.3414 156.238 29.3381L155.471 29.1647Z" fill="#5E5E5D"/>
<path d="M156.995 28.5109L157.763 28.6843C157.849 28.7043 157.906 28.7911 157.886 28.8811L157.716 29.6349C157.696 29.7217 157.609 29.7784 157.519 29.7584L156.752 29.5849C156.665 29.5649 156.609 29.4782 156.629 29.3881L156.799 28.6343C156.822 28.5442 156.909 28.4909 156.995 28.5109Z" fill="#585857"/>
<path d="M156.782 29.4615C156.762 29.4582 156.749 29.4348 156.752 29.4148L156.922 28.661C156.926 28.641 156.949 28.6276 156.969 28.631L157.736 28.8044C157.756 28.8078 157.769 28.8311 157.766 28.8511L157.596 29.605C157.593 29.625 157.569 29.6383 157.549 29.635L156.782 29.4615Z" fill="#5E5E5D"/>
<path d="M158.31 28.8045L159.077 28.9779C159.164 28.9979 159.22 29.0846 159.2 29.1747L159.03 29.9285C159.01 30.0153 158.923 30.072 158.833 30.0519L158.066 29.8785C157.979 29.8585 157.923 29.7718 157.943 29.6817L158.113 28.9279C158.133 28.8411 158.22 28.7844 158.31 28.8045Z" fill="#585857"/>
<path d="M158.093 29.7551C158.073 29.7517 158.059 29.7284 158.063 29.7084L158.233 28.9545C158.236 28.9345 158.26 28.9212 158.28 28.9245L159.047 29.098C159.067 29.1013 159.08 29.1246 159.077 29.1447L158.907 29.8985C158.903 29.9185 158.88 29.9318 158.86 29.9285L158.093 29.7551Z" fill="#5E5E5D"/>
<path d="M159.621 29.1013L160.388 29.2747C160.475 29.2947 160.531 29.3815 160.511 29.4715L160.341 30.2253C160.321 30.3121 160.234 30.3688 160.144 30.3488L159.377 30.1753C159.29 30.1553 159.234 30.0686 159.254 29.9785L159.424 29.2247C159.444 29.1346 159.531 29.0813 159.621 29.1013Z" fill="#585857"/>
<path d="M159.407 30.0519C159.387 30.0486 159.374 30.0252 159.377 30.0052L159.547 29.2514C159.551 29.2314 159.574 29.218 159.594 29.2214L160.361 29.3948C160.381 29.3982 160.395 29.4215 160.391 29.4415L160.221 30.1953C160.218 30.2154 160.195 30.2287 160.175 30.2254L159.407 30.0519Z" fill="#5E5E5D"/>
<path d="M160.932 29.3948L161.699 29.5683C161.786 29.5883 161.842 29.675 161.822 29.7651L161.652 30.5189C161.632 30.6056 161.545 30.6623 161.455 30.6423L160.688 30.4689C160.602 30.4489 160.545 30.3622 160.565 30.2721L160.735 29.5183C160.755 29.4315 160.842 29.3748 160.932 29.3948Z" fill="#585857"/>
<path d="M160.718 30.3454C160.698 30.3421 160.685 30.3188 160.688 30.2987L160.858 29.5449C160.861 29.5249 160.885 29.5116 160.905 29.5149L161.672 29.6883C161.692 29.6917 161.705 29.715 161.702 29.735L161.532 30.4889C161.529 30.5089 161.505 30.5222 161.485 30.5189L160.718 30.3454Z" fill="#5E5E5D"/>
<path d="M144.921 27.0765L145.688 27.25C145.775 27.27 145.832 27.3567 145.812 27.4468L145.642 28.2006C145.622 28.2873 145.535 28.344 145.445 28.324L144.678 28.1506C144.591 28.1306 144.534 28.0438 144.554 27.9538L144.724 27.1999C144.748 27.1132 144.835 27.0565 144.921 27.0765Z" fill="#585857"/>
<path d="M144.708 28.0271C144.687 28.0238 144.674 28.0004 144.677 27.9804L144.848 27.2266C144.851 27.2066 144.874 27.1933 144.894 27.1966L145.661 27.37C145.681 27.3734 145.695 27.3967 145.691 27.4167L145.521 28.1706C145.518 28.1906 145.495 28.2039 145.475 28.2006L144.708 28.0271Z" fill="#5E5E5D"/>
<path d="M146.232 27.37L146.999 27.5434C147.086 27.5634 147.142 27.6502 147.122 27.7402L146.952 28.494C146.932 28.5808 146.846 28.6375 146.755 28.6175L145.988 28.444C145.902 28.424 145.845 28.3373 145.865 28.2472L146.035 27.4934C146.058 27.4067 146.145 27.3533 146.232 27.37Z" fill="#585857"/>
<path d="M146.019 28.3242C145.999 28.3209 145.985 28.2975 145.989 28.2775L146.159 27.5237C146.162 27.5037 146.185 27.4903 146.205 27.4937L146.972 27.6671C146.993 27.6705 147.006 27.6938 147.003 27.7138L146.832 28.4677C146.829 28.4877 146.806 28.501 146.786 28.4977L146.019 28.3242Z" fill="#5E5E5D"/>
<path d="M147.542 27.6669L148.31 27.8404C148.396 27.8604 148.453 27.9471 148.433 28.0372L148.263 28.791C148.243 28.8777 148.156 28.9344 148.066 28.9144L147.299 28.741C147.212 28.721 147.155 28.6342 147.176 28.5442L147.346 27.7903C147.369 27.7036 147.456 27.6469 147.542 27.6669Z" fill="#585857"/>
<path d="M147.329 28.6175C147.309 28.6142 147.296 28.5908 147.299 28.5708L147.469 27.817C147.473 27.797 147.496 27.7836 147.516 27.787L148.283 27.9604C148.303 27.9638 148.316 27.9871 148.313 28.0071L148.143 28.761C148.14 28.781 148.116 28.7943 148.096 28.791L147.329 28.6175Z" fill="#5E5E5D"/>
<path d="M148.857 27.9605L149.624 28.1339C149.711 28.1539 149.768 28.2406 149.748 28.3307L149.578 29.0845C149.558 29.1713 149.471 29.228 149.381 29.2079L148.614 29.0345C148.527 29.0145 148.47 28.9278 148.49 28.8377L148.66 28.0839C148.68 27.9972 148.767 27.9404 148.857 27.9605Z" fill="#585857"/>
<path d="M148.64 28.9111C148.62 28.9077 148.607 28.8844 148.61 28.8644L148.78 28.1105C148.784 28.0905 148.807 28.0772 148.827 28.0805L149.594 28.254C149.614 28.2573 149.628 28.2806 149.624 28.3007L149.454 29.0545C149.451 29.0745 149.427 29.0878 149.407 29.0845L148.64 28.9111Z" fill="#5E5E5D"/>
<path d="M150.168 28.2575L150.935 28.4309C151.022 28.451 151.078 28.5377 151.058 28.6277L150.888 29.3816C150.868 29.4683 150.781 29.525 150.691 29.505L149.924 29.3315C149.837 29.3115 149.781 29.2248 149.801 29.1347L149.971 28.3809C149.991 28.2909 150.078 28.2375 150.168 28.2575Z" fill="#585857"/>
<path d="M149.954 29.2079C149.934 29.2046 149.921 29.1812 149.924 29.1612L150.094 28.4074C150.098 28.3874 150.121 28.374 150.141 28.3774L150.908 28.5508C150.928 28.5542 150.942 28.5775 150.938 28.5975L150.768 29.3514C150.765 29.3714 150.742 29.3847 150.722 29.3814L149.954 29.2079Z" fill="#5E5E5D"/>
<path d="M151.479 28.5509L152.246 28.7243C152.333 28.7443 152.389 28.831 152.369 28.9211L152.199 29.6749C152.179 29.7617 152.092 29.8184 152.002 29.7983L151.235 29.6249C151.148 29.6049 151.092 29.5182 151.112 29.4281L151.282 28.6743C151.302 28.5875 151.389 28.5308 151.479 28.5509Z" fill="#585857"/>
<path d="M151.265 29.5015C151.245 29.4981 151.232 29.4748 151.235 29.4548L151.405 28.7009C151.408 28.6809 151.432 28.6676 151.452 28.6709L152.219 28.8444C152.239 28.8477 152.252 28.871 152.249 28.8911L152.079 29.6449C152.075 29.6649 152.052 29.6782 152.032 29.6749L151.265 29.5015Z" fill="#5E5E5D"/>
<path d="M152.79 28.8443L153.557 29.0177C153.644 29.0378 153.7 29.1245 153.68 29.2145L153.51 29.9684C153.49 30.0551 153.403 30.1118 153.313 30.0918L152.546 29.9183C152.46 29.8983 152.403 29.8116 152.423 29.7215L152.593 28.9677C152.613 28.881 152.7 28.8276 152.79 28.8443Z" fill="#585857"/>
<path d="M152.576 29.7983C152.556 29.795 152.543 29.7716 152.546 29.7516L152.716 28.9978C152.719 28.9778 152.743 28.9644 152.763 28.9678L153.53 29.1412C153.55 29.1446 153.563 29.1679 153.56 29.1879L153.39 29.9417C153.387 29.9618 153.363 29.9751 153.343 29.9718L152.576 29.7983Z" fill="#5E5E5D"/>
<path d="M154.1 29.1412L154.868 29.3146C154.954 29.3347 155.011 29.4214 154.991 29.5114L154.821 30.2653C154.801 30.352 154.714 30.4087 154.624 30.3887L153.857 30.2152C153.77 30.1952 153.713 30.1085 153.733 30.0184L153.904 29.2646C153.924 29.1745 154.014 29.1212 154.1 29.1412Z" fill="#585857"/>
<path d="M153.887 30.0918C153.867 30.0885 153.854 30.0652 153.857 30.0451L154.027 29.2913C154.03 29.2713 154.054 29.258 154.074 29.2613L154.841 29.4347C154.861 29.4381 154.874 29.4614 154.871 29.4814L154.701 30.2353C154.698 30.2553 154.674 30.2686 154.654 30.2653L153.887 30.0918Z" fill="#5E5E5D"/>
<path d="M155.411 29.4348L156.178 29.6082C156.265 29.6282 156.322 29.715 156.302 29.805L156.131 30.5588C156.111 30.6456 156.025 30.7023 155.935 30.6823L155.167 30.5088C155.081 30.4888 155.024 30.4021 155.044 30.312L155.214 29.5582C155.234 29.4715 155.324 29.4148 155.411 29.4348Z" fill="#585857"/>
<path d="M155.198 30.3854C155.178 30.382 155.164 30.3587 155.168 30.3387L155.338 29.5848C155.341 29.5648 155.364 29.5515 155.384 29.5548L156.152 29.7283C156.172 29.7316 156.185 29.755 156.182 29.775L156.008 30.5288C156.005 30.5488 155.982 30.5622 155.962 30.5588L155.198 30.3854Z" fill="#5E5E5D"/>
<path d="M156.722 29.7316L157.489 29.905C157.576 29.9251 157.633 30.0118 157.613 30.1018L157.442 30.8557C157.422 30.9424 157.336 30.9991 157.246 30.9791L156.479 30.8056C156.392 30.7856 156.335 30.6989 156.355 30.6088L156.525 29.855C156.549 29.7649 156.635 29.7116 156.722 29.7316Z" fill="#585857"/>
<path d="M156.508 30.6822C156.488 30.6789 156.475 30.6589 156.478 30.6355L156.648 29.8817C156.652 29.8617 156.675 29.8484 156.695 29.8517L157.462 30.0251C157.482 30.0285 157.496 30.0518 157.492 30.0718L157.322 30.8257C157.319 30.8457 157.295 30.859 157.275 30.8557L156.508 30.6822Z" fill="#5E5E5D"/>
<path d="M158.033 30.0252L158.8 30.1986C158.887 30.2186 158.944 30.3054 158.924 30.3954L158.754 31.1492C158.734 31.236 158.647 31.2927 158.557 31.2727L157.79 31.0992C157.703 31.0792 157.646 30.9925 157.666 30.9024L157.836 30.1486C157.86 30.0619 157.946 30.0052 158.033 30.0252Z" fill="#585857"/>
<path d="M157.819 30.9758C157.799 30.9724 157.786 30.9491 157.789 30.9291L157.959 30.1752C157.963 30.1552 157.986 30.1419 158.006 30.1452L158.773 30.3187C158.793 30.322 158.807 30.3454 158.803 30.3654L158.633 31.1192C158.63 31.1392 158.607 31.1526 158.586 31.1492L157.819 30.9758Z" fill="#5E5E5D"/>
<path d="M159.344 30.3187L160.111 30.4921C160.198 30.5122 160.254 30.5989 160.234 30.6889L160.064 31.4428C160.044 31.5295 159.957 31.5862 159.867 31.5662L159.1 31.3927C159.013 31.3727 158.957 31.286 158.977 31.1959L159.147 30.4421C159.17 30.3554 159.257 30.2987 159.344 30.3187Z" fill="#585857"/>
<path d="M159.13 31.2726C159.11 31.2693 159.097 31.246 159.1 31.2259L159.27 30.4721C159.274 30.4521 159.297 30.4388 159.317 30.4421L160.084 30.6155C160.104 30.6189 160.118 30.6422 160.114 30.6622L159.944 31.4127C159.941 31.4327 159.918 31.4461 159.898 31.4427L159.13 31.2726Z" fill="#5E5E5D"/>
<path d="M160.658 30.6155L161.425 30.789C161.512 30.809 161.568 30.8957 161.548 30.9858L161.378 31.7396C161.358 31.8263 161.272 31.883 161.182 31.863L160.414 31.6896C160.328 31.6695 160.271 31.5828 160.291 31.4928L160.461 30.7389C160.481 30.6489 160.568 30.5955 160.658 30.6155Z" fill="#585857"/>
<path d="M160.441 31.5662C160.421 31.5628 160.408 31.5395 160.411 31.5195L160.581 30.7656C160.584 30.7456 160.608 30.7323 160.628 30.7356L161.395 30.9091C161.415 30.9124 161.428 30.9358 161.425 30.9558L161.255 31.7096C161.252 31.7296 161.228 31.7429 161.208 31.7396L160.441 31.5662Z" fill="#5E5E5D"/>
<path d="M144.647 28.2975L145.414 28.4709C145.501 28.4909 145.558 28.5777 145.538 28.6677L145.368 29.4215C145.348 29.5083 145.261 29.565 145.171 29.545L144.404 29.3715C144.317 29.3515 144.26 29.2648 144.28 29.1747L144.451 28.4209C144.471 28.3342 144.561 28.2775 144.647 28.2975Z" fill="#585857"/>
<path d="M144.434 29.2481C144.414 29.2447 144.401 29.2214 144.404 29.2014L144.574 28.4475C144.577 28.4275 144.601 28.4142 144.621 28.4175L145.388 28.591C145.408 28.5943 145.421 28.6177 145.418 28.6377L145.248 29.3915C145.245 29.4115 145.221 29.4249 145.201 29.4215L144.434 29.2481Z" fill="#5E5E5D"/>
<path d="M145.958 28.591L146.726 28.7644C146.812 28.7845 146.869 28.8712 146.849 28.9612L146.679 29.7151C146.659 29.8018 146.572 29.8585 146.482 29.8385L145.715 29.665C145.628 29.645 145.571 29.5583 145.591 29.4682L145.762 28.7144C145.782 28.6277 145.872 28.571 145.958 28.591Z" fill="#585857"/>
<path d="M145.745 29.5416C145.725 29.5383 145.712 29.5149 145.715 29.4949L145.885 28.7411C145.889 28.7211 145.912 28.7077 145.932 28.7111L146.699 28.8845C146.719 28.8878 146.732 28.9112 146.729 28.9312L146.559 29.685C146.556 29.705 146.532 29.7184 146.512 29.715L145.745 29.5416Z" fill="#5E5E5D"/>
<path d="M147.269 28.8878L148.037 29.0613C148.123 29.0813 148.18 29.168 148.16 29.2581L147.99 30.0119C147.97 30.0986 147.883 30.1553 147.793 30.1353L147.026 29.9619C146.939 29.9418 146.882 29.8551 146.902 29.7651L147.076 29.0112C147.096 28.9212 147.183 28.8678 147.269 28.8878Z" fill="#585857"/>
<path d="M147.056 29.8382C147.036 29.8349 147.022 29.8116 147.026 29.7915L147.196 29.0377C147.199 29.0177 147.222 29.0044 147.242 29.0077L148.01 29.1811C148.03 29.1845 148.043 29.2078 148.04 29.2278L147.87 29.9817C147.866 30.0017 147.843 30.015 147.823 30.0117L147.056 29.8382Z" fill="#5E5E5D"/>
<path d="M148.58 29.1814L149.347 29.3548C149.434 29.3749 149.491 29.4616 149.471 29.5516L149.3 30.3055C149.28 30.3922 149.194 30.4489 149.104 30.4289L148.337 30.2554C148.25 30.2354 148.193 30.1487 148.213 30.0586L148.383 29.3048C148.407 29.2181 148.493 29.1614 148.58 29.1814Z" fill="#585857"/>
<path d="M148.367 30.132C148.347 30.1287 148.333 30.1053 148.337 30.0853L148.507 29.3315C148.51 29.3115 148.534 29.2981 148.554 29.3014L149.321 29.4749C149.341 29.4782 149.354 29.5016 149.351 29.5216L149.181 30.2754C149.177 30.2954 149.154 30.3088 149.134 30.3054L148.367 30.132Z" fill="#5E5E5D"/>
<path d="M154.59 30.5322L149.884 29.4749C149.797 29.4549 149.714 29.5082 149.694 29.595L149.51 30.4055C149.497 30.4655 149.534 30.5256 149.594 30.5389L154.344 31.6063C154.43 31.6263 154.52 31.5696 154.54 31.4829L154.71 30.729C154.734 30.6423 154.68 30.5522 154.59 30.5322Z" fill="#585857"/>
<path d="M149.641 30.4188L149.821 29.6216C149.824 29.6049 149.844 29.5915 149.861 29.5982L154.567 30.6556C154.587 30.6589 154.6 30.6823 154.597 30.7023L154.427 31.4561C154.424 31.4761 154.4 31.4895 154.38 31.4861L149.641 30.4188Z" fill="#5E5E5D"/>
<path d="M155.138 30.6557L155.905 30.8292C155.992 30.8492 156.049 30.9359 156.029 31.026L155.858 31.7798C155.838 31.8665 155.752 31.9232 155.662 31.9032L154.894 31.7298C154.808 31.7097 154.751 31.623 154.771 31.533L154.941 30.7791C154.961 30.6924 155.048 30.6357 155.138 30.6557Z" fill="#585857"/>
<path d="M154.924 31.6063C154.904 31.603 154.891 31.5796 154.894 31.5596L155.064 30.8058C155.068 30.7858 155.091 30.7724 155.111 30.7758L155.878 30.9492C155.898 30.9525 155.912 30.9759 155.908 30.9959L155.738 31.7497C155.735 31.7697 155.711 31.7831 155.691 31.7798L154.924 31.6063Z" fill="#5E5E5D"/>
<path d="M156.449 30.9525L157.216 31.126C157.302 31.146 157.359 31.2327 157.339 31.3228L157.169 32.0766C157.149 32.1633 157.062 32.22 156.972 32.2L156.205 32.0266C156.118 32.0066 156.062 31.9198 156.082 31.8298L156.252 31.0759C156.272 30.9859 156.362 30.9325 156.449 30.9525Z" fill="#585857"/>
<path d="M156.235 31.9032C156.215 31.8998 156.202 31.8765 156.205 31.8565L156.375 31.1027C156.379 31.0826 156.402 31.0693 156.422 31.0726L157.189 31.2461C157.209 31.2494 157.223 31.2728 157.219 31.2928L157.049 32.0466C157.046 32.0666 157.022 32.08 157.002 32.0766L156.235 31.9032Z" fill="#5E5E5D"/>
<path d="M157.759 31.2461L158.526 31.4196C158.613 31.4396 158.67 31.5263 158.65 31.6164L158.48 32.3702C158.46 32.4569 158.373 32.5136 158.283 32.4936L157.516 32.3201C157.429 32.3001 157.372 32.2134 157.392 32.1234L157.562 31.3695C157.582 31.2828 157.672 31.2261 157.759 31.2461Z" fill="#585857"/>
<path d="M157.546 32.1967C157.526 32.1934 157.513 32.17 157.516 32.15L157.686 31.3962C157.689 31.3762 157.713 31.3628 157.733 31.3662L158.5 31.5396C158.52 31.5429 158.533 31.5663 158.53 31.5863L158.36 32.3401C158.356 32.3602 158.336 32.3735 158.313 32.3702L157.546 32.1967Z" fill="#5E5E5D"/>
<path d="M159.07 31.5394L159.837 31.7129C159.924 31.7329 159.981 31.8196 159.961 31.9097L159.791 32.6635C159.771 32.7502 159.684 32.8069 159.594 32.7869L158.827 32.6135C158.74 32.5934 158.683 32.5067 158.703 32.4167L158.873 31.6628C158.897 31.5761 158.983 31.5194 159.07 31.5394Z" fill="#585857"/>
<path d="M158.856 32.4902C158.836 32.4869 158.823 32.4636 158.826 32.4435L158.997 31.6897C159 31.6697 159.023 31.6564 159.043 31.6597L159.81 31.8331C159.83 31.8365 159.844 31.8598 159.84 31.8798L159.67 32.6337C159.667 32.6537 159.644 32.667 159.624 32.6637L158.856 32.4902Z" fill="#5E5E5D"/>
<path d="M160.381 31.8365L161.148 32.0099C161.235 32.0299 161.292 32.1166 161.272 32.2067L161.102 32.9605C161.082 33.0472 160.995 33.104 160.905 33.0839L160.138 32.9105C160.051 32.8905 159.994 32.8038 160.014 32.7137L160.184 31.9599C160.208 31.8698 160.295 31.8164 160.381 31.8365Z" fill="#585857"/>
<path d="M160.168 32.7871C160.148 32.7838 160.135 32.7604 160.138 32.7404L160.308 31.9866C160.311 31.9666 160.335 31.9532 160.355 31.9566L161.122 32.13C161.142 32.1333 161.155 32.1567 161.152 32.1767L160.982 32.9305C160.979 32.9505 160.955 32.9639 160.935 32.9605L160.168 32.7871Z" fill="#5E5E5D"/>
<path d="M154.354 32.6602L150.504 31.7963C150.331 31.7563 150.158 31.8664 150.121 32.0398L149.657 34.0978C149.617 34.2713 149.727 34.4447 149.901 34.4814L153.75 35.3453C153.923 35.3853 154.097 35.2753 154.134 35.1018L154.597 33.0438C154.637 32.8704 154.527 32.7002 154.354 32.6602Z" fill="#EDEDED"/>
<path d="M154.384 32.5367L150.534 31.6728C150.294 31.6195 150.054 31.7696 150.001 32.0097L149.537 34.0678C149.484 34.3079 149.634 34.5481 149.874 34.6014L153.723 35.4653C153.963 35.5187 154.204 35.3686 154.257 35.1285L154.721 33.0704C154.774 32.8303 154.624 32.5935 154.384 32.5367ZM154.137 35.1018C154.097 35.2752 153.927 35.3853 153.753 35.3453L149.904 34.4814C149.731 34.4413 149.621 34.2712 149.661 34.0978L150.124 32.0398C150.164 31.8663 150.334 31.7562 150.508 31.7963L154.357 32.6602C154.53 32.7002 154.64 32.8703 154.6 33.0437L154.137 35.1018Z" fill="#9D9B9B"/>
<path d="M149.888 33.0838L149.661 34.0978C149.621 34.2712 149.731 34.4447 149.904 34.4813L153.754 35.3452C153.927 35.3853 154.1 35.2752 154.137 35.1017L154.364 34.0877L149.888 33.0838Z" fill="#DFDFDE"/>
<path d="M152.109 33.581L149.888 33.0806L149.661 34.0946C149.621 34.2681 149.731 34.4415 149.904 34.4782L151.812 34.9085L152.109 33.581Z" fill="#D9D9DA"/>
<path d="M163.59 26.753L144.691 22.5036C144.581 22.4769 144.504 22.3735 144.514 22.2601L146.492 11.4463C146.519 11.1495 146.799 10.946 147.089 11.0127L166.338 15.3422C166.629 15.4089 166.795 15.7125 166.692 15.9926L163.853 26.6096C163.813 26.7164 163.703 26.7797 163.59 26.753Z" fill="#E3E1E1"/>
<path d="M145.338 21.4661L147.163 12.3368C147.189 12.0566 147.453 11.8632 147.726 11.9265L165.368 15.8925C165.641 15.9525 165.798 16.2427 165.701 16.5062L163.447 25.5355C163.367 25.7556 163.136 25.879 162.906 25.829L145.702 21.9598C145.471 21.9098 145.318 21.6963 145.338 21.4661Z" fill="#C7C7C6"/>
<path d="M145.465 21.4795L147.289 12.3435C147.309 12.14 147.499 11.9999 147.699 12.0466L165.348 16.0159C165.544 16.0592 165.661 16.2694 165.591 16.4595L163.33 25.4954C163.273 25.6556 163.106 25.7456 162.939 25.7089L145.725 21.8364C145.561 21.7997 145.448 21.6463 145.465 21.4795Z" fill="#C6E6F2"/>
<path opacity="0.24" d="M145.738 20.6056C146.065 20.0185 146.512 19.4648 147.006 19.0045C148.286 17.8137 150.071 17.1566 151.752 16.7964C153.733 16.3695 155.952 15.4955 157.966 15.6723C160.761 15.9125 162.653 16.3394 165.301 17.25L165.591 16.4595C165.661 16.2694 165.548 16.0593 165.348 16.0159L147.699 12.0466C147.503 12.0033 147.309 12.1433 147.289 12.3435L145.495 21.1493C145.555 20.9525 145.651 20.7623 145.738 20.6056Z" fill="#B6E0ED"/>
<path d="M160.851 26.1392L147.403 23.1139L147.409 22.8871L160.968 25.9358L160.851 26.1392Z" fill="#585857"/>
<path d="M156.472 13.5477C156.492 13.4643 156.576 13.4109 156.659 13.4309C156.742 13.4509 156.796 13.5343 156.776 13.6177C156.756 13.7011 156.672 13.7545 156.589 13.7345C156.505 13.7178 156.452 13.6344 156.472 13.5477Z" fill="#3C3C3B"/>
<path d="M156.515 13.5577C156.529 13.4976 156.589 13.4609 156.649 13.4743C156.709 13.4876 156.745 13.5477 156.732 13.6077C156.719 13.6677 156.659 13.7044 156.599 13.6911C156.539 13.6777 156.502 13.6177 156.515 13.5577Z" fill="#585857"/>
<path d="M156.579 13.5744C156.585 13.5511 156.609 13.5344 156.632 13.541C156.655 13.5477 156.672 13.5711 156.665 13.5944C156.659 13.6178 156.635 13.6344 156.612 13.6278C156.589 13.6211 156.572 13.5978 156.579 13.5744Z" fill="#B6E0ED"/>
</g>
<path d="M36.8077 88.6373C35.9108 84.8458 32.1193 82.5074 28.3483 83.4079C24.5721 84.3085 22.2432 88.1154 23.1401 91.9018C23.772 94.5626 25.8308 96.5069 28.3075 97.1158C28.4502 97.4945 28.7152 99.7919 29.1891 100.529C29.4031 100.861 29.6732 100.918 30.086 100.831C30.4173 102.013 31.8034 103.097 32.9449 102.99C33.745 102.913 34.3259 102.361 34.5858 101.619C34.7896 101.04 34.9527 100.375 35.0546 99.7305C35.605 99.7152 35.87 99.6589 35.8445 99.1421C35.7987 98.2467 34.8304 95.7804 34.7947 95.4017C36.5529 93.7285 37.409 91.1804 36.8077 88.6373Z" fill="#FDFFFC"/>
<path d="M33.1538 88.3816C33.0468 87.9978 32.6697 87.742 32.2722 87.8392C31.9002 87.9262 31.6199 88.3407 31.732 88.7244C31.7983 88.9598 31.9715 89.1491 32.1805 89.2361C32.0276 90.2288 31.8339 91.2061 31.7524 92.209C31.676 93.1402 31.5995 94.051 31.3957 94.9567C30.2898 93.2937 29.1891 91.6359 27.9712 90.0548C28.3075 89.7324 28.0527 89.011 27.487 89.144C26.8195 89.3026 27.0641 90.3465 27.7367 90.1878C27.7418 90.1878 27.7469 90.1827 27.752 90.1776C29.0158 91.9736 30.2542 93.7952 31.2836 95.7396C31.3957 95.9493 31.7014 95.9033 31.7728 95.6884C32.1091 94.6855 32.2059 93.6621 32.2773 92.6132C32.3588 91.4824 32.578 90.372 32.6697 89.2463C33.0111 89.1338 33.2557 88.7449 33.1538 88.3816Z" fill="#AEB4FC"/>
<path d="M24.6685 82.2006C23.2467 81.4944 21.8198 80.7832 20.398 80.072C20.1024 79.9287 19.8323 80.3534 20.1279 80.512C21.514 81.2795 22.9052 82.0419 24.2914 82.8095C24.699 83.0346 25.0761 82.4052 24.6685 82.2006Z" fill="#808AFF"/>
<path d="M27.3441 76.7767C27.2269 76.5157 26.8906 76.7051 26.916 76.9404C27.0893 78.4141 27.6346 79.9184 28.0626 81.3409C28.1697 81.6888 28.7047 81.5711 28.6181 81.2078C28.2665 79.7444 27.9607 78.1531 27.3441 76.7767Z" fill="#808AFF"/>
<path d="M33.9691 76.347C33.6022 76.6693 33.378 77.181 33.1487 77.6108C32.9092 78.0611 32.6951 78.5216 32.4913 78.9872C32.3282 79.3659 32.955 79.5654 33.113 79.1766C33.3016 78.7007 33.5054 78.2402 33.7398 77.7848C33.9386 77.3908 34.229 77.007 34.3462 76.5823C34.4125 76.3521 34.1373 76.1935 33.9691 76.347Z" fill="#808AFF"/>
<defs>
<clipPath id="clip0_471_5">
<rect width="14" height="17" fill="white" transform="translate(154 48)"/>
</clipPath>
<clipPath id="clip1_471_5">
<rect width="69" height="12" fill="white" transform="translate(58 141)"/>
</clipPath>
<clipPath id="clip2_471_5">
<rect width="32" height="26" fill="white" transform="translate(139 82)"/>
</clipPath>
<clipPath id="clip3_471_5">
<rect width="35" height="35" fill="white" transform="translate(41 7)"/>
</clipPath>
</defs>
</svg>
