<svg width="25" height="25" viewBox="0 0 25 25" fill="none" xmlns="http://www.w3.org/2000/svg">
<g clip-path="url(#clip0_1_1400)">
<path d="M22.7879 14.101C23.0337 14.101 23.2444 14.3026 23.2444 14.5635V16.6271C23.2444 16.8762 23.0454 17.0896 22.7879 17.0896H16.058C15.8122 17.0896 15.6016 16.888 15.6016 16.6271V14.5635C15.6016 14.3145 15.8005 14.101 16.058 14.101H22.7879ZM22.7879 12.3221H16.058C14.8408 12.3221 13.8459 13.3301 13.8459 14.5635V16.6271C13.8459 17.8605 14.8408 18.8686 16.058 18.8686H22.7879C24.0051 18.8686 25 17.8605 25 16.6271V14.5635C25 13.3301 24.0051 12.3221 22.7879 12.3221Z" fill="white"/>
<path d="M16.8188 1.77894C17.0646 1.77894 17.2752 1.98055 17.2752 2.24146V9.06072C17.2752 9.30977 17.0763 9.52324 16.8188 9.52324H14.7823C14.5365 9.52324 14.3258 9.32163 14.3258 9.06072V2.24146C14.3258 1.99241 14.5248 1.77894 14.7823 1.77894H16.8188ZM16.8188 0H14.7823C13.565 0 12.5702 1.00806 12.5702 2.24146V9.06072C12.5702 10.2941 13.565 11.3022 14.7823 11.3022H16.8188C18.036 11.3022 19.0309 10.2941 19.0309 9.06072V2.24146C19.0309 1.00806 18.0477 0 16.8188 0Z" fill="white"/>
<path d="M10.5453 15.4768C10.7911 15.4768 11.0018 15.6784 11.0018 15.9393V22.7586C11.0018 23.0076 10.8028 23.2211 10.5453 23.2211H8.50883C8.26304 23.2211 8.05237 23.0195 8.05237 22.7586V15.9393C8.05237 15.6902 8.25134 15.4768 8.50883 15.4768H10.5453ZM10.5453 13.6978H8.50883C7.2916 13.6978 6.29675 14.7059 6.29675 15.9393V22.7586C6.29675 23.9919 7.2916 25 8.50883 25H10.5453C11.7626 25 12.7574 23.9919 12.7574 22.7586V15.9393C12.7574 14.7059 11.7626 13.6978 10.5453 13.6978Z" fill="white"/>
<path d="M8.94195 8.01708C9.18773 8.01708 9.39841 8.21869 9.39841 8.4796V10.555C9.39841 10.8041 9.19944 11.0176 8.94195 11.0176H2.21208C1.95459 11.0176 1.75562 10.8041 1.75562 10.555V8.4796C1.75562 8.23055 1.95459 8.01708 2.21208 8.01708H8.94195ZM8.94195 6.23814H2.21208C0.99485 6.23814 0 7.24621 0 8.4796V10.555C0 11.7884 0.99485 12.7965 2.21208 12.7965H8.94195C10.1592 12.7965 11.154 11.7884 11.154 10.555V8.4796C11.154 7.24621 10.1592 6.23814 8.94195 6.23814Z" fill="white"/>
</g>
<defs>
<clipPath id="clip0_1_1400">
<rect width="25" height="25" fill="white"/>
</clipPath>
</defs>
</svg>
