<svg width="406" height="679" viewBox="0 0 406 679" fill="none" xmlns="http://www.w3.org/2000/svg">
<path fill-rule="evenodd" clip-rule="evenodd" d="M369.622 134.307C390.924 122.532 405.5 98.6246 405.5 71.0477C405.5 31.8091 375.989 0 339.585 0C317.462 0 297.884 11.7482 285.929 29.7723C281.9 28.5394 277.649 27.8795 273.254 27.8795C257.167 27.8795 242.995 36.7214 234.695 50.1426C228.602 43.0856 219.909 38.6715 210.259 38.6715C197.215 38.6715 185.918 46.7382 180.428 58.4961C171.3 52.7537 160.682 49.4636 149.351 49.4636C128.68 49.4636 110.381 60.413 99.1746 77.2246C95.4922 76.1294 91.6135 75.5444 87.608 75.5444C80.7994 75.5444 74.357 77.2348 68.6226 80.2476C62.3026 68.3061 50.3795 60.2556 36.7119 60.2556C16.4365 60.2556 0 77.9721 0 99.8265C0 116.944 10.0831 131.522 24.1965 137.038V679H369.622V134.307ZM232.335 101.625H232.556C232.532 101.578 232.508 101.53 232.484 101.482C232.435 101.53 232.385 101.578 232.335 101.625Z" fill="url(#paint0_linear_1_1609)"/>
<defs>
<linearGradient id="paint0_linear_1_1609" x1="196.909" y1="28.7788" x2="196.909" y2="490.589" gradientUnits="userSpaceOnUse">
<stop stop-color="#FAF8F5"/>
<stop offset="1" stop-color="white" stop-opacity="0"/>
</linearGradient>
</defs>
</svg>
