<svg width="395" height="283" viewBox="0 0 395 283" fill="none" xmlns="http://www.w3.org/2000/svg">
<path d="M27.1863 188.551C62.374 208.037 106.617 199.25 131.98 167.735C134.787 164.248 139.751 163.509 143.433 166.023L158.454 176.275C162.619 179.119 163.494 184.954 160.379 188.952C152.436 199.145 143.009 207.885 132.262 215.005C119.387 223.535 105.18 229.387 90.0322 232.396C74.8846 235.405 59.5528 235.421 44.4632 232.445C31.8659 229.96 19.8916 225.475 8.75184 219.072C4.3839 216.56 3.02899 210.82 5.83149 206.591L15.9405 191.346C18.4192 187.61 23.294 186.394 27.1863 188.551Z" fill="#FAF8F5"/>
<path d="M136.492 119.378C126.746 79.7587 90.3373 52.606 50.2554 55.0599C45.8193 55.3311 41.9139 52.1142 41.2394 47.6476L38.4816 29.42C37.7156 24.3633 41.3571 19.7372 46.3735 19.3491C59.159 18.36 71.9001 19.474 84.3615 22.675C99.2906 26.5114 113.179 33.1713 125.643 42.466C138.107 51.7606 148.527 63.2326 156.612 76.5604C163.362 87.6868 168.232 99.7092 171.149 112.41C172.294 117.392 169.048 122.313 164.076 123.092L146.151 125.897C141.759 126.585 137.569 123.762 136.492 119.378Z" fill="#FAF8F5"/>
<path d="M245.713 90.2635C285.445 84.2529 315.559 50.1219 317.039 9.4235C317.204 4.91884 320.731 1.28912 325.169 1.03724L343.282 0.013815C348.306 -0.269881 352.485 3.85299 352.378 8.95156C352.106 21.9538 349.783 34.7069 345.44 46.9774C340.238 61.6765 332.372 75.0553 322.063 86.7399C311.754 98.4244 299.512 107.834 285.68 114.709C274.134 120.447 261.89 124.204 249.175 125.922C244.188 126.595 239.682 122.843 239.402 117.75L238.393 99.3869C238.15 94.8875 241.317 90.929 245.713 90.2635Z" fill="#FAF8F5"/>
<path d="M271.947 169.502C292.388 204.491 334.848 219.865 372.519 205.916C376.687 204.373 381.327 206.31 383.226 210.379L390.978 226.978C393.127 231.582 390.942 237.052 386.251 238.875C374.291 243.52 361.786 246.149 348.963 246.7C333.599 247.361 318.44 245.029 303.902 239.766C289.365 234.503 276.176 226.571 264.702 216.192C255.123 207.527 247.086 197.465 240.733 186.187C238.243 181.765 239.968 176.127 244.506 173.944L260.872 166.077C264.884 164.149 269.687 165.63 271.947 169.502Z" fill="#FAF8F5"/>
</svg>
